SplineFontDB: 3.0
FontName: Bristol-Regular
FullName: Bristol Regular
FamilyName: Bristol
Weight: Regular
Copyright: Copyright (c) 2011 by Pablo Impallari. www.impallari.com Igino Marini. www.ikern.com. All rights reserved.
Version: 1.00
DefaultBaseFilename: Bristol-400
ItalicAngle: 0
UnderlinePosition: -100
UnderlineWidth: 50
Ascent: 800
Descent: 200
InvalidEm: 0
sfntRevision: 0x00010148
LayerCount: 2
Layer: 0 1 "Back" 1
Layer: 1 1 "Fore" 0
FSType: 0
OS2Version: 3
OS2_WeightWidthSlopeOnly: 0
OS2_UseTypoMetrics: 1
CreationTime: 1321442840
ModificationTime: 1431373599
PfmFamily: 33
TTFWeight: 400
TTFWidth: 5
LineGap: 0
VLineGap: 0
Panose: 2 11 8 3 5 2 2 2 0 4
OS2TypoAscent: 965
OS2TypoAOffset: 0
OS2TypoDescent: -250
OS2TypoDOffset: 0
OS2TypoLinegap: 0
OS2WinAscent: 965
OS2WinAOffset: 0
OS2WinDescent: 250
OS2WinDOffset: 0
HheadAscent: 965
HheadAOffset: 0
HheadDescent: -250
HheadDOffset: 0
OS2SubXSize: 700
OS2SubYSize: 650
OS2SubXOff: 0
OS2SubYOff: 140
OS2SupXSize: 700
OS2SupYSize: 650
OS2SupXOff: 0
OS2SupYOff: 477
OS2StrikeYSize: 50
OS2StrikeYPos: 250
OS2CapHeight: 700
OS2XHeight: 490
OS2FamilyClass: 2050
OS2Vendor: '    '
OS2CodePages: 00000001.00000000
OS2UnicodeRanges: 8000002f.0000000b.00000000.00000000
Lookup: 1 0 0 "'aalt' Access All Alternates in Latin lookup 0" { "'aalt' Access All Alternates in Latin lookup 0 subtable"  } ['aalt' ('latn' <'dflt' > ) ]
Lookup: 1 0 0 "'smcp' Lowercase to Small Capitals in Latin lookup 1" { "'smcp' Lowercase to Small Capitals in Latin lookup 1 subtable"  } ['smcp' ('latn' <'dflt' > ) ]
Lookup: 258 0 0 "'kern' Horizontal Kerning in Latin lookup 0" { "'kern' Horizontal Kerning in Latin lookup 0 per glyph data 0"  "'kern' Horizontal Kerning in Latin lookup 0 kerning class 1"  } ['kern' ('latn' <'dflt' > ) ]
MarkAttachClasses: 1
DEI: 91125
KernClass2: 89+ 77 "'kern' Horizontal Kerning in Latin lookup 0 kerning class 1"
 8 quotedbl
 9 ampersand
 9 parenleft
 5 comma
 20 hyphen endash emdash
 6 period
 5 slash
 4 four
 5 seven
 2 at

StartChar: .notdef
Encoding: 65536 -1 0
Width: 250
Flags: W
LayerCount: 2
Back
Fore
SplineSet
162 250 m 1,0,-1
 72 250 l 1,1,-1
 72 360 l 1,2,-1
 162 360 l 1,3,-1
 162 250 l 1,0,-1
EndSplineSet
EndChar

StartChar: exclam
Encoding: 33 33 2
Width: 242
Flags: W
LayerCount: 2
Back
Fore
SplineSet
183 750 m 1,0,-1
 153 200 l 1,1,-1
 89 200 l 1,2,-1
 59 750 l 1,3,-1
 183 750 l 1,0,-1
163 0 m 1,4,-1
 79 0 l 1,5,-1
 79 86 l 1,6,-1
 163 86 l 1,7,-1
 163 0 l 1,4,-1
EndSplineSet
EndChar

StartChar: quotedbl
Encoding: 34 34 3
Width: 402
Flags: W
LayerCount: 2
Back
Fore
SplineSet
362 750 m 1,0,-1
 342 450 l 1,1,-1
 290 450 l 1,2,-1
 270 750 l 1,3,-1
 362 750 l 1,0,-1
134 750 m 1,4,-1
 114 450 l 1,5,-1
 60 450 l 1,6,-1
 40 750 l 1,7,-1
 134 750 l 1,4,-1
EndSplineSet
EndChar

StartChar: numbersign
Encoding: 35 35 4
Width: 704
Flags: W
LayerCount: 2
Back
Fore
SplineSet
672 507 m 1,0,-1
 643 423 l 1,1,-1
 527 423 l 1,2,-1
 479 300 l 1,3,-1
 607 300 l 1,4,-1
 569 216 l 1,5,-1
 447 216 l 1,6,-1
 360 -11 l 1,7,-1
 280 -11 l 1,8,-1
 367 216 l 1,9,-1
 234 216 l 1,10,-1
 147 -11 l 1,11,-1
 67 -11 l 1,12,-1
 153 216 l 1,13,-1
 33 216 l 1,14,-1
 70 300 l 1,15,-1
 185 300 l 1,16,-1
 233 423 l 1,17,-1
 107 423 l 1,18,-1
 136 507 l 1,19,-1
 265 507 l 1,20,-1
 339 700 l 1,21,-1
 419 700 l 1,22,-1
 345 507 l 1,23,-1
 478 507 l 1,24,-1
 553 700 l 1,25,-1
 633 700 l 1,26,-1
 559 507 l 1,27,-1
 672 507 l 1,0,-1
446 423 m 1,28,-1
 314 423 l 1,29,-1
 266 300 l 1,30,-1
 398 300 l 1,31,-1
 446 423 l 1,28,-1
EndSplineSet
EndChar

StartChar: dollar
Encoding: 36 36 5
Width: 514
Flags: W
LayerCount: 2
Back
Fore
SplineSet
285 82 m 1,0,-1
 300 -32 l 1,1,-1
 211 -32 l 1,2,-1
 228 81 l 1,3,4
 111 87 111 87 52 119 c 1,5,-1
 64 228 l 1,6,7
 134 170 134 170 250 170 c 0,8,9
 360 170 360 170 360 233 c 0,10,11
 360 262 360 262 336.5 280 c 128,-1,12
 313 298 313 298 277.5 311 c 128,-1,13
 242 324 242 324 201 336 c 128,-1,14
 160 348 160 348 124.5 365 c 128,-1,15
 89 382 89 382 65.5 408 c 128,-1,16
 42 434 42 434 42 476 c 0,17,18
 42 504 42 504 52.5 530.5 c 128,-1,19
 63 557 63 557 85.5 577.5 c 128,-1,20
 108 598 108 598 143.5 612 c 128,-1,21
 179 626 179 626 228 631 c 1,22,-1
 211 748 l 1,23,-1
 301 748 l 1,24,-1
 285 631 l 1,25,26
 393 625 393 625 446 594 c 1,27,-1
 437 498 l 1,28,29
 335 546 335 546 270 546 c 0,30,31
 149 546 149 546 149 488 c 0,32,33
 149 461 149 461 173.5 445 c 128,-1,34
 198 429 198 429 234.5 417.5 c 128,-1,35
 271 406 271 406 313.5 394 c 128,-1,36
 356 382 356 382 392.5 363 c 128,-1,37
 429 344 429 344 453.5 313.5 c 128,-1,38
 478 283 478 283 478 234 c 0,39,40
 478 212 478 212 471 187.5 c 128,-1,41
 464 163 464 163 443 141.5 c 128,-1,42
 422 120 422 120 384 103.5 c 128,-1,43
 346 87 346 87 285 82 c 1,0,-1
EndSplineSet
EndChar

StartChar: percent
Encoding: 37 37 6
Width: 840
Flags: W
LayerCount: 2
Back
Fore
SplineSet
237 -12 m 1,0,-1
 162 -12 l 1,1,-1
 583 700 l 1,2,-1
 657 700 l 1,3,-1
 237 -12 l 1,0,-1
181 333 m 0,4,5
 117 333 117 333 76 380 c 128,-1,6
 35 427 35 427 35 515 c 0,7,8
 35 561 35 561 47 596.5 c 128,-1,9
 59 632 59 632 80 656 c 128,-1,10
 101 680 101 680 128.5 692.5 c 128,-1,11
 156 705 156 705 186 705 c 0,12,13
 217 705 217 705 243.5 693 c 128,-1,14
 270 681 270 681 289.5 658 c 128,-1,15
 309 635 309 635 320.5 601.5 c 128,-1,16
 332 568 332 568 332 524 c 0,17,18
 332 478 332 478 320.5 442.5 c 128,-1,19
 309 407 309 407 289 382.5 c 128,-1,20
 269 358 269 358 241.5 345.5 c 128,-1,21
 214 333 214 333 181 333 c 0,4,5
185 653 m 0,22,23
 166 653 166 653 149 643.5 c 128,-1,24
 132 634 132 634 119 616 c 128,-1,25
 106 598 106 598 98.5 572 c 128,-1,26
 91 546 91 546 91 515 c 0,27,28
 91 455 91 455 118 420 c 128,-1,29
 145 385 145 385 182 385 c 0,30,31
 222 385 222 385 249 422.5 c 128,-1,32
 276 460 276 460 276 524 c 0,33,34
 276 553 276 553 269 577 c 128,-1,35
 262 601 262 601 249 618 c 128,-1,36
 236 635 236 635 219.5 644 c 128,-1,37
 203 653 203 653 185 653 c 0,22,23
654 -14 m 0,38,39
 590 -14 590 -14 549 33 c 128,-1,40
 508 80 508 80 508 168 c 0,41,42
 508 214 508 214 520 249.5 c 128,-1,43
 532 285 532 285 553 309 c 128,-1,44
 574 333 574 333 601.5 345.5 c 128,-1,45
 629 358 629 358 659 358 c 0,46,47
 690 358 690 358 716.5 346 c 128,-1,48
 743 334 743 334 762.5 311 c 128,-1,49
 782 288 782 288 793.5 254.5 c 128,-1,50
 805 221 805 221 805 177 c 0,51,52
 805 131 805 131 793.5 95.5 c 128,-1,53
 782 60 782 60 762 35.5 c 128,-1,54
 742 11 742 11 714.5 -1.5 c 128,-1,55
 687 -14 687 -14 654 -14 c 0,38,39
658 306 m 0,56,57
 639 306 639 306 622 296.5 c 128,-1,58
 605 287 605 287 592 269 c 128,-1,59
 579 251 579 251 571.5 225 c 128,-1,60
 564 199 564 199 564 168 c 0,61,62
 564 108 564 108 591 73 c 128,-1,63
 618 38 618 38 655 38 c 0,64,65
 695 38 695 38 722 75.5 c 128,-1,66
 749 113 749 113 749 177 c 0,67,68
 749 206 749 206 742 230 c 128,-1,69
 735 254 735 254 722 271 c 128,-1,70
 709 288 709 288 692.5 297 c 128,-1,71
 676 306 676 306 658 306 c 0,56,57
EndSplineSet
EndChar

StartChar: ampersand
Encoding: 38 38 7
Width: 611
Flags: W
LayerCount: 2
Back
Fore
SplineSet
593 0 m 1,0,-1
 501 0 l 1,1,-1
 457 46 l 1,2,3
 413 8 413 8 370 -7.5 c 128,-1,4
 327 -23 327 -23 269 -23 c 0,5,6
 209 -23 209 -23 165.5 -9.5 c 128,-1,7
 122 4 122 4 93 28.5 c 128,-1,8
 64 53 64 53 50 87 c 128,-1,9
 36 121 36 121 36 162 c 0,10,11
 36 277 36 277 162 366 c 1,12,13
 87 457 87 457 87 536 c 0,14,15
 87 575 87 575 102.5 605.5 c 128,-1,16
 118 636 118 636 144.5 658 c 128,-1,17
 171 680 171 680 206.5 691.5 c 128,-1,18
 242 703 242 703 282 703 c 0,19,20
 354 703 354 703 389.5 668.5 c 128,-1,21
 425 634 425 634 425 577 c 0,22,23
 425 458 425 458 261 356 c 1,24,-1
 451 161 l 1,25,26
 483 202 483 202 490 351 c 1,27,-1
 571 351 l 1,28,29
 567 195 567 195 506 100 c 1,30,-1
 593 0 l 1,0,-1
270 634 m 0,31,32
 227 634 227 634 197.5 608 c 128,-1,33
 168 582 168 582 168 534 c 0,34,35
 168 473 168 473 223 406 c 1,36,-1
 276 447 l 1,37,-1
 296 464 l 2,38,39
 325 489 325 489 337 511 c 128,-1,40
 349 533 349 533 349 559 c 0,41,42
 349 595 349 595 327.5 614.5 c 128,-1,43
 306 634 306 634 270 634 c 0,31,32
412 105 m 1,44,-1
 204 313 l 1,45,46
 123 256 123 256 123 169 c 0,47,48
 123 114 123 114 160.5 79.5 c 128,-1,49
 198 45 198 45 271 45 c 0,50,51
 359 45 359 45 412 105 c 1,44,-1
EndSplineSet
EndChar

StartChar: quotesingle
Encoding: 39 39 8
Width: 182
Flags: W
LayerCount: 2
Back
Fore
SplineSet
141 750 m 1,0,-1
 123 450 l 1,1,-1
 59 450 l 1,2,-1
 41 750 l 1,3,-1
 141 750 l 1,0,-1
EndSplineSet
EndChar

StartChar: parenleft
Encoding: 40 40 9
Width: 261
Flags: W
LayerCount: 2
Back
Fore
SplineSet
237 -136 m 1,0,-1
 158 -136 l 1,1,2
 128 -91 128 -91 106 -44.5 c 128,-1,3
 84 2 84 2 70 55 c 128,-1,4
 56 108 56 108 49 170 c 128,-1,5
 42 232 42 232 42 307 c 0,6,7
 42 383 42 383 49 445 c 128,-1,8
 56 507 56 507 70.5 560 c 128,-1,9
 85 613 85 613 107 659 c 128,-1,10
 129 705 129 705 158 750 c 1,11,-1
 237 750 l 1,12,13
 114 550 114 550 114 307 c 0,14,15
 114 63 114 63 237 -136 c 1,0,-1
EndSplineSet
EndChar

StartChar: parenright
Encoding: 41 41 10
Width: 261
Flags: W
LayerCount: 2
Back
Fore
SplineSet
103 -136 m 1,0,-1
 24 -136 l 1,1,2
 147 63 147 63 147 307 c 0,3,4
 147 550 147 550 24 750 c 1,5,-1
 103 750 l 1,6,7
 132 705 132 705 154 659 c 128,-1,8
 176 613 176 613 190.5 560 c 128,-1,9
 205 507 205 507 212 445 c 128,-1,10
 219 383 219 383 219 307 c 0,11,12
 219 232 219 232 212 170 c 128,-1,13
 205 108 205 108 190.5 55 c 128,-1,14
 176 2 176 2 154.5 -44.5 c 128,-1,15
 133 -91 133 -91 103 -136 c 1,0,-1
EndSplineSet
EndChar

StartChar: asterisk
Encoding: 42 42 11
Width: 426
Flags: W
LayerCount: 2
Back
Fore
SplineSet
315 427 m 1,0,-1
 213 560 l 1,1,-1
 113 424 l 1,2,-1
 81 456 l 1,3,-1
 189 573 l 1,4,-1
 33 638 l 1,5,-1
 56 679 l 1,6,-1
 204 593 l 1,7,-1
 191 749 l 1,8,-1
 237 749 l 1,9,-1
 221 593 l 1,10,-1
 370 679 l 1,11,-1
 393 637 l 1,12,-1
 235 574 l 1,13,-1
 348 459 l 1,14,-1
 315 427 l 1,0,-1
EndSplineSet
EndChar

StartChar: plus
Encoding: 43 43 12
Width: 463
Flags: W
LayerCount: 2
Back
Fore
SplineSet
416 238 m 1,0,-1
 271 238 l 1,1,-1
 271 102 l 1,2,-1
 191 102 l 1,3,-1
 191 238 l 1,4,-1
 46 238 l 1,5,-1
 46 324 l 1,6,-1
 191 324 l 1,7,-1
 191 452 l 1,8,-1
 271 452 l 1,9,-1
 271 324 l 1,10,-1
 416 324 l 1,11,-1
 416 238 l 1,0,-1
EndSplineSet
EndChar

StartChar: comma
Encoding: 44 44 13
Width: 216
Flags: W
LayerCount: 2
Back
Fore
SplineSet
158 0 m 1,0,-1
 80 -109 l 1,1,-1
 57 -96 l 1,2,-1
 92 -9 l 1,3,-1
 58 0 l 1,4,-1
 58 86 l 1,5,-1
 158 86 l 1,6,-1
 158 0 l 1,0,-1
EndSplineSet
EndChar

StartChar: hyphen
Encoding: 45 45 14
Width: 424
Flags: W
LayerCount: 2
Back
Fore
SplineSet
367 238 m 1,0,-1
 57 238 l 1,1,-1
 57 324 l 1,2,-1
 367 324 l 1,3,-1
 367 238 l 1,0,-1
EndSplineSet
EndChar

StartChar: period
Encoding: 46 46 15
Width: 204
Flags: W
LayerCount: 2
Back
Fore
SplineSet
147 0 m 1,0,-1
 57 0 l 1,1,-1
 57 86 l 1,2,-1
 147 86 l 1,3,-1
 147 0 l 1,0,-1
EndSplineSet
EndChar

StartChar: slash
Encoding: 47 47 16
Width: 532
Flags: W
LayerCount: 2
Back
Fore
SplineSet
497 700 m 1,0,-1
 119 -85 l 1,1,-1
 19 -85 l 1,2,-1
 397 700 l 1,3,-1
 497 700 l 1,0,-1
EndSplineSet
EndChar

StartChar: zero
Encoding: 48 48 17
Width: 714
Flags: W
LayerCount: 2
Back
Fore
SplineSet
351 -14 m 0,0,1
 286 -14 286 -14 233 11 c 128,-1,2
 180 36 180 36 142.5 82 c 128,-1,3
 105 128 105 128 84 193 c 128,-1,4
 63 258 63 258 63 338 c 0,5,6
 63 421 63 421 86 490.5 c 128,-1,7
 109 560 109 560 149.5 609.5 c 128,-1,8
 190 659 190 659 245 686.5 c 128,-1,9
 300 714 300 714 363 714 c 0,10,11
 425 714 425 714 478 687.5 c 128,-1,12
 531 661 531 661 569.5 614 c 128,-1,13
 608 567 608 567 629.5 501 c 128,-1,14
 651 435 651 435 651 357 c 0,15,16
 651 273 651 273 629.5 204.5 c 128,-1,17
 608 136 608 136 568.5 87.5 c 128,-1,18
 529 39 529 39 473.5 12.5 c 128,-1,19
 418 -14 418 -14 351 -14 c 0,0,1
361 628 m 256,20,21
 320 628 320 628 284 608.5 c 128,-1,22
 248 589 248 589 221.5 552 c 128,-1,23
 195 515 195 515 179.5 461 c 128,-1,24
 164 407 164 407 164 338 c 0,25,26
 164 206 164 206 215 139 c 128,-1,27
 266 72 266 72 353 72 c 0,28,29
 444 72 444 72 498 143.5 c 128,-1,30
 552 215 552 215 552 357 c 0,31,32
 552 421 552 421 537.5 471.5 c 128,-1,33
 523 522 523 522 497.5 556.5 c 128,-1,34
 472 591 472 591 437 609.5 c 128,-1,35
 402 628 402 628 361 628 c 256,20,21
EndSplineSet
EndChar

StartChar: one
Encoding: 49 49 18
Width: 355
Flags: W
LayerCount: 2
Back
Fore
SplineSet
254 0 m 1,0,-1
 154 0 l 1,1,-1
 154 563 l 1,2,3
 100 518 100 518 50 502 c 1,4,-1
 34 591 l 1,5,6
 55 598 55 598 76.5 609.5 c 128,-1,7
 98 621 98 621 117.5 635.5 c 128,-1,8
 137 650 137 650 153.5 666.5 c 128,-1,9
 170 683 170 683 181 700 c 1,10,-1
 254 700 l 1,11,-1
 254 0 l 1,0,-1
EndSplineSet
EndChar

StartChar: two
Encoding: 50 50 19
Width: 524
Flags: W
LayerCount: 2
Back
Fore
SplineSet
470 0 m 1,0,-1
 56 0 l 1,1,2
 147 129 147 129 205 218.5 c 128,-1,3
 263 308 263 308 291 360 c 0,4,5
 347 464 347 464 347 512 c 0,6,7
 347 566 347 566 314.5 595.5 c 128,-1,8
 282 625 282 625 225 625 c 0,9,10
 132 625 132 625 62 532 c 1,11,-1
 50 617 l 1,12,13
 57 630 57 630 74.5 647 c 128,-1,14
 92 664 92 664 117.5 679 c 128,-1,15
 143 694 143 694 176.5 704 c 128,-1,16
 210 714 210 714 249 714 c 0,17,18
 304 714 304 714 341.5 696.5 c 128,-1,19
 379 679 379 679 401.5 651.5 c 128,-1,20
 424 624 424 624 433.5 589.5 c 128,-1,21
 443 555 443 555 443 522 c 0,22,23
 443 486 443 486 431.5 444.5 c 128,-1,24
 420 403 420 403 394.5 351.5 c 128,-1,25
 369 300 369 300 328 235 c 128,-1,26
 287 170 287 170 228 86 c 1,27,-1
 470 86 l 1,28,-1
 470 0 l 1,0,-1
EndSplineSet
EndChar

StartChar: three
Encoding: 51 51 20
Width: 547
Flags: W
LayerCount: 2
Back
Fore
SplineSet
230 -14 m 0,0,1
 200 -14 200 -14 169.5 -8.5 c 128,-1,2
 139 -3 139 -3 112.5 5.5 c 128,-1,3
 86 14 86 14 66.5 23 c 128,-1,4
 47 32 47 32 40 39 c 1,5,-1
 63 127 l 1,6,7
 91 112 91 112 112 102 c 128,-1,8
 133 92 133 92 151.5 85 c 128,-1,9
 170 78 170 78 189 75 c 128,-1,10
 208 72 208 72 231 72 c 0,11,12
 261 72 261 72 288.5 79.5 c 128,-1,13
 316 87 316 87 336 104 c 128,-1,14
 356 121 356 121 368 148 c 128,-1,15
 380 175 380 175 380 213 c 0,16,17
 380 243 380 243 371.5 267 c 128,-1,18
 363 291 363 291 343.5 308 c 128,-1,19
 324 325 324 325 292.5 334 c 128,-1,20
 261 343 261 343 214 343 c 2,21,-1
 141 343 l 1,22,-1
 151 419 l 1,23,-1
 188 419 l 2,24,25
 279 419 279 419 317 448 c 128,-1,26
 355 477 355 477 355 534 c 0,27,28
 355 628 355 628 236 628 c 0,29,30
 151 628 151 628 101 587 c 1,31,-1
 84 668 l 1,32,33
 100 684 100 684 141.5 699 c 128,-1,34
 183 714 183 714 246 714 c 0,35,36
 312 714 312 714 353.5 696.5 c 128,-1,37
 395 679 395 679 418.5 652.5 c 128,-1,38
 442 626 442 626 450.5 594.5 c 128,-1,39
 459 563 459 563 459 534 c 0,40,41
 459 492 459 492 439 457.5 c 128,-1,42
 419 423 419 423 368 388 c 1,43,44
 484 349 484 349 484 214 c 0,45,46
 484 160 484 160 464 117.5 c 128,-1,47
 444 75 444 75 409.5 45.5 c 128,-1,48
 375 16 375 16 328.5 1 c 128,-1,49
 282 -14 282 -14 230 -14 c 0,0,1
EndSplineSet
EndChar

StartChar: four
Encoding: 52 52 21
Width: 559
Flags: W
LayerCount: 2
Back
Fore
SplineSet
500 190 m 1,0,-1
 415 190 l 1,1,-1
 415 0 l 1,2,-1
 315 0 l 1,3,-1
 315 190 l 1,4,-1
 14 190 l 1,5,-1
 336 700 l 1,6,-1
 415 700 l 1,7,-1
 415 276 l 1,8,-1
 500 276 l 1,9,-1
 500 190 l 1,0,-1
315 276 m 1,10,-1
 315 530 l 1,11,-1
 162 276 l 1,12,-1
 315 276 l 1,10,-1
EndSplineSet
EndChar

StartChar: five
Encoding: 53 53 22
Width: 541
Flags: W
LayerCount: 2
Back
Fore
SplineSet
220 -14 m 0,0,1
 198 -14 198 -14 171 -10.5 c 128,-1,2
 144 -7 144 -7 119 -1 c 128,-1,3
 94 5 94 5 75.5 12 c 128,-1,4
 57 19 57 19 51 25 c 1,5,-1
 74 114 l 1,6,7
 146 72 146 72 219 72 c 0,8,9
 254 72 254 72 284 84.5 c 128,-1,10
 314 97 314 97 336.5 118.5 c 128,-1,11
 359 140 359 140 372 169 c 128,-1,12
 385 198 385 198 385 232 c 0,13,14
 385 295 385 295 335.5 325 c 128,-1,15
 286 355 286 355 174 355 c 2,16,-1
 89 355 l 1,17,-1
 131 700 l 1,18,-1
 449 700 l 1,19,-1
 440 614 l 1,20,-1
 207 614 l 1,21,-1
 187 440 l 1,22,23
 268 440 268 440 325.5 427.5 c 128,-1,24
 383 415 383 415 419 390 c 128,-1,25
 455 365 455 365 472 326.5 c 128,-1,26
 489 288 489 288 489 236 c 0,27,28
 489 180 489 180 467 134 c 128,-1,29
 445 88 445 88 408.5 55 c 128,-1,30
 372 22 372 22 323 4 c 128,-1,31
 274 -14 274 -14 220 -14 c 0,0,1
EndSplineSet
EndChar

StartChar: six
Encoding: 54 54 23
Width: 568
Flags: W
LayerCount: 2
Back
Fore
SplineSet
281 -14 m 0,0,1
 231 -14 231 -14 191 1 c 128,-1,2
 151 16 151 16 122 47 c 128,-1,3
 93 78 93 78 77.5 126 c 128,-1,4
 62 174 62 174 62 240 c 0,5,6
 62 338 62 338 92.5 422 c 128,-1,7
 123 506 123 506 168.5 567.5 c 128,-1,8
 214 629 214 629 266.5 664 c 128,-1,9
 319 699 319 699 362 700 c 1,10,-1
 427 662 l 1,11,12
 387 644 387 644 349 621 c 128,-1,13
 311 598 311 598 278 563.5 c 128,-1,14
 245 529 245 529 217.5 479 c 128,-1,15
 190 429 190 429 171 357 c 1,16,17
 217 420 217 420 312 420 c 0,18,19
 357 420 357 420 396 406.5 c 128,-1,20
 435 393 435 393 463.5 367.5 c 128,-1,21
 492 342 492 342 508 304 c 128,-1,22
 524 266 524 266 524 218 c 0,23,24
 524 169 524 169 506.5 127 c 128,-1,25
 489 85 489 85 457 53.5 c 128,-1,26
 425 22 425 22 380.5 4 c 128,-1,27
 336 -14 336 -14 281 -14 c 0,0,1
303 339 m 0,28,29
 274 339 274 339 248.5 329 c 128,-1,30
 223 319 223 319 204 301 c 128,-1,31
 185 283 185 283 173.5 257.5 c 128,-1,32
 162 232 162 232 162 201 c 0,33,34
 162 168 162 168 172 143.5 c 128,-1,35
 182 119 182 119 200 102.5 c 128,-1,36
 218 86 218 86 242 77.5 c 128,-1,37
 266 69 266 69 293 69 c 0,38,39
 326 69 326 69 351 81 c 128,-1,40
 376 93 376 93 393 113 c 128,-1,41
 410 133 410 133 418.5 159 c 128,-1,42
 427 185 427 185 427 214 c 0,43,44
 427 238 427 238 420.5 260.5 c 128,-1,45
 414 283 414 283 399 300.5 c 128,-1,46
 384 318 384 318 360.5 328.5 c 128,-1,47
 337 339 337 339 303 339 c 0,28,29
EndSplineSet
EndChar

StartChar: seven
Encoding: 55 55 24
Width: 502
Flags: W
LayerCount: 2
Back
Fore
SplineSet
492 700 m 1,0,-1
 189 0 l 1,1,-1
 89 0 l 1,2,-1
 354 614 l 1,3,-1
 39 614 l 1,4,-1
 39 700 l 1,5,-1
 492 700 l 1,0,-1
EndSplineSet
EndChar

StartChar: eight
Encoding: 56 56 25
Width: 609
Flags: W
LayerCount: 2
Back
Fore
SplineSet
296 -14 m 0,0,1
 236 -14 236 -14 191.5 2.5 c 128,-1,2
 147 19 147 19 117.5 47 c 128,-1,3
 88 75 88 75 73.5 111.5 c 128,-1,4
 59 148 59 148 59 189 c 0,5,6
 59 305 59 305 193 376 c 1,7,8
 100 448 100 448 100 540 c 0,9,10
 100 576 100 576 112 608 c 128,-1,11
 124 640 124 640 149 663 c 128,-1,12
 174 686 174 686 213 699.5 c 128,-1,13
 252 713 252 713 308 713 c 0,14,15
 362 713 362 713 400 700.5 c 128,-1,16
 438 688 438 688 462.5 666.5 c 128,-1,17
 487 645 487 645 498.5 616 c 128,-1,18
 510 587 510 587 510 555 c 0,19,20
 510 528 510 528 504.5 507.5 c 128,-1,21
 499 487 499 487 485.5 468 c 128,-1,22
 472 449 472 449 449.5 430 c 128,-1,23
 427 411 427 411 393 387 c 1,24,25
 474 359 474 359 511.5 314.5 c 128,-1,26
 549 270 549 270 549 198 c 0,27,28
 549 158 549 158 532.5 120 c 128,-1,29
 516 82 516 82 484 52 c 128,-1,30
 452 22 452 22 404.5 4 c 128,-1,31
 357 -14 357 -14 296 -14 c 0,0,1
187 534 m 0,32,33
 187 500 187 500 217 470 c 128,-1,34
 247 440 247 440 298 421 c 1,35,36
 356 438 356 438 385.5 471.5 c 128,-1,37
 415 505 415 505 415 545 c 0,38,39
 415 584 415 584 386 606 c 128,-1,40
 357 628 357 628 303 628 c 256,41,42
 249 628 249 628 218 603.5 c 128,-1,43
 187 579 187 579 187 534 c 0,32,33
306 338 m 1,44,45
 240 325 240 325 201.5 288.5 c 128,-1,46
 163 252 163 252 163 189 c 0,47,48
 163 131 163 131 198.5 101.5 c 128,-1,49
 234 72 234 72 300 72 c 0,50,51
 332 72 332 72 359 81.5 c 128,-1,52
 386 91 386 91 406 108 c 128,-1,53
 426 125 426 125 437 148.5 c 128,-1,54
 448 172 448 172 448 199 c 0,55,56
 448 250 448 250 408.5 286.5 c 128,-1,57
 369 323 369 323 306 338 c 1,44,45
EndSplineSet
EndChar

StartChar: nine
Encoding: 57 57 26
Width: 570
Flags: W
LayerCount: 2
Back
Fore
SplineSet
288 714 m 0,0,1
 330 714 330 714 369.5 702 c 128,-1,2
 409 690 409 690 439.5 661 c 128,-1,3
 470 632 470 632 488.5 583.5 c 128,-1,4
 507 535 507 535 507 462 c 0,5,6
 507 352 507 352 476.5 266 c 128,-1,7
 446 180 446 180 401.5 121 c 128,-1,8
 357 62 357 62 306.5 31 c 128,-1,9
 256 0 256 0 216 0 c 1,10,-1
 143 38 l 1,11,12
 184 57 184 57 225.5 82.5 c 128,-1,13
 267 108 267 108 302 143.5 c 128,-1,14
 337 179 337 179 362 226 c 128,-1,15
 387 273 387 273 396 336 c 1,16,17
 376 309 376 309 338 294 c 128,-1,18
 300 279 300 279 257 279 c 0,19,20
 157 279 157 279 101 330 c 128,-1,21
 45 381 45 381 45 481 c 0,22,23
 45 532 45 532 63 574.5 c 128,-1,24
 81 617 81 617 113 648 c 128,-1,25
 145 679 145 679 189.5 696.5 c 128,-1,26
 234 714 234 714 288 714 c 0,0,1
266 361 m 0,27,28
 296 361 296 361 321.5 371 c 128,-1,29
 347 381 347 381 366 399.5 c 128,-1,30
 385 418 385 418 396 443.5 c 128,-1,31
 407 469 407 469 407 501 c 0,32,33
 407 532 407 532 396.5 556.5 c 128,-1,34
 386 581 386 581 368.5 597.5 c 128,-1,35
 351 614 351 614 327 622.5 c 128,-1,36
 303 631 303 631 276 631 c 0,37,38
 243 631 243 631 218 619 c 128,-1,39
 193 607 193 607 176 587 c 128,-1,40
 159 567 159 567 150.5 540.5 c 128,-1,41
 142 514 142 514 142 486 c 0,42,43
 142 462 142 462 148.5 439 c 128,-1,44
 155 416 155 416 169.5 399 c 128,-1,45
 184 382 184 382 207.5 371.5 c 128,-1,46
 231 361 231 361 266 361 c 0,27,28
EndSplineSet
EndChar

StartChar: colon
Encoding: 58 58 27
Width: 204
Flags: W
LayerCount: 2
Back
Fore
SplineSet
147 354 m 1,0,-1
 57 354 l 1,1,-1
 57 440 l 1,2,-1
 147 440 l 1,3,-1
 147 354 l 1,0,-1
147 0 m 1,4,-1
 57 0 l 1,5,-1
 57 86 l 1,6,-1
 147 86 l 1,7,-1
 147 0 l 1,4,-1
EndSplineSet
EndChar

StartChar: semicolon
Encoding: 59 59 28
Width: 216
Flags: W
LayerCount: 2
Back
Fore
SplineSet
158 354 m 1,0,-1
 58 354 l 1,1,-1
 58 440 l 1,2,-1
 158 440 l 1,3,-1
 158 354 l 1,0,-1
158 -1 m 1,4,-1
 80 -109 l 1,5,-1
 57 -96 l 1,6,-1
 92 -9 l 1,7,-1
 58 0 l 1,8,-1
 58 86 l 1,9,-1
 158 86 l 1,10,-1
 158 -1 l 1,4,-1
EndSplineSet
EndChar

StartChar: less
Encoding: 60 60 29
Width: 405
Flags: W
LayerCount: 2
Back
Fore
SplineSet
344 78 m 1,0,-1
 249 78 l 1,1,-1
 33 284 l 1,2,-1
 249 490 l 1,3,-1
 344 490 l 1,4,-1
 128 284 l 1,5,-1
 344 78 l 1,0,-1
EndSplineSet
EndChar

StartChar: equal
Encoding: 61 61 30
Width: 502
Flags: W
LayerCount: 2
Back
Fore
SplineSet
436 318 m 1,0,-1
 66 318 l 1,1,-1
 66 394 l 1,2,-1
 436 394 l 1,3,-1
 436 318 l 1,0,-1
436 160 m 1,4,-1
 66 160 l 1,5,-1
 66 236 l 1,6,-1
 436 236 l 1,7,-1
 436 160 l 1,4,-1
EndSplineSet
EndChar

StartChar: greater
Encoding: 62 62 31
Width: 404
Flags: W
LayerCount: 2
Back
Fore
SplineSet
371 284 m 1,0,-1
 155 78 l 1,1,-1
 60 78 l 1,2,-1
 276 284 l 1,3,-1
 60 490 l 1,4,-1
 155 490 l 1,5,-1
 371 284 l 1,0,-1
EndSplineSet
EndChar

StartChar: question
Encoding: 63 63 32
Width: 441
Flags: W
LayerCount: 2
Back
Fore
SplineSet
226 200 m 1,0,-1
 167 200 l 1,1,2
 164 240 164 240 164 245 c 0,3,4
 164 276 164 276 175 302.5 c 128,-1,5
 186 329 186 329 203 353.5 c 128,-1,6
 220 378 220 378 239 401.5 c 128,-1,7
 258 425 258 425 275 449.5 c 128,-1,8
 292 474 292 474 303 501.5 c 128,-1,9
 314 529 314 529 314 561 c 0,10,11
 314 591 314 591 303.5 614 c 128,-1,12
 293 637 293 637 275.5 652.5 c 128,-1,13
 258 668 258 668 235 676 c 128,-1,14
 212 684 212 684 186 684 c 0,15,16
 164 684 164 684 142.5 677.5 c 128,-1,17
 121 671 121 671 103.5 661 c 128,-1,18
 86 651 86 651 73 639 c 128,-1,19
 60 627 60 627 55 616 c 1,20,-1
 30 683 l 1,21,22
 49 712 49 712 92 731 c 128,-1,23
 135 750 135 750 189 750 c 0,24,25
 237 750 237 750 275.5 733.5 c 128,-1,26
 314 717 314 717 341 690 c 128,-1,27
 368 663 368 663 382.5 629.5 c 128,-1,28
 397 596 397 596 397 563 c 0,29,30
 397 528 397 528 379.5 490 c 128,-1,31
 362 452 362 452 337 420 c 2,32,-1
 286 355 l 2,33,34
 260 322 260 322 242.5 289 c 128,-1,35
 225 256 225 256 226 227 c 2,36,-1
 226 200 l 1,0,-1
244 0 m 1,37,-1
 153 0 l 1,38,-1
 153 86 l 1,39,-1
 244 86 l 1,40,-1
 244 0 l 1,37,-1
EndSplineSet
EndChar

StartChar: at
Encoding: 64 64 33
Width: 722
Flags: W
LayerCount: 2
Back
Fore
SplineSet
545 379 m 1,0,1
 494 432 494 432 423 432 c 0,2,3
 377 432 377 432 331.5 407 c 128,-1,4
 286 382 286 382 250 342.5 c 128,-1,5
 214 303 214 303 191.5 252.5 c 128,-1,6
 169 202 169 202 169 151 c 0,7,8
 169 103 169 103 191 71.5 c 128,-1,9
 213 40 213 40 264 40 c 0,10,11
 285 40 285 40 310 48.5 c 128,-1,12
 335 57 335 57 359 72.5 c 128,-1,13
 383 88 383 88 404.5 109 c 128,-1,14
 426 130 426 130 440 156 c 1,15,16
 440 155 440 155 439.5 150.5 c 128,-1,17
 439 146 439 146 438.5 141 c 128,-1,18
 438 136 438 136 437.5 131 c 128,-1,19
 437 126 437 126 437 125 c 0,20,21
 437 93 437 93 450 67.5 c 128,-1,22
 463 42 463 42 492 42 c 0,23,24
 507 42 507 42 525 47.5 c 128,-1,25
 543 53 543 53 561 62 c 128,-1,26
 579 71 579 71 596 82.5 c 128,-1,27
 613 94 613 94 625 106 c 1,28,29
 601 63 601 63 566 27.5 c 128,-1,30
 531 -8 531 -8 488 -33.5 c 128,-1,31
 445 -59 445 -59 396.5 -73 c 128,-1,32
 348 -87 348 -87 297 -87 c 0,33,34
 240 -87 240 -87 194 -69.5 c 128,-1,35
 148 -52 148 -52 115.5 -19 c 128,-1,36
 83 14 83 14 66 62 c 128,-1,37
 49 110 49 110 49 170 c 0,38,39
 49 250 49 250 79 320 c 128,-1,40
 109 390 109 390 161 441.5 c 128,-1,41
 213 493 213 493 281 523 c 128,-1,42
 349 553 349 553 426 553 c 0,43,44
 484 553 484 553 530.5 535 c 128,-1,45
 577 517 577 517 609 484 c 128,-1,46
 641 451 641 451 658 404 c 128,-1,47
 675 357 675 357 675 299 c 0,48,49
 675 273 675 273 672.5 245 c 128,-1,50
 670 217 670 217 662 191.5 c 128,-1,51
 654 166 654 166 637.5 145 c 128,-1,52
 621 124 621 124 593 111 c 0,53,54
 554 94 554 94 527 94 c 0,55,56
 490 94 490 94 490 147 c 0,57,58
 490 160 490 160 495 184 c 128,-1,59
 500 208 500 208 508 238.5 c 128,-1,60
 516 269 516 269 525.5 305 c 128,-1,61
 535 341 535 341 545 379 c 1,0,1
424 371 m 0,62,63
 471 371 471 371 478 349 c 1,64,65
 472 310 472 310 451.5 267.5 c 128,-1,66
 431 225 431 225 404 189 c 128,-1,67
 377 153 377 153 347.5 129.5 c 128,-1,68
 318 106 318 106 293 106 c 0,69,70
 271 106 271 106 260 124 c 128,-1,71
 249 142 249 142 249 170 c 0,72,73
 249 209 249 209 266 245.5 c 128,-1,74
 283 282 283 282 309.5 309.5 c 128,-1,75
 336 337 336 337 366.5 354 c 128,-1,76
 397 371 397 371 424 371 c 0,62,63
EndSplineSet
EndChar

StartChar: A
Encoding: 65 65 34
Width: 616
Flags: W
LayerCount: 2
Back
Fore
SplineSet
609 0 m 1,0,-1
 509 0 l 1,1,-1
 442 189 l 1,2,-1
 174 189 l 1,3,-1
 107 0 l 1,4,-1
 7 0 l 1,5,-1
 258 700 l 1,6,-1
 358 700 l 1,7,-1
 609 0 l 1,0,-1
412 275 m 1,8,-1
 308 567 l 1,9,-1
 204 275 l 1,10,-1
 412 275 l 1,8,-1
EndSplineSet
EndChar

StartChar: B
Encoding: 66 66 35
Width: 597
Flags: W
LayerCount: 2
Back
Fore
SplineSet
320 0 m 2,0,-1
 80 0 l 1,1,-1
 80 700 l 1,2,-1
 238 700 l 2,3,4
 303 700 303 700 352.5 693 c 128,-1,5
 402 686 402 686 435 666.5 c 128,-1,6
 468 647 468 647 485 613.5 c 128,-1,7
 502 580 502 580 502 527 c 0,8,9
 502 500 502 500 500.5 480 c 128,-1,10
 499 460 499 460 493 443 c 128,-1,11
 487 426 487 426 475.5 409.5 c 128,-1,12
 464 393 464 393 445 373 c 1,13,14
 510 348 510 348 536 308 c 128,-1,15
 562 268 562 268 562 208 c 0,16,17
 562 141 562 141 540.5 100 c 128,-1,18
 519 59 519 59 484.5 37 c 128,-1,19
 450 15 450 15 406.5 7.5 c 128,-1,20
 363 0 363 0 320 0 c 2,0,-1
265 615 m 2,21,-1
 175 615 l 1,22,-1
 175 409 l 1,23,-1
 293 409 l 2,24,25
 317 409 317 409 337 412.5 c 128,-1,26
 357 416 357 416 372 427 c 128,-1,27
 387 438 387 438 395.5 460 c 128,-1,28
 404 482 404 482 404 520 c 0,29,30
 404 553 404 553 392.5 572 c 128,-1,31
 381 591 381 591 362 600.5 c 128,-1,32
 343 610 343 610 318 612.5 c 128,-1,33
 293 615 293 615 265 615 c 2,21,-1
323 323 m 2,34,-1
 175 323 l 1,35,-1
 175 86 l 1,36,-1
 273 86 l 2,37,38
 318 86 318 86 353 89.5 c 128,-1,39
 388 93 388 93 412.5 105 c 128,-1,40
 437 117 437 117 450 139 c 128,-1,41
 463 161 463 161 463 199 c 0,42,43
 463 234 463 234 453 257.5 c 128,-1,44
 443 281 443 281 425 295.5 c 128,-1,45
 407 310 407 310 381 316.5 c 128,-1,46
 355 323 355 323 323 323 c 2,34,-1
EndSplineSet
EndChar

StartChar: C
Encoding: 67 67 36
Width: 616
Flags: W
LayerCount: 2
Back
Fore
SplineSet
390 -14 m 0,0,1
 313 -14 313 -14 248.5 12 c 128,-1,2
 184 38 184 38 137.5 86 c 128,-1,3
 91 134 91 134 65 201 c 128,-1,4
 39 268 39 268 39 350 c 0,5,6
 39 431 39 431 65 498 c 128,-1,7
 91 565 91 565 137.5 613 c 128,-1,8
 184 661 184 661 248 687.5 c 128,-1,9
 312 714 312 714 389 714 c 0,10,11
 496 714 496 714 583 673 c 1,12,-1
 573 585 l 1,13,-1
 516 605 l 2,14,15
 459 628 459 628 389 628 c 0,16,17
 330 628 330 628 284.5 607 c 128,-1,18
 239 586 239 586 207.5 549 c 128,-1,19
 176 512 176 512 159.5 461 c 128,-1,20
 143 410 143 410 143 350 c 0,21,22
 143 291 143 291 159 240 c 128,-1,23
 175 189 175 189 206.5 151.5 c 128,-1,24
 238 114 238 114 284.5 93 c 128,-1,25
 331 72 331 72 391 72 c 0,26,27
 406 72 406 72 420 73 c 128,-1,28
 434 74 434 74 449 77 c 2,29,-1
 474 82 l 2,30,31
 482 83 482 83 501 90 c 2,32,-1
 524 97 l 2,33,34
 529 98 529 98 550 106 c 2,35,-1
 573 114 l 1,36,-1
 583 26 l 1,37,38
 496 -14 496 -14 390 -14 c 0,0,1
EndSplineSet
EndChar

StartChar: D
Encoding: 68 68 37
Width: 727
Flags: W
LayerCount: 2
Back
Fore
SplineSet
339 0 m 2,0,-1
 80 0 l 1,1,-1
 80 700 l 1,2,-1
 339 700 l 2,3,4
 415 700 415 700 479 676 c 128,-1,5
 543 652 543 652 589.5 606.5 c 128,-1,6
 636 561 636 561 661.5 496 c 128,-1,7
 687 431 687 431 687 350 c 256,8,9
 687 269 687 269 661.5 204 c 128,-1,10
 636 139 636 139 590.5 94 c 128,-1,11
 545 49 545 49 481 24.5 c 128,-1,12
 417 0 417 0 339 0 c 2,0,-1
339 614 m 2,13,-1
 175 614 l 1,14,-1
 175 86 l 1,15,-1
 339 86 l 2,16,17
 397 86 397 86 442.5 104.5 c 128,-1,18
 488 123 488 123 519.5 157.5 c 128,-1,19
 551 192 551 192 567 241 c 128,-1,20
 583 290 583 290 583 350 c 256,21,22
 583 410 583 410 567 459 c 128,-1,23
 551 508 551 508 519.5 542.5 c 128,-1,24
 488 577 488 577 442.5 595.5 c 128,-1,25
 397 614 397 614 339 614 c 2,13,-1
EndSplineSet
EndChar

StartChar: E
Encoding: 69 69 38
Width: 554
Flags: W
LayerCount: 2
Back
Fore
SplineSet
516 0 m 1,0,-1
 80 0 l 1,1,-1
 80 700 l 1,2,-1
 507 700 l 1,3,-1
 507 614 l 1,4,-1
 175 614 l 1,5,-1
 175 409 l 1,6,-1
 439 409 l 1,7,-1
 439 323 l 1,8,-1
 175 323 l 1,9,-1
 175 86 l 1,10,-1
 516 86 l 1,11,-1
 516 0 l 1,0,-1
EndSplineSet
EndChar

StartChar: F
Encoding: 70 70 39
Width: 523
Flags: W
LayerCount: 2
Back
Fore
SplineSet
507 614 m 1,0,-1
 175 614 l 1,1,-1
 175 409 l 1,2,-1
 431 409 l 1,3,-1
 431 323 l 1,4,-1
 175 323 l 1,5,-1
 175 0 l 1,6,-1
 80 0 l 1,7,-1
 80 700 l 1,8,-1
 507 700 l 1,9,-1
 507 614 l 1,0,-1
EndSplineSet
EndChar

StartChar: G
Encoding: 71 71 40
Width: 672
Flags: W
LayerCount: 2
Back
Fore
SplineSet
382 -14 m 0,0,1
 308 -14 308 -14 245 12.5 c 128,-1,2
 182 39 182 39 136 87 c 128,-1,3
 90 135 90 135 64.5 202 c 128,-1,4
 39 269 39 269 39 351 c 256,5,6
 39 433 39 433 65 500 c 128,-1,7
 91 567 91 567 137.5 614.5 c 128,-1,8
 184 662 184 662 248.5 688 c 128,-1,9
 313 714 313 714 390 714 c 0,10,11
 508 714 508 714 598 674 c 1,12,-1
 589 591 l 1,13,14
 484 628 484 628 393 628 c 0,15,16
 332 628 332 628 285 607.5 c 128,-1,17
 238 587 238 587 206.5 550.5 c 128,-1,18
 175 514 175 514 159 462.5 c 128,-1,19
 143 411 143 411 143 350 c 0,20,21
 143 287 143 287 160 235.5 c 128,-1,22
 177 184 177 184 210.5 148 c 128,-1,23
 244 112 244 112 293.5 92 c 128,-1,24
 343 72 343 72 409 72 c 0,25,26
 481 72 481 72 526 91 c 1,27,-1
 526 265 l 1,28,-1
 416 265 l 1,29,-1
 416 351 l 1,30,-1
 621 351 l 1,31,-1
 621 39 l 1,32,33
 601 28 601 28 571.5 18.5 c 128,-1,34
 542 9 542 9 509.5 1.5 c 128,-1,35
 477 -6 477 -6 443.5 -10 c 128,-1,36
 410 -14 410 -14 382 -14 c 0,0,1
EndSplineSet
EndChar

StartChar: H
Encoding: 72 72 41
Width: 746
Flags: W
LayerCount: 2
Back
Fore
SplineSet
666 0 m 1,0,-1
 571 0 l 1,1,-1
 571 321 l 1,2,-1
 175 321 l 1,3,-1
 175 0 l 1,4,-1
 80 0 l 1,5,-1
 80 700 l 1,6,-1
 175 700 l 1,7,-1
 175 411 l 1,8,-1
 571 411 l 1,9,-1
 571 700 l 1,10,-1
 666 700 l 1,11,-1
 666 0 l 1,0,-1
EndSplineSet
EndChar

StartChar: I
Encoding: 73 73 42
Width: 255
Flags: W
LayerCount: 2
Back
Fore
SplineSet
175 0 m 1,0,-1
 80 0 l 1,1,-1
 80 700 l 1,2,-1
 175 700 l 1,3,-1
 175 0 l 1,0,-1
EndSplineSet
EndChar

StartChar: J
Encoding: 74 74 43
Width: 255
Flags: W
LayerCount: 2
Back
Fore
SplineSet
9 -172 m 2,0,-1
 -7 -172 l 1,1,-1
 -17 -116 l 1,2,-1
 -13 -116 l 2,3,4
 14 -116 14 -116 32 -110 c 128,-1,5
 50 -104 50 -104 60.5 -90.5 c 128,-1,6
 71 -77 71 -77 75.5 -55.5 c 128,-1,7
 80 -34 80 -34 80 -3 c 2,8,-1
 80 700 l 1,9,-1
 175 700 l 1,10,-1
 175 -32 l 2,11,12
 175 -172 175 -172 9 -172 c 2,0,-1
EndSplineSet
EndChar

StartChar: K
Encoding: 75 75 44
Width: 577
Flags: W
LayerCount: 2
Back
Fore
SplineSet
573 0 m 1,0,-1
 473 0 l 1,1,-1
 214 371 l 1,2,-1
 473 700 l 1,3,-1
 573 700 l 1,4,-1
 314 371 l 1,5,-1
 573 0 l 1,0,-1
175 0 m 1,6,-1
 80 0 l 1,7,-1
 80 700 l 1,8,-1
 175 700 l 1,9,-1
 175 0 l 1,6,-1
EndSplineSet
EndChar

StartChar: L
Encoding: 76 76 45
Width: 501
Flags: W
LayerCount: 2
Back
Fore
SplineSet
496 0 m 1,0,-1
 80 0 l 1,1,-1
 80 700 l 1,2,-1
 175 700 l 1,3,-1
 175 86 l 1,4,-1
 496 86 l 1,5,-1
 496 0 l 1,0,-1
EndSplineSet
EndChar

StartChar: M
Encoding: 77 77 46
Width: 812
Flags: W
LayerCount: 2
Back
Fore
SplineSet
764 0 m 1,0,-1
 664 0 l 1,1,-1
 598 529 l 1,2,-1
 408 166 l 1,3,-1
 214 529 l 1,4,-1
 148 0 l 1,5,-1
 48 0 l 1,6,-1
 142 700 l 1,7,-1
 223 700 l 1,8,-1
 407 353 l 1,9,-1
 589 700 l 1,10,-1
 671 700 l 1,11,-1
 764 0 l 1,0,-1
EndSplineSet
EndChar

StartChar: N
Encoding: 78 78 47
Width: 704
Flags: W
LayerCount: 2
Back
Fore
SplineSet
624 0 m 1,0,-1
 543 0 l 1,1,-1
 175 553 l 1,2,-1
 175 0 l 1,3,-1
 80 0 l 1,4,-1
 80 700 l 1,5,-1
 183 700 l 1,6,-1
 528 176 l 1,7,-1
 528 700 l 1,8,-1
 624 700 l 1,9,-1
 624 0 l 1,0,-1
EndSplineSet
EndChar

StartChar: O
Encoding: 79 79 48
Width: 768
Flags: W
LayerCount: 2
Back
Fore
SplineSet
632 85 m 0,0,1
 536 -14 536 -14 384 -14 c 0,2,3
 308 -14 308 -14 244.5 12 c 128,-1,4
 181 38 181 38 135.5 85.5 c 128,-1,5
 90 133 90 133 64.5 200 c 128,-1,6
 39 267 39 267 39 350 c 256,7,8
 39 433 39 433 65 500 c 128,-1,9
 91 567 91 567 136.5 614.5 c 128,-1,10
 182 662 182 662 245.5 688 c 128,-1,11
 309 714 309 714 384 714 c 256,12,13
 459 714 459 714 522.5 688 c 128,-1,14
 586 662 586 662 632 614 c 128,-1,15
 678 566 678 566 703.5 499 c 128,-1,16
 729 432 729 432 729 350 c 0,17,18
 729 185 729 185 632 85 c 0,0,1
562 550 m 0,19,20
 500 628 500 628 384 628 c 0,21,22
 326 628 326 628 281 607 c 128,-1,23
 236 586 236 586 205.5 549 c 128,-1,24
 175 512 175 512 159 461 c 128,-1,25
 143 410 143 410 143 350 c 256,26,27
 143 290 143 290 159 239 c 128,-1,28
 175 188 175 188 205.5 151 c 128,-1,29
 236 114 236 114 281 93 c 128,-1,30
 326 72 326 72 384 72 c 256,31,32
 442 72 442 72 487 93 c 128,-1,33
 532 114 532 114 563 151.5 c 128,-1,34
 594 189 594 189 609.5 239.5 c 128,-1,35
 625 290 625 290 625 350 c 0,36,37
 625 472 625 472 562 550 c 0,19,20
EndSplineSet
EndChar

StartChar: P
Encoding: 80 80 49
Width: 572
Flags: W
LayerCount: 2
Back
Fore
SplineSet
180 245 m 1,0,-1
 180 0 l 1,1,-1
 80 0 l 1,2,-1
 80 700 l 1,3,-1
 304 700 l 2,4,5
 353 700 353 700 397 692.5 c 128,-1,6
 441 685 441 685 474.5 661.5 c 128,-1,7
 508 638 508 638 528 595 c 128,-1,8
 548 552 548 552 548 482 c 0,9,10
 548 414 548 414 527.5 368.5 c 128,-1,11
 507 323 507 323 475 295.5 c 128,-1,12
 443 268 443 268 405 256.5 c 128,-1,13
 367 245 367 245 332 245 c 2,14,-1
 180 245 l 1,0,-1
180 615 m 1,15,-1
 180 330 l 1,16,-1
 314 330 l 2,17,18
 387 330 387 330 418 368.5 c 128,-1,19
 449 407 449 407 449 478 c 0,20,21
 449 515 449 515 441 541.5 c 128,-1,22
 433 568 433 568 414 584 c 128,-1,23
 395 600 395 600 363.5 607.5 c 128,-1,24
 332 615 332 615 286 615 c 2,25,-1
 180 615 l 1,15,-1
EndSplineSet
EndChar

StartChar: Q
Encoding: 81 81 50
Width: 768
Flags: W
LayerCount: 2
Back
Fore
SplineSet
715 62 m 1,0,-1
 665 3 l 1,1,-1
 600 57 l 1,2,3
 500 -14 500 -14 384 -14 c 0,4,5
 308 -14 308 -14 244.5 12 c 128,-1,6
 181 38 181 38 135.5 85.5 c 128,-1,7
 90 133 90 133 64.5 200 c 128,-1,8
 39 267 39 267 39 350 c 256,9,10
 39 433 39 433 65 500 c 128,-1,11
 91 567 91 567 136.5 614.5 c 128,-1,12
 182 662 182 662 245.5 688 c 128,-1,13
 309 714 309 714 384 714 c 256,14,15
 459 714 459 714 522.5 688 c 128,-1,16
 586 662 586 662 632 614 c 128,-1,17
 678 566 678 566 703.5 499 c 128,-1,18
 729 432 729 432 729 350 c 0,19,20
 729 221 729 221 655 111 c 1,21,-1
 715 62 l 1,0,-1
384 628 m 256,22,23
 325 628 325 628 280.5 607.5 c 128,-1,24
 236 587 236 587 205 550 c 128,-1,25
 174 513 174 513 158.5 462 c 128,-1,26
 143 411 143 411 143 350 c 0,27,28
 143 290 143 290 158.5 239 c 128,-1,29
 174 188 174 188 204 151 c 128,-1,30
 234 114 234 114 279 93 c 128,-1,31
 324 72 324 72 384 72 c 0,32,33
 480 72 480 72 535 112 c 1,34,-1
 432 196 l 1,35,-1
 482 257 l 1,36,-1
 587 164 l 1,37,38
 635 239 635 239 635 350 c 0,39,40
 635 410 635 410 618 460.5 c 128,-1,41
 601 511 601 511 568.5 548.5 c 128,-1,42
 536 586 536 586 489.5 607 c 128,-1,43
 443 628 443 628 384 628 c 256,22,23
EndSplineSet
EndChar

StartChar: R
Encoding: 82 82 51
Width: 603
Flags: W
LayerCount: 2
Back
Fore
SplineSet
584 0 m 1,0,-1
 482 0 l 1,1,-1
 327 273 l 1,2,-1
 180 273 l 1,3,-1
 180 0 l 1,4,-1
 80 0 l 1,5,-1
 80 700 l 1,6,-1
 307 700 l 2,7,8
 365 700 365 700 410.5 689 c 128,-1,9
 456 678 456 678 486.5 653.5 c 128,-1,10
 517 629 517 629 533 590 c 128,-1,11
 549 551 549 551 549 495 c 0,12,13
 549 429 549 429 515.5 377.5 c 128,-1,14
 482 326 482 326 421 298 c 1,15,-1
 584 0 l 1,0,-1
306 623 m 2,16,-1
 180 623 l 1,17,-1
 180 365 l 1,18,-1
 331 365 l 2,19,20
 355 365 355 365 376.5 373 c 128,-1,21
 398 381 398 381 414.5 397 c 128,-1,22
 431 413 431 413 440.5 437.5 c 128,-1,23
 450 462 450 462 450 495 c 0,24,25
 450 556 450 556 414 589.5 c 128,-1,26
 378 623 378 623 306 623 c 2,16,-1
EndSplineSet
EndChar

StartChar: S
Encoding: 83 83 52
Width: 584
Flags: W
LayerCount: 2
Back
Fore
SplineSet
280 -14 m 0,0,1
 135 -14 135 -14 51 31 c 1,2,-1
 64 142 l 1,3,4
 158 72 158 72 282 72 c 0,5,6
 318 72 318 72 348.5 78.5 c 128,-1,7
 379 85 379 85 401.5 98.5 c 128,-1,8
 424 112 424 112 436.5 132.5 c 128,-1,9
 449 153 449 153 449 180 c 0,10,11
 449 208 449 208 436 228.5 c 128,-1,12
 423 249 423 249 399.5 265 c 128,-1,13
 376 281 376 281 342.5 294 c 128,-1,14
 309 307 309 307 268 321 c 2,15,-1
 198 344 l 2,16,17
 113 372 113 372 76.5 413.5 c 128,-1,18
 40 455 40 455 40 512 c 0,19,20
 40 542 40 542 52 577.5 c 128,-1,21
 64 613 64 613 92.5 643.5 c 128,-1,22
 121 674 121 674 169.5 694 c 128,-1,23
 218 714 218 714 292 714 c 0,24,25
 322 714 322 714 354 710 c 128,-1,26
 386 706 386 706 415.5 699.5 c 128,-1,27
 445 693 445 693 470 684 c 128,-1,28
 495 675 495 675 512 666 c 1,29,-1
 502 565 l 1,30,31
 376 628 376 628 301 628 c 0,32,33
 272 628 272 628 243.5 622 c 128,-1,34
 215 616 215 616 193 603 c 128,-1,35
 171 590 171 590 157.5 571 c 128,-1,36
 144 552 144 552 144 525 c 0,37,38
 144 481 144 481 181.5 456.5 c 128,-1,39
 219 432 219 432 295 408 c 0,40,41
 316 401 316 401 325.5 399 c 128,-1,42
 335 397 335 397 344 394.5 c 128,-1,43
 353 392 353 392 368.5 386.5 c 128,-1,44
 384 381 384 381 418 366 c 2,45,-1
 452 348 l 2,46,47
 465 341 465 341 473.5 336 c 128,-1,48
 482 331 482 331 487 326 c 2,49,-1
 512 300 l 2,50,51
 535 276 535 276 542.5 248 c 128,-1,52
 550 220 550 220 553 181 c 0,53,54
 553 151 553 151 544 117.5 c 128,-1,55
 535 84 535 84 506 55 c 128,-1,56
 477 26 477 26 423.5 6.5 c 128,-1,57
 370 -13 370 -13 280 -14 c 0,0,1
EndSplineSet
EndChar

StartChar: T
Encoding: 84 84 53
Width: 533
Flags: W
LayerCount: 2
Back
Fore
SplineSet
518 614 m 1,0,-1
 314 614 l 1,1,-1
 314 0 l 1,2,-1
 219 0 l 1,3,-1
 219 614 l 1,4,-1
 15 614 l 1,5,-1
 15 700 l 1,6,-1
 518 700 l 1,7,-1
 518 614 l 1,0,-1
EndSplineSet
EndChar

StartChar: U
Encoding: 85 85 54
Width: 724
Flags: W
LayerCount: 2
Back
Fore
SplineSet
72 297 m 2,0,-1
 72 700 l 1,1,-1
 167 700 l 1,2,-1
 167 343 l 2,3,4
 167 292 167 292 174 243.5 c 128,-1,5
 181 195 181 195 201.5 156.5 c 128,-1,6
 222 118 222 118 260.5 95 c 128,-1,7
 299 72 299 72 362 72 c 256,8,9
 425 72 425 72 463.5 96 c 128,-1,10
 502 120 502 120 523 158 c 128,-1,11
 544 196 544 196 550.5 244.5 c 128,-1,12
 557 293 557 293 557 343 c 2,13,-1
 557 700 l 1,14,-1
 652 700 l 1,15,-1
 652 297 l 2,16,17
 652 149 652 149 579.5 67.5 c 128,-1,18
 507 -14 507 -14 362 -14 c 256,19,20
 217 -14 217 -14 144.5 67.5 c 128,-1,21
 72 149 72 149 72 297 c 2,0,-1
EndSplineSet
EndChar

StartChar: V
Encoding: 86 86 55
Width: 644
Flags: W
LayerCount: 2
Back
Fore
SplineSet
640 700 m 1,0,-1
 372 0 l 1,1,-1
 272 0 l 1,2,-1
 4 700 l 1,3,-1
 104 700 l 1,4,-1
 323 109 l 1,5,-1
 540 700 l 1,6,-1
 640 700 l 1,0,-1
EndSplineSet
EndChar

StartChar: W
Encoding: 87 87 56
Width: 971
Flags: W
LayerCount: 2
Back
Fore
SplineSet
961 700 m 1,0,-1
 756 0 l 1,1,-1
 651 0 l 1,2,-1
 486 574 l 1,3,-1
 315 0 l 1,4,-1
 210 0 l 1,5,-1
 14 700 l 1,6,-1
 114 700 l 1,7,-1
 269 108 l 1,8,-1
 444 686 l 1,9,-1
 530 686 l 1,10,-1
 707 109 l 1,11,-1
 861 700 l 1,12,-1
 961 700 l 1,0,-1
EndSplineSet
EndChar

StartChar: X
Encoding: 88 88 57
Width: 599
Flags: W
LayerCount: 2
Back
Fore
SplineSet
594 0 m 1,0,-1
 494 0 l 1,1,-1
 292 286 l 1,2,-1
 109 0 l 1,3,-1
 9 0 l 1,4,-1
 244 349 l 1,5,-1
 9 700 l 1,6,-1
 119 700 l 1,7,-1
 299 427 l 1,8,-1
 493 700 l 1,9,-1
 593 700 l 1,10,-1
 343 361 l 1,11,-1
 594 0 l 1,0,-1
EndSplineSet
EndChar

StartChar: Y
Encoding: 89 89 58
Width: 567
Flags: W
LayerCount: 2
Back
Fore
SplineSet
569 700 m 1,0,-1
 333 323 l 1,1,-1
 333 0 l 1,2,-1
 234 0 l 1,3,-1
 234 323 l 1,4,-1
 -3 700 l 1,5,-1
 97 700 l 1,6,-1
 283 409 l 1,7,-1
 469 700 l 1,8,-1
 569 700 l 1,0,-1
EndSplineSet
EndChar

StartChar: Z
Encoding: 90 90 59
Width: 549
Flags: W
LayerCount: 2
Back
Fore
SplineSet
542 700 m 1,0,-1
 165 86 l 1,1,-1
 497 86 l 1,2,-1
 497 0 l 1,3,-1
 9 0 l 1,4,-1
 385 614 l 1,5,-1
 54 614 l 1,6,-1
 54 700 l 1,7,-1
 542 700 l 1,0,-1
EndSplineSet
EndChar

StartChar: bracketleft
Encoding: 91 91 60
Width: 327
Flags: W
LayerCount: 2
Back
Fore
SplineSet
327 -135 m 1,0,-1
 70 -135 l 1,1,-1
 70 750 l 1,2,-1
 327 750 l 1,3,-1
 327 682 l 1,4,-1
 153 682 l 1,5,-1
 153 -67 l 1,6,-1
 327 -67 l 1,7,-1
 327 -135 l 1,0,-1
EndSplineSet
EndChar

StartChar: backslash
Encoding: 92 92 61
Width: 525
Flags: W
LayerCount: 2
Back
Fore
SplineSet
506 -85 m 1,0,-1
 413 -85 l 1,1,-1
 35 700 l 1,2,-1
 128 700 l 1,3,-1
 506 -85 l 1,0,-1
EndSplineSet
EndChar

StartChar: bracketright
Encoding: 93 93 62
Width: 327
Flags: W
LayerCount: 2
Back
Fore
SplineSet
0 750 m 1,0,-1
 257 750 l 1,1,-1
 257 -135 l 1,2,-1
 0 -135 l 1,3,-1
 0 -67 l 1,4,-1
 174 -67 l 1,5,-1
 174 682 l 1,6,-1
 0 682 l 1,7,-1
 0 750 l 1,0,-1
EndSplineSet
EndChar

StartChar: asciicircum
Encoding: 94 94 63
Width: 511
Flags: W
LayerCount: 2
Back
Fore
SplineSet
461 437 m 1,0,-1
 255 653 l 1,1,-1
 49 437 l 1,2,-1
 49 543 l 1,3,-1
 255 759 l 1,4,-1
 461 543 l 1,5,-1
 461 437 l 1,0,-1
EndSplineSet
EndChar

StartChar: underscore
Encoding: 95 95 64
Width: 566
Flags: W
LayerCount: 2
Back
Fore
SplineSet
563 -122 m 1,0,-1
 3 -122 l 1,1,-1
 3 -36 l 1,2,-1
 563 -36 l 1,3,-1
 563 -122 l 1,0,-1
EndSplineSet
EndChar

StartChar: grave
Encoding: 96 96 65
Width: 303
Flags: W
LayerCount: 2
Back
Fore
SplineSet
245 596 m 1,0,-1
 58 660 l 1,1,-1
 58 732 l 1,2,-1
 245 637 l 1,3,-1
 245 596 l 1,0,-1
EndSplineSet
EndChar

StartChar: a
Encoding: 97 97 66
Width: 480
Flags: W
LayerCount: 2
Back
Fore
SplineSet
472 62 m 1,0,-1
 458 -10 l 1,1,-1
 451 -10 l 2,2,3
 421 -10 421 -10 401 -6.5 c 128,-1,4
 381 -3 381 -3 367 5.5 c 128,-1,5
 353 14 353 14 343.5 28 c 128,-1,6
 334 42 334 42 325 62 c 1,7,8
 263 -10 263 -10 175 -10 c 0,9,10
 106 -10 106 -10 65 29.5 c 128,-1,11
 24 69 24 69 24 132 c 0,12,13
 24 183 24 183 51.5 216 c 128,-1,14
 79 249 79 249 121.5 269 c 128,-1,15
 164 289 164 289 216 297.5 c 128,-1,16
 268 306 268 306 317 307 c 1,17,18
 317 373 317 373 291.5 396.5 c 128,-1,19
 266 420 266 420 210 420 c 0,20,21
 146 420 146 420 81 376 c 1,22,-1
 68 449 l 1,23,24
 134 500 134 500 234 500 c 0,25,26
 281 500 281 500 314 487.5 c 128,-1,27
 347 475 347 475 367.5 447.5 c 128,-1,28
 388 420 388 420 397.5 375 c 128,-1,29
 407 330 407 330 407 265 c 2,30,-1
 407 165 l 2,31,32
 407 107 407 107 417 84.5 c 128,-1,33
 427 62 427 62 463 62 c 2,34,-1
 472 62 l 1,0,-1
317 128 m 1,35,-1
 317 245 l 1,36,37
 209 241 209 241 162.5 216.5 c 128,-1,38
 116 192 116 192 116 137 c 0,39,40
 116 62 116 62 192 62 c 0,41,42
 228 62 228 62 261.5 80 c 128,-1,43
 295 98 295 98 317 128 c 1,35,-1
EndSplineSet
Substitution2: "'smcp' Lowercase to Small Capitals in Latin lookup 1 subtable" A.sc
Substitution2: "'aalt' Access All Alternates in Latin lookup 0 subtable" A.sc
EndChar

StartChar: b
Encoding: 98 98 67
Width: 555
Flags: W
LayerCount: 2
Back
Fore
SplineSet
301 -10 m 0,0,1
 283 -10 283 -10 262 -5 c 128,-1,2
 241 0 241 0 220 9 c 128,-1,3
 199 18 199 18 180.5 31.5 c 128,-1,4
 162 45 162 45 150 62 c 1,5,-1
 140 0 l 1,6,-1
 60 0 l 1,7,-1
 60 750 l 1,8,-1
 150 750 l 1,9,-1
 150 437 l 1,10,11
 202 500 202 500 302 500 c 0,12,13
 351 500 351 500 392 479.5 c 128,-1,14
 433 459 433 459 462 424 c 128,-1,15
 491 389 491 389 507 342.5 c 128,-1,16
 523 296 523 296 523 245 c 0,17,18
 523 192 523 192 506 145.5 c 128,-1,19
 489 99 489 99 459 64.5 c 128,-1,20
 429 30 429 30 388.5 10 c 128,-1,21
 348 -10 348 -10 301 -10 c 0,0,1
291 420 m 0,22,23
 262 420 262 420 235.5 408.5 c 128,-1,24
 209 397 209 397 189 374.5 c 128,-1,25
 169 352 169 352 157 319.5 c 128,-1,26
 145 287 145 287 145 245 c 0,27,28
 145 202 145 202 156.5 169 c 128,-1,29
 168 136 168 136 188 114 c 128,-1,30
 208 92 208 92 234.5 81 c 128,-1,31
 261 70 261 70 291 70 c 0,32,33
 323 70 323 70 349 84 c 128,-1,34
 375 98 375 98 393 122 c 128,-1,35
 411 146 411 146 421 178 c 128,-1,36
 431 210 431 210 431 245 c 0,37,38
 431 282 431 282 421 314 c 128,-1,39
 411 346 411 346 392.5 369.5 c 128,-1,40
 374 393 374 393 348 406.5 c 128,-1,41
 322 420 322 420 291 420 c 0,22,23
EndSplineSet
Substitution2: "'smcp' Lowercase to Small Capitals in Latin lookup 1 subtable" B.sc
Substitution2: "'aalt' Access All Alternates in Latin lookup 0 subtable" B.sc
EndChar

StartChar: c
Encoding: 99 99 68
Width: 454
Flags: W
LayerCount: 2
Back
Fore
SplineSet
277 -10 m 0,0,1
 218 -10 218 -10 173 9.5 c 128,-1,2
 128 29 128 29 96.5 63.5 c 128,-1,3
 65 98 65 98 49 144.5 c 128,-1,4
 33 191 33 191 33 246 c 0,5,6
 33 302 33 302 49 348.5 c 128,-1,7
 65 395 65 395 95.5 429 c 128,-1,8
 126 463 126 463 171.5 481.5 c 128,-1,9
 217 500 217 500 276 500 c 0,10,11
 374 500 374 500 427 471 c 1,12,-1
 413 390 l 1,13,14
 351 420 351 420 286 420 c 0,15,16
 205 420 205 420 165 375 c 128,-1,17
 125 330 125 330 125 246 c 256,18,19
 125 162 125 162 165 115.5 c 128,-1,20
 205 69 205 69 286 69 c 0,21,22
 352 69 352 69 414 99 c 1,23,-1
 426 27 l 1,24,25
 371 -10 371 -10 277 -10 c 0,0,1
EndSplineSet
Substitution2: "'smcp' Lowercase to Small Capitals in Latin lookup 1 subtable" C.sc
Substitution2: "'aalt' Access All Alternates in Latin lookup 0 subtable" C.sc
EndChar

StartChar: d
Encoding: 100 100 69
Width: 555
Flags: W
LayerCount: 2
Back
Fore
SplineSet
495 0 m 1,0,-1
 415 0 l 1,1,-1
 405 62 l 1,2,3
 393 45 393 45 374.5 32 c 128,-1,4
 356 19 356 19 335.5 9.5 c 128,-1,5
 315 0 315 0 294 -5 c 128,-1,6
 273 -10 273 -10 255 -10 c 0,7,8
 208 -10 208 -10 167 10 c 128,-1,9
 126 30 126 30 96 64.5 c 128,-1,10
 66 99 66 99 49 145.5 c 128,-1,11
 32 192 32 192 32 245 c 0,12,13
 32 296 32 296 48 342.5 c 128,-1,14
 64 389 64 389 93.5 424 c 128,-1,15
 123 459 123 459 164 479.5 c 128,-1,16
 205 500 205 500 255 500 c 0,17,18
 354 500 354 500 405 438 c 1,19,-1
 405 750 l 1,20,-1
 495 750 l 1,21,-1
 495 0 l 1,0,-1
262 420 m 0,22,23
 230 420 230 420 204.5 407 c 128,-1,24
 179 394 179 394 161 371 c 128,-1,25
 143 348 143 348 133.5 316 c 128,-1,26
 124 284 124 284 124 245 c 0,27,28
 124 209 124 209 133.5 177 c 128,-1,29
 143 145 143 145 160.5 121.5 c 128,-1,30
 178 98 178 98 203.5 84 c 128,-1,31
 229 70 229 70 262 70 c 0,32,33
 292 70 292 70 319.5 80.5 c 128,-1,34
 347 91 347 91 368.5 112.5 c 128,-1,35
 390 134 390 134 402.5 166.5 c 128,-1,36
 415 199 415 199 415 242 c 0,37,38
 415 284 415 284 402 317 c 128,-1,39
 389 350 389 350 367.5 373 c 128,-1,40
 346 396 346 396 318.5 408 c 128,-1,41
 291 420 291 420 262 420 c 0,22,23
EndSplineSet
Substitution2: "'smcp' Lowercase to Small Capitals in Latin lookup 1 subtable" D.sc
Substitution2: "'aalt' Access All Alternates in Latin lookup 0 subtable" D.sc
EndChar

StartChar: e
Encoding: 101 101 70
Width: 512
Flags: W
LayerCount: 2
Back
Fore
SplineSet
478 245 m 1,0,-1
 123 245 l 1,1,2
 139 70 139 70 307 70 c 0,3,4
 382 70 382 70 448 99 c 1,5,-1
 460 28 l 1,6,7
 373 -10 373 -10 296 -10 c 0,8,9
 234 -10 234 -10 184.5 10 c 128,-1,10
 135 30 135 30 101 64.5 c 128,-1,11
 67 99 67 99 49 146.5 c 128,-1,12
 31 194 31 194 31 249 c 0,13,14
 31 302 31 302 48 348 c 128,-1,15
 65 394 65 394 96 427.5 c 128,-1,16
 127 461 127 461 171.5 480.5 c 128,-1,17
 216 500 216 500 271 500 c 0,18,19
 318 500 318 500 357 486 c 128,-1,20
 396 472 396 472 423.5 445 c 128,-1,21
 451 418 451 418 466.5 379.5 c 128,-1,22
 482 341 482 341 482 293 c 0,23,24
 482 265 482 265 478 245 c 1,0,-1
269 420 m 0,25,26
 160 420 160 420 131 307 c 1,27,-1
 389 307 l 1,28,29
 389 361 389 361 359 390.5 c 128,-1,30
 329 420 329 420 269 420 c 0,25,26
EndSplineSet
Substitution2: "'smcp' Lowercase to Small Capitals in Latin lookup 1 subtable" E.sc
Substitution2: "'aalt' Access All Alternates in Latin lookup 0 subtable" E.sc
EndChar

StartChar: f
Encoding: 102 102 71
Width: 331
Flags: W
LayerCount: 2
Back
Fore
SplineSet
317 420 m 1,0,-1
 185 420 l 1,1,-1
 185 0 l 1,2,-1
 95 0 l 1,3,-1
 95 420 l 1,4,-1
 10 420 l 1,5,-1
 22 490 l 1,6,-1
 95 490 l 1,7,-1
 95 614 l 2,8,9
 95 675 95 675 124.5 712.5 c 128,-1,10
 154 750 154 750 209 750 c 0,11,12
 273 750 273 750 311 737 c 1,13,-1
 297 661 l 1,14,15
 268 670 268 670 237 670 c 0,16,17
 220 670 220 670 210 666.5 c 128,-1,18
 200 663 200 663 194.5 650.5 c 128,-1,19
 189 638 189 638 187 614 c 128,-1,20
 185 590 185 590 185 550 c 2,21,-1
 185 490 l 1,22,-1
 317 490 l 1,23,-1
 317 420 l 1,0,-1
EndSplineSet
Substitution2: "'smcp' Lowercase to Small Capitals in Latin lookup 1 subtable" F.sc
Substitution2: "'aalt' Access All Alternates in Latin lookup 0 subtable" F.sc
EndChar

StartChar: g
Encoding: 103 103 72
Width: 498
Flags: W
LayerCount: 2
Back
Fore
SplineSet
255 -250 m 0,0,1
 197 -250 197 -250 154 -238 c 128,-1,2
 111 -226 111 -226 82.5 -205.5 c 128,-1,3
 54 -185 54 -185 40 -158 c 128,-1,4
 26 -131 26 -131 26 -102 c 0,5,6
 26 -24 26 -24 113 8 c 1,7,8
 63 32 63 32 63 70 c 0,9,10
 63 87 63 87 76.5 107.5 c 128,-1,11
 90 128 90 128 121 143 c 1,12,13
 36 204 36 204 36 303 c 0,14,15
 36 345 36 345 49.5 381 c 128,-1,16
 63 417 63 417 88.5 443.5 c 128,-1,17
 114 470 114 470 151.5 485 c 128,-1,18
 189 500 189 500 236 500 c 0,19,20
 302 500 302 500 361 464 c 1,21,22
 413 492 413 492 480 492 c 2,23,-1
 488 492 l 1,24,-1
 477 432 l 1,25,-1
 454 432 l 2,26,27
 423 432 423 432 396 425 c 1,28,29
 441 371 441 371 441 308 c 0,30,31
 441 269 441 269 427 234 c 128,-1,32
 413 199 413 199 387.5 172 c 128,-1,33
 362 145 362 145 325.5 129 c 128,-1,34
 289 113 289 113 243 113 c 0,35,36
 204 113 204 113 173 122 c 1,37,38
 149 108 149 108 149 92 c 0,39,40
 149 83 149 83 154.5 76.5 c 128,-1,41
 160 70 160 70 176.5 65 c 128,-1,42
 193 60 193 60 222.5 54.5 c 128,-1,43
 252 49 252 49 301 40 c 0,44,45
 334 34 334 34 369 25 c 128,-1,46
 404 16 404 16 432.5 1 c 128,-1,47
 461 -14 461 -14 480 -37.5 c 128,-1,48
 499 -61 499 -61 501 -96 c 0,49,50
 501 -127 501 -127 484 -155 c 128,-1,51
 467 -183 467 -183 435.5 -204 c 128,-1,52
 404 -225 404 -225 358 -237.5 c 128,-1,53
 312 -250 312 -250 255 -250 c 0,0,1
237 428 m 0,54,55
 182 428 182 428 152 394.5 c 128,-1,56
 122 361 122 361 122 306 c 0,57,58
 122 249 122 249 154.5 215.5 c 128,-1,59
 187 182 187 182 239 182 c 0,60,61
 293 182 293 182 324 218 c 128,-1,62
 355 254 355 254 355 309 c 0,63,64
 355 366 355 366 323 397 c 128,-1,65
 291 428 291 428 237 428 c 0,54,55
279 -26 m 0,66,67
 262 -26 262 -26 190 -14 c 1,68,69
 156 -24 156 -24 134 -49 c 128,-1,70
 112 -74 112 -74 112 -100 c 0,71,72
 112 -135 112 -135 151 -157.5 c 128,-1,73
 190 -180 190 -180 259 -180 c 0,74,75
 331 -180 331 -180 370.5 -156.5 c 128,-1,76
 410 -133 410 -133 410 -102 c 0,77,78
 410 -50 410 -50 279 -26 c 0,66,67
EndSplineSet
Substitution2: "'smcp' Lowercase to Small Capitals in Latin lookup 1 subtable" G.sc
Substitution2: "'aalt' Access All Alternates in Latin lookup 0 subtable" G.sc
EndChar

StartChar: h
Encoding: 104 104 73
Width: 542
Flags: W
LayerCount: 2
Back
Fore
SplineSet
486 0 m 1,0,-1
 396 0 l 1,1,-1
 396 262 l 2,2,3
 396 349 396 349 370 384.5 c 128,-1,4
 344 420 344 420 279 420 c 0,5,6
 191 420 191 420 151 356 c 1,7,-1
 151 0 l 1,8,-1
 60 0 l 1,9,-1
 60 750 l 1,10,-1
 151 750 l 1,11,-1
 151 437 l 1,12,13
 200 500 200 500 293 500 c 0,14,15
 486 500 486 500 486 262 c 2,16,-1
 486 0 l 1,0,-1
EndSplineSet
Substitution2: "'smcp' Lowercase to Small Capitals in Latin lookup 1 subtable" H.sc
Substitution2: "'aalt' Access All Alternates in Latin lookup 0 subtable" H.sc
EndChar

StartChar: i
Encoding: 105 105 74
Width: 212
Flags: W
LayerCount: 2
Back
Fore
SplineSet
151 600 m 1,0,-1
 61 600 l 1,1,-1
 61 700 l 1,2,-1
 151 700 l 1,3,-1
 151 600 l 1,0,-1
151 0 m 1,4,-1
 61 0 l 1,5,-1
 61 490 l 1,6,-1
 151 490 l 1,7,-1
 151 0 l 1,4,-1
EndSplineSet
Substitution2: "'smcp' Lowercase to Small Capitals in Latin lookup 1 subtable" I.sc
Substitution2: "'aalt' Access All Alternates in Latin lookup 0 subtable" I.sc
EndChar

StartChar: j
Encoding: 106 106 75
Width: 212
Flags: W
LayerCount: 2
Back
Fore
SplineSet
28 -237 m 2,0,-1
 -2 -242 l 1,1,-1
 -12 -173 l 1,2,3
 10 -171 10 -171 24 -166 c 128,-1,4
 38 -161 38 -161 46 -150.5 c 128,-1,5
 54 -140 54 -140 57.5 -121.5 c 128,-1,6
 61 -103 61 -103 61 -73 c 2,7,-1
 61 490 l 1,8,-1
 151 490 l 1,9,-1
 151 -107 l 2,10,11
 151 -139 151 -139 141 -161.5 c 128,-1,12
 131 -184 131 -184 114.5 -199.5 c 128,-1,13
 98 -215 98 -215 75.5 -224 c 128,-1,14
 53 -233 53 -233 28 -237 c 2,0,-1
151 600 m 1,15,-1
 61 600 l 1,16,-1
 61 700 l 1,17,-1
 151 700 l 1,18,-1
 151 600 l 1,15,-1
EndSplineSet
Substitution2: "'smcp' Lowercase to Small Capitals in Latin lookup 1 subtable" J.sc
Substitution2: "'aalt' Access All Alternates in Latin lookup 0 subtable" J.sc
EndChar

StartChar: k
Encoding: 107 107 76
Width: 448
Flags: W
LayerCount: 2
Back
Fore
SplineSet
150 0 m 1,0,-1
 60 0 l 1,1,-1
 60 750 l 1,2,-1
 150 750 l 1,3,-1
 150 269 l 1,4,-1
 330 490 l 1,5,-1
 440 490 l 1,6,-1
 238 264 l 1,7,-1
 445 0 l 1,8,-1
 335 0 l 1,9,-1
 150 249 l 1,10,-1
 150 0 l 1,0,-1
EndSplineSet
Substitution2: "'smcp' Lowercase to Small Capitals in Latin lookup 1 subtable" K.sc
Substitution2: "'aalt' Access All Alternates in Latin lookup 0 subtable" K.sc
EndChar

StartChar: l
Encoding: 108 108 77
Width: 236
Flags: W
LayerCount: 2
Back
Fore
SplineSet
229 62 m 1,0,-1
 216 -10 l 1,1,-1
 187 -10 l 2,2,3
 121 -10 121 -10 90.5 23.5 c 128,-1,4
 60 57 60 57 60 108 c 2,5,-1
 60 750 l 1,6,-1
 150 750 l 1,7,-1
 150 160 l 2,8,9
 150 129 150 129 152.5 109.5 c 128,-1,10
 155 90 155 90 163 79.5 c 128,-1,11
 171 69 171 69 186.5 65.5 c 128,-1,12
 202 62 202 62 229 62 c 1,0,-1
EndSplineSet
Substitution2: "'smcp' Lowercase to Small Capitals in Latin lookup 1 subtable" L.sc
Substitution2: "'aalt' Access All Alternates in Latin lookup 0 subtable" L.sc
EndChar

StartChar: m
Encoding: 109 109 78
Width: 877
Flags: W
LayerCount: 2
Back
Fore
SplineSet
821 0 m 1,0,-1
 731 0 l 1,1,-1
 731 288 l 2,2,3
 731 357 731 357 704 388.5 c 128,-1,4
 677 420 677 420 616 420 c 0,5,6
 486 420 486 420 486 284 c 2,7,-1
 486 0 l 1,8,-1
 396 0 l 1,9,-1
 396 270 l 2,10,11
 396 354 396 354 366.5 387 c 128,-1,12
 337 420 337 420 281 420 c 0,13,14
 187 420 187 420 151 356 c 1,15,-1
 151 0 l 1,16,-1
 61 0 l 1,17,-1
 61 490 l 1,18,-1
 131 490 l 1,19,-1
 141 438 l 1,20,21
 181 474 181 474 214 487 c 128,-1,22
 247 500 247 500 288 500 c 0,23,24
 400 500 400 500 454 402 c 1,25,26
 505 500 505 500 633 500 c 0,27,28
 821 500 821 500 821 289 c 2,29,-1
 821 0 l 1,0,-1
EndSplineSet
Substitution2: "'smcp' Lowercase to Small Capitals in Latin lookup 1 subtable" M.sc
Substitution2: "'aalt' Access All Alternates in Latin lookup 0 subtable" M.sc
EndChar

StartChar: n
Encoding: 110 110 79
Width: 559
Flags: W
LayerCount: 2
Back
Fore
SplineSet
503 0 m 1,0,-1
 413 0 l 1,1,-1
 413 270 l 2,2,3
 413 349 413 349 383.5 384.5 c 128,-1,4
 354 420 354 420 285 420 c 0,5,6
 187 420 187 420 151 356 c 1,7,-1
 151 0 l 1,8,-1
 61 0 l 1,9,-1
 61 490 l 1,10,-1
 131 490 l 1,11,-1
 141 438 l 1,12,13
 211 500 211 500 303 500 c 0,14,15
 503 500 503 500 503 270 c 2,16,-1
 503 0 l 1,0,-1
EndSplineSet
Substitution2: "'smcp' Lowercase to Small Capitals in Latin lookup 1 subtable" N.sc
Substitution2: "'aalt' Access All Alternates in Latin lookup 0 subtable" N.sc
EndChar

StartChar: o
Encoding: 111 111 80
Width: 550
Flags: W
LayerCount: 2
Back
Fore
SplineSet
452 62 m 0,0,1
 387 -10 387 -10 275 -10 c 0,2,3
 218 -10 218 -10 173 9.5 c 128,-1,4
 128 29 128 29 96.5 63 c 128,-1,5
 65 97 65 97 48.5 144 c 128,-1,6
 32 191 32 191 32 245 c 0,7,8
 32 300 32 300 49 346.5 c 128,-1,9
 66 393 66 393 97.5 427 c 128,-1,10
 129 461 129 461 174 480.5 c 128,-1,11
 219 500 219 500 275 500 c 256,12,13
 331 500 331 500 376 480.5 c 128,-1,14
 421 461 421 461 452.5 426.5 c 128,-1,15
 484 392 484 392 501 345.5 c 128,-1,16
 518 299 518 299 518 245 c 0,17,18
 518 135 518 135 452 62 c 0,0,1
386 374 m 0,19,20
 347 420 347 420 275 420 c 256,21,22
 203 420 203 420 163.5 374.5 c 128,-1,23
 124 329 124 329 124 245 c 256,24,25
 124 161 124 161 163.5 115.5 c 128,-1,26
 203 70 203 70 275 70 c 0,27,28
 348 70 348 70 387 117 c 128,-1,29
 426 164 426 164 426 245 c 0,30,31
 426 328 426 328 386 374 c 0,19,20
EndSplineSet
Substitution2: "'smcp' Lowercase to Small Capitals in Latin lookup 1 subtable" O.sc
Substitution2: "'aalt' Access All Alternates in Latin lookup 0 subtable" O.sc
EndChar

StartChar: p
Encoding: 112 112 81
Width: 557
Flags: W
LayerCount: 2
Back
Fore
SplineSet
305 -10 m 0,0,1
 287 -10 287 -10 265.5 -5 c 128,-1,2
 244 0 244 0 223 9 c 128,-1,3
 202 18 202 18 183 31.5 c 128,-1,4
 164 45 164 45 151 62 c 1,5,-1
 151 -242 l 1,6,-1
 61 -242 l 1,7,-1
 61 490 l 1,8,-1
 131 490 l 1,9,-1
 141 420 l 1,10,11
 175 461 175 461 212 480.5 c 128,-1,12
 249 500 249 500 306 500 c 0,13,14
 356 500 356 500 396 479.5 c 128,-1,15
 436 459 436 459 464.5 423.5 c 128,-1,16
 493 388 493 388 508.5 342 c 128,-1,17
 524 296 524 296 524 245 c 0,18,19
 524 190 524 190 509.5 143 c 128,-1,20
 495 96 495 96 467.5 62 c 128,-1,21
 440 28 440 28 399 9 c 128,-1,22
 358 -10 358 -10 305 -10 c 0,0,1
295 420 m 0,23,24
 266 420 266 420 239 408 c 128,-1,25
 212 396 212 396 191.5 373.5 c 128,-1,26
 171 351 171 351 158.5 318.5 c 128,-1,27
 146 286 146 286 146 245 c 0,28,29
 146 201 146 201 158 168.5 c 128,-1,30
 170 136 170 136 190.5 114 c 128,-1,31
 211 92 211 92 238 81 c 128,-1,32
 265 70 265 70 295 70 c 0,33,34
 326 70 326 70 351.5 83.5 c 128,-1,35
 377 97 377 97 395 120 c 128,-1,36
 413 143 413 143 422.5 175 c 128,-1,37
 432 207 432 207 432 245 c 0,38,39
 432 284 432 284 422.5 316 c 128,-1,40
 413 348 413 348 395 371 c 128,-1,41
 377 394 377 394 351.5 407 c 128,-1,42
 326 420 326 420 295 420 c 0,23,24
EndSplineSet
Substitution2: "'smcp' Lowercase to Small Capitals in Latin lookup 1 subtable" P.sc
Substitution2: "'aalt' Access All Alternates in Latin lookup 0 subtable" P.sc
EndChar

StartChar: q
Encoding: 113 113 82
Width: 557
Flags: W
LayerCount: 2
Back
Fore
SplineSet
252 -10 m 0,0,1
 199 -10 199 -10 158 9 c 128,-1,2
 117 28 117 28 89 62 c 128,-1,3
 61 96 61 96 47 143 c 128,-1,4
 33 190 33 190 33 245 c 0,5,6
 33 297 33 297 48.5 343 c 128,-1,7
 64 389 64 389 92.5 424 c 128,-1,8
 121 459 121 459 161 479.5 c 128,-1,9
 201 500 201 500 251 500 c 0,10,11
 308 500 308 500 345 480.5 c 128,-1,12
 382 461 382 461 416 420 c 1,13,-1
 426 490 l 1,14,-1
 496 490 l 1,15,-1
 496 -242 l 1,16,-1
 406 -242 l 1,17,-1
 406 62 l 1,18,19
 394 46 394 46 375 32.5 c 128,-1,20
 356 19 356 19 335 9.5 c 128,-1,21
 314 0 314 0 292.5 -5 c 128,-1,22
 271 -10 271 -10 252 -10 c 0,0,1
262 420 m 0,23,24
 230 420 230 420 205 407 c 128,-1,25
 180 394 180 394 162 371 c 128,-1,26
 144 348 144 348 134.5 316 c 128,-1,27
 125 284 125 284 125 245 c 0,28,29
 125 207 125 207 134.5 175 c 128,-1,30
 144 143 144 143 162 120 c 128,-1,31
 180 97 180 97 205 83.5 c 128,-1,32
 230 70 230 70 262 70 c 0,33,34
 292 70 292 70 319.5 81.5 c 128,-1,35
 347 93 347 93 367 115 c 128,-1,36
 387 137 387 137 399 170 c 128,-1,37
 411 203 411 203 411 245 c 0,38,39
 411 286 411 286 398.5 318.5 c 128,-1,40
 386 351 386 351 365.5 373.5 c 128,-1,41
 345 396 345 396 318 408 c 128,-1,42
 291 420 291 420 262 420 c 0,23,24
EndSplineSet
Substitution2: "'smcp' Lowercase to Small Capitals in Latin lookup 1 subtable" Q.sc
Substitution2: "'aalt' Access All Alternates in Latin lookup 0 subtable" Q.sc
EndChar

StartChar: r
Encoding: 114 114 83
Width: 321
Flags: W
LayerCount: 2
Back
Fore
SplineSet
320 508 m 1,0,-1
 300 409 l 1,1,-1
 269 409 l 2,2,3
 254 409 254 409 237 403.5 c 128,-1,4
 220 398 220 398 204.5 389 c 128,-1,5
 189 380 189 380 176 369 c 128,-1,6
 163 358 163 358 157 346 c 1,7,-1
 157 0 l 1,8,-1
 61 0 l 1,9,-1
 61 490 l 1,10,-1
 135 490 l 1,11,-1
 146 409 l 1,12,13
 192 461 192 461 229.5 484.5 c 128,-1,14
 267 508 267 508 312 508 c 2,15,-1
 320 508 l 1,0,-1
EndSplineSet
Substitution2: "'smcp' Lowercase to Small Capitals in Latin lookup 1 subtable" R.sc
Substitution2: "'aalt' Access All Alternates in Latin lookup 0 subtable" R.sc
EndChar

StartChar: s
Encoding: 115 115 84
Width: 414
Flags: W
LayerCount: 2
Back
Fore
SplineSet
200 -10 m 0,0,1
 93 -10 93 -10 32 33 c 1,2,-1
 43 120 l 1,3,4
 63 102 63 102 104.5 86 c 128,-1,5
 146 70 146 70 196 70 c 0,6,7
 294 70 294 70 294 131 c 0,8,9
 294 186 294 186 196 212 c 0,10,11
 166 219 166 219 139.5 228.5 c 128,-1,12
 113 238 113 238 92 253.5 c 128,-1,13
 71 269 71 269 57.5 293 c 128,-1,14
 44 317 44 317 42 353 c 0,15,16
 42 416 42 416 87 458 c 128,-1,17
 132 500 132 500 226 500 c 0,18,19
 293 500 293 500 359 468 c 1,20,-1
 348 386 l 1,21,22
 296 429 296 429 228 429 c 0,23,24
 133 429 133 429 133 363 c 0,25,26
 133 347 133 347 138 336 c 128,-1,27
 143 325 143 325 156 316.5 c 128,-1,28
 169 308 169 308 191 300 c 128,-1,29
 213 292 213 292 247 282 c 0,30,31
 268 276 268 276 292.5 265.5 c 128,-1,32
 317 255 317 255 338 238 c 128,-1,33
 359 221 359 221 373 196 c 128,-1,34
 387 171 387 171 387 136 c 0,35,36
 387 112 387 112 379 86 c 128,-1,37
 371 60 371 60 350 39 c 128,-1,38
 329 18 329 18 292.5 4 c 128,-1,39
 256 -10 256 -10 200 -10 c 0,0,1
EndSplineSet
Substitution2: "'smcp' Lowercase to Small Capitals in Latin lookup 1 subtable" S.sc
Substitution2: "'aalt' Access All Alternates in Latin lookup 0 subtable" S.sc
EndChar

StartChar: t
Encoding: 116 116 85
Width: 337
Flags: W
LayerCount: 2
Back
Fore
SplineSet
318 62 m 1,0,-1
 311 -10 l 1,1,-1
 230 -10 l 2,2,3
 165 -10 165 -10 133.5 24 c 128,-1,4
 102 58 102 58 102 107 c 2,5,-1
 102 420 l 1,6,-1
 18 420 l 1,7,-1
 26 490 l 1,8,-1
 102 490 l 1,9,-1
 102 611 l 1,10,-1
 192 620 l 1,11,-1
 192 490 l 1,12,-1
 321 490 l 1,13,-1
 321 420 l 1,14,-1
 192 420 l 1,15,-1
 192 162 l 2,16,17
 192 127 192 127 194 107 c 128,-1,18
 196 87 196 87 205.5 77 c 128,-1,19
 215 67 215 67 236 64.5 c 128,-1,20
 257 62 257 62 295 62 c 2,21,-1
 318 62 l 1,0,-1
EndSplineSet
Substitution2: "'smcp' Lowercase to Small Capitals in Latin lookup 1 subtable" T.sc
Substitution2: "'aalt' Access All Alternates in Latin lookup 0 subtable" T.sc
EndChar

StartChar: u
Encoding: 117 117 86
Width: 524
Flags: W
LayerCount: 2
Back
Fore
SplineSet
463 0 m 1,0,-1
 383 0 l 1,1,-1
 373 54 l 1,2,3
 327 -10 327 -10 237 -10 c 0,4,5
 56 -10 56 -10 56 205 c 2,6,-1
 56 490 l 1,7,-1
 146 490 l 1,8,-1
 146 230 l 2,9,10
 146 70 146 70 260 70 c 0,11,12
 338 70 338 70 373 126 c 1,13,-1
 373 490 l 1,14,-1
 463 490 l 1,15,-1
 463 0 l 1,0,-1
EndSplineSet
Substitution2: "'smcp' Lowercase to Small Capitals in Latin lookup 1 subtable" U.sc
Substitution2: "'aalt' Access All Alternates in Latin lookup 0 subtable" U.sc
EndChar

StartChar: v
Encoding: 118 118 87
Width: 492
Flags: W
LayerCount: 2
Back
Fore
SplineSet
483 490 m 1,0,-1
 297 0 l 1,1,-1
 196 0 l 1,2,-1
 9 490 l 1,3,-1
 109 490 l 1,4,-1
 246 99 l 1,5,-1
 382 490 l 1,6,-1
 483 490 l 1,0,-1
EndSplineSet
Substitution2: "'smcp' Lowercase to Small Capitals in Latin lookup 1 subtable" V.sc
Substitution2: "'aalt' Access All Alternates in Latin lookup 0 subtable" V.sc
EndChar

StartChar: w
Encoding: 119 119 88
Width: 725
Flags: W
LayerCount: 2
Back
Fore
SplineSet
714 490 m 1,0,-1
 566 0 l 1,1,-1
 465 0 l 1,2,-1
 363 362 l 1,3,-1
 260 0 l 1,4,-1
 159 0 l 1,5,-1
 12 490 l 1,6,-1
 118 490 l 1,7,-1
 212 99 l 1,8,-1
 316 475 l 1,9,-1
 409 475 l 1,10,-1
 514 99 l 1,11,-1
 608 490 l 1,12,-1
 714 490 l 1,0,-1
EndSplineSet
Substitution2: "'smcp' Lowercase to Small Capitals in Latin lookup 1 subtable" W.sc
Substitution2: "'aalt' Access All Alternates in Latin lookup 0 subtable" W.sc
EndChar

StartChar: x
Encoding: 120 120 89
Width: 474
Flags: W
LayerCount: 2
Back
Fore
SplineSet
463 0 m 1,0,-1
 362 0 l 1,1,-1
 238 193 l 1,2,-1
 112 0 l 1,3,-1
 11 0 l 1,4,-1
 182 244 l 1,5,-1
 15 490 l 1,6,-1
 116 490 l 1,7,-1
 239 296 l 1,8,-1
 352 490 l 1,9,-1
 457 490 l 1,10,-1
 296 252 l 1,11,-1
 463 0 l 1,0,-1
EndSplineSet
Substitution2: "'smcp' Lowercase to Small Capitals in Latin lookup 1 subtable" X.sc
Substitution2: "'aalt' Access All Alternates in Latin lookup 0 subtable" X.sc
EndChar

StartChar: y
Encoding: 121 121 90
Width: 505
Flags: W
LayerCount: 2
Back
Fore
SplineSet
498 490 m 1,0,-1
 198 -242 l 1,1,-1
 98 -242 l 1,2,-1
 211 22 l 1,3,-1
 7 490 l 1,4,-1
 107 490 l 1,5,-1
 260 126 l 1,6,-1
 398 490 l 1,7,-1
 498 490 l 1,0,-1
EndSplineSet
Substitution2: "'smcp' Lowercase to Small Capitals in Latin lookup 1 subtable" Y.sc
Substitution2: "'aalt' Access All Alternates in Latin lookup 0 subtable" Y.sc
EndChar

StartChar: z
Encoding: 122 122 91
Width: 471
Flags: W
LayerCount: 2
Back
Fore
SplineSet
446 490 m 1,0,-1
 185 70 l 1,1,-1
 441 70 l 1,2,-1
 441 0 l 1,3,-1
 22 0 l 1,4,-1
 283 420 l 1,5,-1
 32 420 l 1,6,-1
 32 490 l 1,7,-1
 446 490 l 1,0,-1
EndSplineSet
Substitution2: "'smcp' Lowercase to Small Capitals in Latin lookup 1 subtable" Z.sc
Substitution2: "'aalt' Access All Alternates in Latin lookup 0 subtable" Z.sc
EndChar

StartChar: braceleft
Encoding: 123 123 92
Width: 299
Flags: W
LayerCount: 2
Back
Fore
SplineSet
83 14 m 0,0,1
 83 21 83 21 84 41 c 128,-1,2
 85 61 85 61 86.5 84 c 128,-1,3
 88 107 88 107 89.5 128 c 128,-1,4
 91 149 91 149 91 159 c 0,5,6
 91 213 91 213 75 247.5 c 128,-1,7
 59 282 59 282 19 307 c 1,8,9
 57 333 57 333 74 367.5 c 128,-1,10
 91 402 91 402 91 456 c 0,11,12
 91 466 91 466 89.5 487 c 128,-1,13
 88 508 88 508 86.5 530.5 c 128,-1,14
 85 553 85 553 84 573 c 128,-1,15
 83 593 83 593 83 600 c 0,16,17
 83 671 83 671 131.5 708.5 c 128,-1,18
 180 746 180 746 297 750 c 1,19,-1
 297 681 l 1,20,21
 244 680 244 680 215.5 670 c 128,-1,22
 187 660 187 660 174 640 c 128,-1,23
 161 620 161 620 158.5 588 c 128,-1,24
 156 556 156 556 156 510 c 0,25,26
 156 505 156 505 156.5 493 c 128,-1,27
 157 481 157 481 157.5 467.5 c 128,-1,28
 158 454 158 454 158.5 442 c 128,-1,29
 159 430 159 430 159 424 c 0,30,31
 159 406 159 406 155.5 390.5 c 128,-1,32
 152 375 152 375 143 361.5 c 128,-1,33
 134 348 134 348 118 335 c 128,-1,34
 102 322 102 322 76 307 c 1,35,36
 102 293 102 293 118.5 280.5 c 128,-1,37
 135 268 135 268 144 255.5 c 128,-1,38
 153 243 153 243 156 229 c 128,-1,39
 159 215 159 215 159 199 c 0,40,41
 159 194 159 194 158.5 181.5 c 128,-1,42
 158 169 158 169 157.5 154.5 c 128,-1,43
 157 140 157 140 156.5 126 c 128,-1,44
 156 112 156 112 156 105 c 0,45,46
 156 51 156 51 160 19 c 128,-1,47
 164 -13 164 -13 178.5 -31 c 128,-1,48
 193 -49 193 -49 221 -56 c 128,-1,49
 249 -63 249 -63 297 -66 c 1,50,-1
 297 -135 l 1,51,52
 182 -131 182 -131 132.5 -94.5 c 128,-1,53
 83 -58 83 -58 83 14 c 0,0,1
EndSplineSet
EndChar

StartChar: bar
Encoding: 124 124 93
Width: 229
Flags: W
LayerCount: 2
Back
Fore
SplineSet
159 -209 m 1,0,-1
 70 -209 l 1,1,-1
 70 750 l 1,2,-1
 159 750 l 1,3,-1
 159 -209 l 1,0,-1
EndSplineSet
EndChar

StartChar: braceright
Encoding: 125 125 94
Width: 299
Flags: W
LayerCount: 2
Back
Fore
SplineSet
216 14 m 0,0,1
 216 -58 216 -58 166.5 -94.5 c 128,-1,2
 117 -131 117 -131 2 -135 c 1,3,-1
 2 -66 l 1,4,5
 56 -65 56 -65 85 -55 c 128,-1,6
 114 -45 114 -45 126.5 -24 c 128,-1,7
 139 -3 139 -3 141 29 c 128,-1,8
 143 61 143 61 143 105 c 0,9,10
 143 112 143 112 142.5 125.5 c 128,-1,11
 142 139 142 139 141.5 153.5 c 128,-1,12
 141 168 141 168 140.5 180.5 c 128,-1,13
 140 193 140 193 140 199 c 0,14,15
 140 216 140 216 143.5 230 c 128,-1,16
 147 244 147 244 156 256 c 128,-1,17
 165 268 165 268 181 280.5 c 128,-1,18
 197 293 197 293 223 307 c 1,19,20
 197 322 197 322 181 335 c 128,-1,21
 165 348 165 348 156 361.5 c 128,-1,22
 147 375 147 375 143.5 390.5 c 128,-1,23
 140 406 140 406 140 424 c 0,24,25
 140 430 140 430 140.5 442 c 128,-1,26
 141 454 141 454 141.5 467.5 c 128,-1,27
 142 481 142 481 142.5 493 c 128,-1,28
 143 505 143 505 143 510 c 0,29,30
 143 564 143 564 139 596 c 128,-1,31
 135 628 135 628 120.5 646 c 128,-1,32
 106 664 106 664 78 671 c 128,-1,33
 50 678 50 678 2 681 c 1,34,-1
 2 750 l 1,35,36
 119 746 119 746 167.5 708.5 c 128,-1,37
 216 671 216 671 216 600 c 0,38,39
 216 593 216 593 214.5 573 c 128,-1,40
 213 553 213 553 211.5 530.5 c 128,-1,41
 210 508 210 508 209 487 c 128,-1,42
 208 466 208 466 208 456 c 0,43,44
 208 402 208 402 225 367.5 c 128,-1,45
 242 333 242 333 280 307 c 1,46,47
 240 282 240 282 224 247.5 c 128,-1,48
 208 213 208 213 208 159 c 0,49,50
 208 149 208 149 209 128 c 128,-1,51
 210 107 210 107 211.5 84 c 128,-1,52
 213 61 213 61 214.5 41 c 128,-1,53
 216 21 216 21 216 14 c 0,0,1
EndSplineSet
EndChar

StartChar: asciitilde
Encoding: 126 126 95
Width: 455
Flags: W
LayerCount: 2
Back
Fore
SplineSet
293 179 m 0,0,1
 281 179 281 179 264 187 c 128,-1,2
 247 195 247 195 225 204.5 c 128,-1,3
 203 214 203 214 187 222 c 128,-1,4
 171 230 171 230 161 230 c 0,5,6
 108 230 108 230 90 181 c 1,7,-1
 54 190 l 1,8,9
 60 212 60 212 71 229 c 128,-1,10
 82 246 82 246 96 257.5 c 128,-1,11
 110 269 110 269 126 274.5 c 128,-1,12
 142 280 142 280 157 280 c 0,13,14
 170 280 170 280 188 272.5 c 128,-1,15
 206 265 206 265 229 255.5 c 128,-1,16
 252 246 252 246 268 238.5 c 128,-1,17
 284 231 284 231 297 231 c 0,18,19
 339 231 339 231 366 282 c 1,20,-1
 400 273 l 1,21,22
 389 230 389 230 360 204.5 c 128,-1,23
 331 179 331 179 293 179 c 0,0,1
EndSplineSet
EndChar

StartChar: exclamdown
Encoding: 161 161 97
Width: 224
Flags: W
LayerCount: 2
Back
Fore
SplineSet
50 -250 m 1,0,-1
 80 300 l 1,1,-1
 144 300 l 1,2,-1
 174 -250 l 1,3,-1
 50 -250 l 1,0,-1
70 500 m 1,4,-1
 154 500 l 1,5,-1
 154 414 l 1,6,-1
 70 414 l 1,7,-1
 70 500 l 1,4,-1
EndSplineSet
EndChar

StartChar: cent
Encoding: 162 162 98
Width: 477
Flags: W
LayerCount: 2
Back
Fore
SplineSet
319 -31 m 1,0,-1
 229 -31 l 1,1,-1
 246 89 l 1,2,3
 200 95 200 95 161 116 c 128,-1,4
 122 137 122 137 94 170 c 128,-1,5
 66 203 66 203 50 247.5 c 128,-1,6
 34 292 34 292 34 346 c 0,7,8
 34 395 34 395 48 439.5 c 128,-1,9
 62 484 62 484 89 518.5 c 128,-1,10
 116 553 116 553 155.5 576 c 128,-1,11
 195 599 195 599 246 606 c 1,12,-1
 229 748 l 1,13,-1
 319 748 l 1,14,-1
 303 608 l 1,15,16
 346 605 346 605 374.5 597.5 c 128,-1,17
 403 590 403 590 426 576 c 1,18,-1
 418 498 l 1,19,20
 388 514 388 514 357 522.5 c 128,-1,21
 326 531 326 531 294 531 c 0,22,23
 253 531 253 531 222.5 516.5 c 128,-1,24
 192 502 192 502 171.5 477 c 128,-1,25
 151 452 151 452 140.5 418.5 c 128,-1,26
 130 385 130 385 130 347 c 0,27,28
 130 265 130 265 174 215 c 128,-1,29
 218 165 218 165 296 165 c 0,30,31
 357 165 357 165 418 197 c 1,32,-1
 426 119 l 1,33,34
 409 108 409 108 385 99 c 128,-1,35
 361 90 361 90 304 87 c 1,36,-1
 319 -31 l 1,0,-1
EndSplineSet
EndChar

StartChar: sterling
Encoding: 163 163 99
Width: 500
Flags: W
LayerCount: 2
Back
Fore
SplineSet
416 569 m 1,0,1
 402 598 402 598 379.5 611.5 c 128,-1,2
 357 625 357 625 330 625 c 0,3,4
 299 625 299 625 281.5 617 c 128,-1,5
 264 609 264 609 255 592 c 128,-1,6
 246 575 246 575 244 549.5 c 128,-1,7
 242 524 242 524 242 488 c 2,8,-1
 242 395 l 1,9,-1
 434 395 l 1,10,-1
 419 309 l 1,11,-1
 236 309 l 1,12,13
 233 271 233 271 230.5 244 c 128,-1,14
 228 217 228 217 223 192.5 c 128,-1,15
 218 168 218 168 209.5 143.5 c 128,-1,16
 201 119 201 119 188 86 c 1,17,-1
 449 86 l 1,18,-1
 449 0 l 1,19,-1
 34 0 l 1,20,21
 59 35 59 35 77 69 c 128,-1,22
 95 103 95 103 107 139.5 c 128,-1,23
 119 176 119 176 127 217.5 c 128,-1,24
 135 259 135 259 140 309 c 1,25,-1
 45 309 l 1,26,-1
 59 395 l 1,27,-1
 146 395 l 1,28,-1
 146 510 l 2,29,30
 146 550 146 550 152.5 586.5 c 128,-1,31
 159 623 159 623 178 651.5 c 128,-1,32
 197 680 197 680 231.5 697 c 128,-1,33
 266 714 266 714 321 714 c 0,34,35
 390 714 390 714 428 689.5 c 128,-1,36
 466 665 466 665 480 628 c 1,37,-1
 416 569 l 1,0,1
EndSplineSet
EndChar

StartChar: currency
Encoding: 164 164 100
Width: 626
Flags: W
LayerCount: 2
Back
Fore
SplineSet
564 53 m 1,0,-1
 535 29 l 1,1,-1
 456 132 l 1,2,3
 386 94 386 94 313 94 c 0,4,5
 239 94 239 94 170 132 c 1,6,-1
 91 29 l 1,7,-1
 63 53 l 1,8,-1
 140 155 l 1,9,10
 61 237 61 237 61 348 c 0,11,12
 61 458 61 458 141 541 c 1,13,-1
 63 643 l 1,14,-1
 91 667 l 1,15,-1
 169 564 l 1,16,17
 245 602 245 602 313 602 c 0,18,19
 384 602 384 602 456 563 c 1,20,-1
 536 667 l 1,21,-1
 564 643 l 1,22,-1
 486 540 l 1,23,24
 565 458 565 458 565 348 c 0,25,26
 565 240 565 240 485 154 c 1,27,-1
 564 53 l 1,0,-1
432 486 m 0,28,29
 390 540 390 540 313 540 c 0,30,31
 274 540 274 540 244 525.5 c 128,-1,32
 214 511 214 511 193.5 485.5 c 128,-1,33
 173 460 173 460 162 425 c 128,-1,34
 151 390 151 390 151 348 c 256,35,36
 151 306 151 306 162 270.5 c 128,-1,37
 173 235 173 235 193.5 209.5 c 128,-1,38
 214 184 214 184 244 170 c 128,-1,39
 274 156 274 156 313 156 c 256,40,41
 352 156 352 156 382 170.5 c 128,-1,42
 412 185 412 185 432.5 211 c 128,-1,43
 453 237 453 237 464 272 c 128,-1,44
 475 307 475 307 475 348 c 0,45,46
 475 433 475 433 432 486 c 0,28,29
EndSplineSet
EndChar

StartChar: yen
Encoding: 165 165 101
Width: 674
Flags: W
LayerCount: 2
Back
Fore
SplineSet
646 700 m 1,0,-1
 387 316 l 1,1,-1
 564 316 l 1,2,-1
 543 262 l 1,3,-1
 386 262 l 1,4,-1
 386 200 l 1,5,-1
 564 200 l 1,6,-1
 543 146 l 1,7,-1
 386 146 l 1,8,-1
 386 0 l 1,9,-1
 290 0 l 1,10,-1
 290 146 l 1,11,-1
 112 146 l 1,12,-1
 133 200 l 1,13,-1
 290 200 l 1,14,-1
 290 262 l 1,15,-1
 112 262 l 1,16,-1
 133 316 l 1,17,-1
 289 316 l 1,18,-1
 30 700 l 1,19,-1
 123 700 l 1,20,-1
 338 393 l 1,21,-1
 553 700 l 1,22,-1
 646 700 l 1,0,-1
EndSplineSet
EndChar

StartChar: brokenbar
Encoding: 166 166 102
Width: 232
Flags: W
LayerCount: 2
Back
Fore
SplineSet
160 308 m 1,0,-1
 72 308 l 1,1,-1
 72 750 l 1,2,-1
 160 750 l 1,3,-1
 160 308 l 1,0,-1
160 -210 m 1,4,-1
 72 -210 l 1,5,-1
 72 163 l 1,6,-1
 160 163 l 1,7,-1
 160 -210 l 1,4,-1
EndSplineSet
EndChar

StartChar: section
Encoding: 167 167 103
Width: 456
Flags: W
LayerCount: 2
Back
Fore
SplineSet
315 188 m 1,0,1
 336 172 336 172 347.5 159 c 128,-1,2
 359 146 359 146 365 132.5 c 128,-1,3
 371 119 371 119 372.5 104 c 128,-1,4
 374 89 374 89 374 69 c 0,5,6
 374 39 374 39 364 11 c 128,-1,7
 354 -17 354 -17 333.5 -38 c 128,-1,8
 313 -59 313 -59 281 -71.5 c 128,-1,9
 249 -84 249 -84 206 -84 c 256,10,11
 163 -84 163 -84 123 -73 c 128,-1,12
 83 -62 83 -62 63 -45 c 1,13,-1
 76 18 l 1,14,15
 144 -23 144 -23 207 -23 c 0,16,17
 255 -23 255 -23 282.5 -2.5 c 128,-1,18
 310 18 310 18 310 60 c 0,19,20
 310 95 310 95 290 114.5 c 128,-1,21
 270 134 270 134 239.5 146 c 128,-1,22
 209 158 209 158 173.5 168.5 c 128,-1,23
 138 179 138 179 107.5 197.5 c 128,-1,24
 77 216 77 216 57 246.5 c 128,-1,25
 37 277 37 277 37 330 c 0,26,27
 37 446 37 446 146 479 c 1,28,29
 107 507 107 507 94.5 532.5 c 128,-1,30
 82 558 82 558 82 587 c 0,31,32
 82 622 82 622 91.5 652 c 128,-1,33
 101 682 101 682 121.5 703.5 c 128,-1,34
 142 725 142 725 173 737.5 c 128,-1,35
 204 750 204 750 247 750 c 0,36,37
 333 750 333 750 394 710 c 1,38,-1
 381 647 l 1,39,40
 313 690 313 690 251 690 c 0,41,42
 206 690 206 690 180 665 c 128,-1,43
 154 640 154 640 154 604 c 0,44,45
 154 573 154 573 173.5 554.5 c 128,-1,46
 193 536 193 536 222.5 523 c 128,-1,47
 252 510 252 510 286.5 497.5 c 128,-1,48
 321 485 321 485 350.5 465 c 128,-1,49
 380 445 380 445 399.5 413.5 c 128,-1,50
 419 382 419 382 419 331 c 0,51,52
 419 232 419 232 315 188 c 1,0,1
204 438 m 1,53,54
 190 437 190 437 172.5 431.5 c 128,-1,55
 155 426 155 426 140 414.5 c 128,-1,56
 125 403 125 403 115 385 c 128,-1,57
 105 367 105 367 105 342 c 0,58,59
 105 261 105 261 267 219 c 1,60,61
 303 229 303 229 324 258 c 128,-1,62
 345 287 345 287 345 324 c 0,63,64
 345 405 345 405 204 438 c 1,53,54
EndSplineSet
EndChar

StartChar: dieresis
Encoding: 168 168 104
Width: 422
Flags: W
LayerCount: 2
Back
Fore
SplineSet
335 600 m 1,0,-1
 265 600 l 1,1,-1
 265 700 l 1,2,-1
 335 700 l 1,3,-1
 335 600 l 1,0,-1
157 600 m 1,4,-1
 87 600 l 1,5,-1
 87 700 l 1,6,-1
 157 700 l 1,7,-1
 157 600 l 1,4,-1
EndSplineSet
EndChar

StartChar: copyright
Encoding: 169 169 105
Width: 720
Flags: W
LayerCount: 2
Back
Fore
SplineSet
49 365 m 0,0,1
 49 439 49 439 72 499.5 c 128,-1,2
 95 560 95 560 136.5 603 c 128,-1,3
 178 646 178 646 235 669.5 c 128,-1,4
 292 693 292 693 360 693 c 256,5,6
 428 693 428 693 485 669.5 c 128,-1,7
 542 646 542 646 583 602.5 c 128,-1,8
 624 559 624 559 647 498.5 c 128,-1,9
 670 438 670 438 670 365 c 256,10,11
 670 292 670 292 647 232 c 128,-1,12
 624 172 624 172 583 128.5 c 128,-1,13
 542 85 542 85 485 61 c 128,-1,14
 428 37 428 37 360 37 c 256,15,16
 292 37 292 37 234.5 61 c 128,-1,17
 177 85 177 85 136 128 c 128,-1,18
 95 171 95 171 72 231.5 c 128,-1,19
 49 292 49 292 49 365 c 0,0,1
360 648 m 256,20,21
 297 648 297 648 249 627.5 c 128,-1,22
 201 607 201 607 168 569.5 c 128,-1,23
 135 532 135 532 118 480 c 128,-1,24
 101 428 101 428 101 365 c 256,25,26
 101 302 101 302 117.5 250 c 128,-1,27
 134 198 134 198 167 160.5 c 128,-1,28
 200 123 200 123 248.5 102.5 c 128,-1,29
 297 82 297 82 360 82 c 256,30,31
 423 82 423 82 471 103 c 128,-1,32
 519 124 519 124 552 161.5 c 128,-1,33
 585 199 585 199 601.5 251 c 128,-1,34
 618 303 618 303 618 365 c 256,35,36
 618 427 618 427 601 479 c 128,-1,37
 584 531 584 531 551.5 568.5 c 128,-1,38
 519 606 519 606 471 627 c 128,-1,39
 423 648 423 648 360 648 c 256,20,21
369 197 m 0,40,41
 334 197 334 197 305 209 c 128,-1,42
 276 221 276 221 255 242.5 c 128,-1,43
 234 264 234 264 222.5 294.5 c 128,-1,44
 211 325 211 325 211 363 c 256,45,46
 211 401 211 401 222.5 432 c 128,-1,47
 234 463 234 463 255 484.5 c 128,-1,48
 276 506 276 506 305 518 c 128,-1,49
 334 530 334 530 369 530 c 0,50,51
 417 530 417 530 459 511 c 1,52,-1
 452 451 l 1,53,54
 407 470 407 470 369 470 c 0,55,56
 324 470 324 470 301 440.5 c 128,-1,57
 278 411 278 411 278 363 c 256,58,59
 278 315 278 315 301 285.5 c 128,-1,60
 324 256 324 256 369 256 c 0,61,62
 406 256 406 256 452 276 c 1,63,-1
 459 217 l 1,64,65
 421 197 421 197 369 197 c 0,40,41
EndSplineSet
EndChar

StartChar: ordfeminine
Encoding: 170 170 106
Width: 349
Flags: W
LayerCount: 2
Back
Fore
SplineSet
313 495 m 1,0,-1
 306 434 l 1,1,-1
 279 434 l 2,2,3
 231 434 231 434 212 465 c 1,4,5
 181 434 181 434 120 434 c 0,6,7
 83 434 83 434 58 457 c 128,-1,8
 33 480 33 480 33 519 c 0,9,10
 33 548 33 548 50.5 567 c 128,-1,11
 68 586 68 586 94 597.5 c 128,-1,12
 120 609 120 609 149 614 c 128,-1,13
 178 619 178 619 201 620 c 1,14,15
 199 662 199 662 148 662 c 0,16,17
 116 662 116 662 65 642 c 1,18,-1
 59 702 l 1,19,20
 113 725 113 725 168 725 c 0,21,22
 277 725 277 725 277 617 c 2,23,-1
 277 537 l 2,24,25
 277 507 277 507 281.5 501 c 128,-1,26
 286 495 286 495 303 495 c 2,27,-1
 313 495 l 1,0,-1
202 507 m 1,28,-1
 202 570 l 1,29,30
 167 569 167 569 139.5 556.5 c 128,-1,31
 112 544 112 544 112 522 c 0,32,33
 112 490 112 490 152 490 c 0,34,35
 179 490 179 490 202 507 c 1,28,-1
EndSplineSet
EndChar

StartChar: guillemotleft
Encoding: 171 171 107
Width: 563
Flags: W
LayerCount: 2
Back
Fore
SplineSet
523 78 m 1,0,-1
 422 78 l 1,1,-1
 275 284 l 1,2,-1
 422 490 l 1,3,-1
 523 490 l 1,4,-1
 375 284 l 1,5,-1
 523 78 l 1,0,-1
262 78 m 1,6,-1
 162 78 l 1,7,-1
 15 284 l 1,8,-1
 162 490 l 1,9,-1
 262 490 l 1,10,-1
 115 284 l 1,11,-1
 262 78 l 1,6,-1
EndSplineSet
EndChar

StartChar: logicalnot
Encoding: 172 172 108
Width: 596
Flags: W
LayerCount: 2
Back
Fore
SplineSet
526 151 m 1,0,-1
 471 151 l 1,1,-1
 471 346 l 1,2,-1
 66 346 l 1,3,-1
 66 406 l 1,4,-1
 526 406 l 1,5,-1
 526 151 l 1,0,-1
EndSplineSet
EndChar

StartChar: uni00AD
Encoding: 173 173 109
Width: 424
Flags: W
LayerCount: 2
Back
Fore
SplineSet
367 230 m 1,0,-1
 57 230 l 1,1,-1
 57 324 l 1,2,-1
 367 324 l 1,3,-1
 367 230 l 1,0,-1
EndSplineSet
EndChar

StartChar: registered
Encoding: 174 174 110
Width: 720
Flags: W
LayerCount: 2
Back
Fore
SplineSet
49 365 m 0,0,1
 49 439 49 439 72 499.5 c 128,-1,2
 95 560 95 560 136.5 603 c 128,-1,3
 178 646 178 646 235 669.5 c 128,-1,4
 292 693 292 693 360 693 c 256,5,6
 428 693 428 693 485 669.5 c 128,-1,7
 542 646 542 646 583 602.5 c 128,-1,8
 624 559 624 559 647 498.5 c 128,-1,9
 670 438 670 438 670 365 c 256,10,11
 670 292 670 292 647 232 c 128,-1,12
 624 172 624 172 583 128.5 c 128,-1,13
 542 85 542 85 485 61 c 128,-1,14
 428 37 428 37 360 37 c 256,15,16
 292 37 292 37 234.5 61 c 128,-1,17
 177 85 177 85 136 128 c 128,-1,18
 95 171 95 171 72 231.5 c 128,-1,19
 49 292 49 292 49 365 c 0,0,1
360 649 m 256,20,21
 297 649 297 649 248.5 628 c 128,-1,22
 200 607 200 607 167 569.5 c 128,-1,23
 134 532 134 532 117 479.5 c 128,-1,24
 100 427 100 427 100 365 c 256,25,26
 100 303 100 303 116.5 250.5 c 128,-1,27
 133 198 133 198 166 160 c 128,-1,28
 199 122 199 122 247.5 101.5 c 128,-1,29
 296 81 296 81 360 81 c 0,30,31
 423 81 423 81 471.5 101.5 c 128,-1,32
 520 122 520 122 552.5 160 c 128,-1,33
 585 198 585 198 602 250.5 c 128,-1,34
 619 303 619 303 619 365 c 256,35,36
 619 427 619 427 602 479.5 c 128,-1,37
 585 532 585 532 552 569.5 c 128,-1,38
 519 607 519 607 471 628 c 128,-1,39
 423 649 423 649 360 649 c 256,20,21
489 210 m 1,40,-1
 426 210 l 1,41,-1
 361 327 l 1,42,-1
 306 327 l 1,43,-1
 306 210 l 1,44,-1
 244 210 l 1,45,-1
 244 531 l 1,46,-1
 362 531 l 2,47,48
 416 531 416 531 444 508.5 c 128,-1,49
 472 486 472 486 472 431 c 0,50,51
 472 380 472 380 418 344 c 1,52,-1
 489 210 l 1,40,-1
348 482 m 2,53,-1
 306 482 l 1,54,-1
 306 383 l 1,55,-1
 346 383 l 2,56,57
 407 383 407 383 407 433 c 0,58,59
 407 457 407 457 394 469.5 c 128,-1,60
 381 482 381 482 348 482 c 2,53,-1
EndSplineSet
EndChar

StartChar: degree
Encoding: 176 176 111
Width: 333
Flags: W
LayerCount: 2
Back
Fore
SplineSet
263 520 m 0,0,1
 227 482 227 482 166 482 c 0,2,3
 103 482 103 482 68.5 520.5 c 128,-1,4
 34 559 34 559 34 618 c 0,5,6
 34 648 34 648 43 673 c 128,-1,7
 52 698 52 698 69.5 716 c 128,-1,8
 87 734 87 734 111.5 744.5 c 128,-1,9
 136 755 136 755 166 755 c 256,10,11
 196 755 196 755 221 744.5 c 128,-1,12
 246 734 246 734 263 715.5 c 128,-1,13
 280 697 280 697 289.5 672 c 128,-1,14
 299 647 299 647 299 618 c 0,15,16
 299 559 299 559 263 520 c 0,0,1
166 729 m 0,17,18
 145 729 145 729 129 720 c 128,-1,19
 113 711 113 711 101.5 696 c 128,-1,20
 90 681 90 681 84 660.5 c 128,-1,21
 78 640 78 640 78 618 c 0,22,23
 78 570 78 570 102.5 539 c 128,-1,24
 127 508 127 508 171 508 c 0,25,26
 192 508 192 508 207 517.5 c 128,-1,27
 222 527 222 527 232.5 542.5 c 128,-1,28
 243 558 243 558 248 576 c 128,-1,29
 253 594 253 594 253 618 c 0,30,31
 253 640 253 640 247.5 660 c 128,-1,32
 242 680 242 680 231 695.5 c 128,-1,33
 220 711 220 711 204 720 c 128,-1,34
 188 729 188 729 166 729 c 0,17,18
EndSplineSet
EndChar

StartChar: plusminus
Encoding: 177 177 112
Width: 498
Flags: W
LayerCount: 2
Back
Fore
SplineSet
434 327 m 1,0,-1
 281 327 l 1,1,-1
 281 183 l 1,2,-1
 217 183 l 1,3,-1
 217 327 l 1,4,-1
 64 327 l 1,5,-1
 64 394 l 1,6,-1
 217 394 l 1,7,-1
 217 532 l 1,8,-1
 281 532 l 1,9,-1
 281 394 l 1,10,-1
 434 394 l 1,11,-1
 434 327 l 1,0,-1
434 42 m 1,12,-1
 64 42 l 1,13,-1
 64 109 l 1,14,-1
 434 109 l 1,15,-1
 434 42 l 1,12,-1
EndSplineSet
EndChar

StartChar: uni00B2
Encoding: 178 178 113
Width: 304
Flags: W
LayerCount: 2
Back
Fore
SplineSet
273 320 m 1,0,-1
 25 320 l 1,1,2
 82 397 82 397 115 445.5 c 128,-1,3
 148 494 148 494 164.5 524 c 128,-1,4
 181 554 181 554 185 569 c 128,-1,5
 189 584 189 584 189 593 c 0,6,7
 189 618 189 618 174 632 c 128,-1,8
 159 646 159 646 132 646 c 0,9,10
 81 646 81 646 39 587 c 1,11,-1
 30 652 l 1,12,13
 41 671 41 671 71.5 688.5 c 128,-1,14
 102 706 102 706 147 706 c 0,15,16
 177 706 177 706 198 698 c 128,-1,17
 219 690 219 690 232.5 676 c 128,-1,18
 246 662 246 662 252.5 643.5 c 128,-1,19
 259 625 259 625 259 604 c 0,20,21
 259 536 259 536 153 390 c 1,22,-1
 273 390 l 1,23,-1
 273 320 l 1,0,-1
EndSplineSet
EndChar

StartChar: uni00B3
Encoding: 179 179 114
Width: 310
Flags: W
LayerCount: 2
Back
Fore
SplineSet
128 312 m 0,0,1
 111 312 111 312 93.5 315 c 128,-1,2
 76 318 76 318 61 322.5 c 128,-1,3
 46 327 46 327 34.5 332 c 128,-1,4
 23 337 23 337 19 342 c 1,5,-1
 37 408 l 1,6,7
 69 382 69 382 125 382 c 0,8,9
 203 382 203 382 203 434 c 0,10,11
 203 464 203 464 187.5 481 c 128,-1,12
 172 498 172 498 129 498 c 2,13,-1
 77 498 l 1,14,-1
 83 553 l 1,15,-1
 110 553 l 2,16,17
 187 553 187 553 187 601 c 0,18,19
 187 645 187 645 127 645 c 0,20,21
 78 645 78 645 56 628 c 1,22,-1
 45 681 l 1,23,24
 71 706 71 706 136 706 c 0,25,26
 172 706 172 706 196 697 c 128,-1,27
 220 688 220 688 234.5 674 c 128,-1,28
 249 660 249 660 255.5 642 c 128,-1,29
 262 624 262 624 262 605 c 0,30,31
 262 552 262 552 223 530 c 1,32,33
 277 498 277 498 277 437 c 0,34,35
 277 407 277 407 265 384 c 128,-1,36
 253 361 253 361 232.5 345 c 128,-1,37
 212 329 212 329 185 320.5 c 128,-1,38
 158 312 158 312 128 312 c 0,0,1
EndSplineSet
EndChar

StartChar: acute
Encoding: 180 180 115
Width: 303
Flags: W
LayerCount: 2
Back
Fore
SplineSet
245 660 m 1,0,-1
 58 596 l 1,1,-1
 58 637 l 1,2,-1
 245 732 l 1,3,-1
 245 660 l 1,0,-1
EndSplineSet
EndChar

StartChar: uni00B5
Encoding: 181 181 116
Width: 591
Flags: W
LayerCount: 2
Back
Fore
SplineSet
556 62 m 1,0,-1
 540 -10 l 1,1,-1
 514 -10 l 2,2,3
 435 -10 435 -10 407 63 c 1,4,5
 374 25 374 25 345.5 7 c 128,-1,6
 317 -11 317 -11 273 -11 c 0,7,8
 241 -11 241 -11 217.5 -3.5 c 128,-1,9
 194 4 194 4 161 27 c 1,10,-1
 161 -242 l 1,11,-1
 73 -242 l 1,12,-1
 73 490 l 1,13,-1
 162 490 l 1,14,-1
 162 232 l 2,15,16
 162 148 162 148 188.5 108.5 c 128,-1,17
 215 69 215 69 284 69 c 0,18,19
 322 69 322 69 347 82 c 128,-1,20
 372 95 372 95 400 127 c 1,21,-1
 400 490 l 1,22,-1
 487 490 l 1,23,-1
 487 170 l 2,24,25
 487 113 487 113 496.5 87.5 c 128,-1,26
 506 62 506 62 534 62 c 2,27,-1
 556 62 l 1,0,-1
EndSplineSet
EndChar

StartChar: paragraph
Encoding: 182 182 117
Width: 622
Flags: W
LayerCount: 2
Back
Fore
SplineSet
580 633 m 1,0,-1
 505 633 l 1,1,-1
 505 0 l 1,2,-1
 457 0 l 1,3,-1
 457 633 l 1,4,-1
 356 633 l 1,5,-1
 356 0 l 1,6,-1
 315 0 l 1,7,-1
 315 243 l 1,8,9
 245 247 245 247 192.5 267 c 128,-1,10
 140 287 140 287 104.5 318.5 c 128,-1,11
 69 350 69 350 51 390 c 128,-1,12
 33 430 33 430 33 474 c 0,13,14
 33 519 33 519 52 560 c 128,-1,15
 71 601 71 601 107.5 632 c 128,-1,16
 144 663 144 663 198 681.5 c 128,-1,17
 252 700 252 700 321 700 c 2,18,-1
 580 700 l 1,19,-1
 580 633 l 1,0,-1
EndSplineSet
EndChar

StartChar: periodcentered
Encoding: 183 183 118
Width: 238
Flags: W
LayerCount: 2
Back
Fore
SplineSet
181 213 m 1,0,-1
 57 213 l 1,1,-1
 57 343 l 1,2,-1
 181 343 l 1,3,-1
 181 213 l 1,0,-1
EndSplineSet
EndChar

StartChar: cedilla
Encoding: 184 184 119
Width: 303
Flags: W
LayerCount: 2
Back
Fore
SplineSet
278 -54 m 1,0,-1
 190 -187 l 1,1,-1
 144 -192 l 1,2,-1
 212 -60 l 1,3,-1
 278 -54 l 1,0,-1
EndSplineSet
EndChar

StartChar: uni00B9
Encoding: 185 185 120
Width: 216
Flags: W
LayerCount: 2
Back
Fore
SplineSet
155 320 m 1,0,-1
 80 320 l 1,1,-1
 80 596 l 1,2,3
 48 582 48 582 29 579 c 1,4,-1
 23 639 l 1,5,6
 32 640 32 640 44 646.5 c 128,-1,7
 56 653 56 653 66.5 661 c 128,-1,8
 77 669 77 669 86 679 c 128,-1,9
 95 689 95 689 98 698 c 1,10,-1
 155 698 l 1,11,-1
 155 320 l 1,0,-1
EndSplineSet
EndChar

StartChar: ordmasculine
Encoding: 186 186 121
Width: 370
Flags: W
LayerCount: 2
Back
Fore
SplineSet
295 476 m 0,0,1
 254 434 254 434 185 434 c 0,2,3
 150 434 150 434 122 445.5 c 128,-1,4
 94 457 94 457 74.5 476.5 c 128,-1,5
 55 496 55 496 44 522.5 c 128,-1,6
 33 549 33 549 33 580 c 0,7,8
 33 610 33 610 43.5 636.5 c 128,-1,9
 54 663 54 663 73.5 682.5 c 128,-1,10
 93 702 93 702 121.5 713.5 c 128,-1,11
 150 725 150 725 185 725 c 256,12,13
 220 725 220 725 248 713.5 c 128,-1,14
 276 702 276 702 296 682.5 c 128,-1,15
 316 663 316 663 326.5 636.5 c 128,-1,16
 337 610 337 610 337 580 c 0,17,18
 337 519 337 519 295 476 c 0,0,1
240 642 m 0,19,20
 220 666 220 666 185 666 c 256,21,22
 150 666 150 666 130 641.5 c 128,-1,23
 110 617 110 617 110 580 c 0,24,25
 110 542 110 542 130 518 c 128,-1,26
 150 494 150 494 185 494 c 256,27,28
 220 494 220 494 240 518 c 128,-1,29
 260 542 260 542 260 580 c 0,30,31
 260 617 260 617 240 642 c 0,19,20
EndSplineSet
EndChar

StartChar: guillemotright
Encoding: 187 187 122
Width: 563
Flags: W
LayerCount: 2
Back
Fore
SplineSet
548 284 m 1,0,-1
 401 78 l 1,1,-1
 301 78 l 1,2,-1
 448 284 l 1,3,-1
 301 490 l 1,4,-1
 401 490 l 1,5,-1
 548 284 l 1,0,-1
289 284 m 1,6,-1
 142 78 l 1,7,-1
 41 78 l 1,8,-1
 189 284 l 1,9,-1
 41 490 l 1,10,-1
 142 490 l 1,11,-1
 289 284 l 1,6,-1
EndSplineSet
EndChar

StartChar: questiondown
Encoding: 191 191 126
Width: 449
Flags: W
LayerCount: 2
Back
Fore
SplineSet
233 300 m 1,0,-1
 292 300 l 1,1,2
 295 259 295 259 295 255 c 0,3,4
 295 224 295 224 284 197.5 c 128,-1,5
 273 171 273 171 256 146.5 c 128,-1,6
 239 122 239 122 220 98.5 c 128,-1,7
 201 75 201 75 184 50.5 c 128,-1,8
 167 26 167 26 156 -1.5 c 128,-1,9
 145 -29 145 -29 145 -61 c 0,10,11
 145 -91 145 -91 155.5 -114 c 128,-1,12
 166 -137 166 -137 183.5 -152.5 c 128,-1,13
 201 -168 201 -168 224 -176 c 128,-1,14
 247 -184 247 -184 273 -184 c 0,15,16
 295 -184 295 -184 316 -177.5 c 128,-1,17
 337 -171 337 -171 355 -161 c 128,-1,18
 373 -151 373 -151 386 -139 c 128,-1,19
 399 -127 399 -127 404 -116 c 1,20,-1
 429 -183 l 1,21,22
 410 -212 410 -212 367 -231 c 128,-1,23
 324 -250 324 -250 270 -250 c 0,24,25
 223 -250 223 -250 184.5 -233.5 c 128,-1,26
 146 -217 146 -217 119 -191 c 128,-1,27
 92 -165 92 -165 77 -131.5 c 128,-1,28
 62 -98 62 -98 62 -63 c 256,29,30
 62 -28 62 -28 79.5 10 c 128,-1,31
 97 48 97 48 122 80 c 2,32,-1
 172 145 l 2,33,34
 198 178 198 178 216 210.5 c 128,-1,35
 234 243 234 243 233 273 c 2,36,-1
 233 300 l 1,0,-1
215 500 m 1,37,-1
 306 500 l 1,38,-1
 306 414 l 1,39,-1
 215 414 l 1,40,-1
 215 500 l 1,37,-1
EndSplineSet
EndChar

StartChar: AE
Encoding: 198 198 133
Width: 865
Flags: W
LayerCount: 2
Back
Fore
SplineSet
828 0 m 1,0,-1
 392 0 l 1,1,-1
 392 180 l 1,2,-1
 178 180 l 1,3,-1
 86 0 l 1,4,-1
 -7 0 l 1,5,-1
 335 700 l 1,6,-1
 818 700 l 1,7,-1
 818 613 l 1,8,-1
 506 613 l 1,9,-1
 506 409 l 1,10,-1
 747 409 l 1,11,-1
 747 323 l 1,12,-1
 506 323 l 1,13,-1
 506 86 l 1,14,-1
 828 86 l 1,15,-1
 828 0 l 1,0,-1
392 272 m 1,16,-1
 392 611 l 1,17,-1
 221 272 l 1,18,-1
 392 272 l 1,16,-1
EndSplineSet
EndChar

StartChar: Eth
Encoding: 208 208 143
Width: 727
Flags: W
LayerCount: 2
Back
Fore
SplineSet
342 0 m 2,0,-1
 86 0 l 1,1,-1
 86 313 l 1,2,-1
 -11 313 l 1,3,-1
 -11 377 l 1,4,-1
 86 377 l 1,5,-1
 86 700 l 1,6,-1
 342 700 l 2,7,8
 418 700 418 700 481.5 675.5 c 128,-1,9
 545 651 545 651 591 606 c 128,-1,10
 637 561 637 561 662 496 c 128,-1,11
 687 431 687 431 687 350 c 256,12,13
 687 269 687 269 662 204.5 c 128,-1,14
 637 140 637 140 592 94.5 c 128,-1,15
 547 49 547 49 483.5 24.5 c 128,-1,16
 420 0 420 0 342 0 c 2,0,-1
342 614 m 2,17,-1
 176 614 l 1,18,-1
 176 377 l 1,19,-1
 309 377 l 1,20,-1
 309 313 l 1,21,-1
 176 313 l 1,22,-1
 176 87 l 1,23,-1
 342 87 l 2,24,25
 460 87 460 87 522.5 157 c 128,-1,26
 585 227 585 227 585 350 c 0,27,28
 585 411 585 411 569 460 c 128,-1,29
 553 509 553 509 522.5 543 c 128,-1,30
 492 577 492 577 446.5 595.5 c 128,-1,31
 401 614 401 614 342 614 c 2,17,-1
EndSplineSet
EndChar

StartChar: multiply
Encoding: 215 215 150
Width: 439
Flags: W
LayerCount: 2
Back
Fore
SplineSet
378 155 m 1,0,-1
 342 119 l 1,1,-1
 219 242 l 1,2,-1
 97 119 l 1,3,-1
 61 155 l 1,4,-1
 184 277 l 1,5,-1
 61 399 l 1,6,-1
 97 435 l 1,7,-1
 219 312 l 1,8,-1
 342 435 l 1,9,-1
 378 399 l 1,10,-1
 254 277 l 1,11,-1
 378 155 l 1,0,-1
EndSplineSet
EndChar

StartChar: Oslash
Encoding: 216 216 151
Width: 768
Flags: W
LayerCount: 2
Back
Fore
SplineSet
383 -12 m 0,0,1
 292 -12 292 -12 207 31 c 1,2,-1
 165 -30 l 1,3,-1
 72 -30 l 1,4,-1
 145 75 l 1,5,6
 39 188 39 188 39 350 c 0,7,8
 39 433 39 433 65 500 c 128,-1,9
 91 567 91 567 136.5 614.5 c 128,-1,10
 182 662 182 662 245.5 688 c 128,-1,11
 309 714 309 714 384 714 c 0,12,13
 470 714 470 714 556 672 c 1,14,-1
 587 716 l 1,15,-1
 679 716 l 1,16,-1
 618 627 l 1,17,18
 729 516 729 516 729 349 c 0,19,20
 729 268 729 268 703.5 201.5 c 128,-1,21
 678 135 678 135 632.5 87.5 c 128,-1,22
 587 40 587 40 523 14 c 128,-1,23
 459 -12 459 -12 383 -12 c 0,0,1
563 548 m 1,24,-1
 260 105 l 1,25,26
 329 76 329 76 384 76 c 0,27,28
 442 76 442 76 486.5 96.5 c 128,-1,29
 531 117 531 117 561 154 c 128,-1,30
 591 191 591 191 606 241.5 c 128,-1,31
 621 292 621 292 621 352 c 0,32,33
 621 478 621 478 563 548 c 1,24,-1
383 625 m 0,34,35
 326 625 326 625 282 604.5 c 128,-1,36
 238 584 238 584 208 547 c 128,-1,37
 178 510 178 510 162.5 459.5 c 128,-1,38
 147 409 147 409 147 349 c 0,39,40
 147 251 147 251 202 156 c 1,41,-1
 503 597 l 1,42,43
 437 625 437 625 383 625 c 0,34,35
EndSplineSet
EndChar

StartChar: Thorn
Encoding: 222 222 157
Width: 570
Flags: W
LayerCount: 2
Back
Fore
SplineSet
180 125 m 1,0,-1
 180 0 l 1,1,-1
 80 0 l 1,2,-1
 80 700 l 1,3,-1
 180 700 l 1,4,-1
 180 580 l 1,5,-1
 304 580 l 2,6,7
 353 580 353 580 397 572.5 c 128,-1,8
 441 565 441 565 474.5 541.5 c 128,-1,9
 508 518 508 518 528 475 c 128,-1,10
 548 432 548 432 548 362 c 0,11,12
 548 294 548 294 527.5 248.5 c 128,-1,13
 507 203 507 203 475 175.5 c 128,-1,14
 443 148 443 148 405 136.5 c 128,-1,15
 367 125 367 125 332 125 c 2,16,-1
 180 125 l 1,0,-1
180 495 m 1,17,-1
 180 210 l 1,18,-1
 314 210 l 2,19,20
 387 210 387 210 418 248.5 c 128,-1,21
 449 287 449 287 449 358 c 0,22,23
 449 395 449 395 441 421.5 c 128,-1,24
 433 448 433 448 414 464 c 128,-1,25
 395 480 395 480 363.5 487.5 c 128,-1,26
 332 495 332 495 286 495 c 2,27,-1
 180 495 l 1,17,-1
EndSplineSet
EndChar

StartChar: germandbls
Encoding: 223 223 158
Width: 557
Flags: W
LayerCount: 2
Back
Fore
SplineSet
328 -10 m 0,0,1
 310 -10 310 -10 300 -9 c 128,-1,2
 290 -8 290 -8 278 -7 c 1,3,-1
 278 70 l 1,4,5
 320 70 320 70 354 71.5 c 128,-1,6
 388 73 388 73 411 79.5 c 128,-1,7
 434 86 434 86 446.5 100.5 c 128,-1,8
 459 115 459 115 459 142 c 0,9,10
 459 170 459 170 446.5 193.5 c 128,-1,11
 434 217 434 217 415 237.5 c 128,-1,12
 396 258 396 258 374 275.5 c 128,-1,13
 352 293 352 293 333 309.5 c 128,-1,14
 314 326 314 326 301.5 341 c 128,-1,15
 289 356 289 356 289 371 c 0,16,17
 289 389 289 389 305.5 410 c 128,-1,18
 322 431 322 431 342.5 456.5 c 128,-1,19
 363 482 363 482 379.5 513.5 c 128,-1,20
 396 545 396 545 396 584 c 0,21,22
 396 610 396 610 388 626.5 c 128,-1,23
 380 643 380 643 366.5 653 c 128,-1,24
 353 663 353 663 335 666.5 c 128,-1,25
 317 670 317 670 297 670 c 0,26,27
 243 670 243 670 217 644.5 c 128,-1,28
 191 619 191 619 191 548 c 2,29,-1
 191 -136 l 1,30,-1
 101 -136 l 1,31,-1
 101 420 l 1,32,-1
 16 420 l 1,33,-1
 28 490 l 1,34,-1
 101 490 l 1,35,-1
 101 577 l 2,36,37
 101 619 101 619 116.5 651 c 128,-1,38
 132 683 132 683 159 705 c 128,-1,39
 186 727 186 727 222 738.5 c 128,-1,40
 258 750 258 750 299 750 c 0,41,42
 334 750 334 750 368 741 c 128,-1,43
 402 732 402 732 428.5 712.5 c 128,-1,44
 455 693 455 693 471 662 c 128,-1,45
 487 631 487 631 487 586 c 256,46,47
 487 541 487 541 471.5 506.5 c 128,-1,48
 456 472 456 472 438 447 c 128,-1,49
 420 422 420 422 404.5 405 c 128,-1,50
 389 388 389 388 389 378 c 0,51,52
 389 370 389 370 401 358.5 c 128,-1,53
 413 347 413 347 431 332.5 c 128,-1,54
 449 318 449 318 470 299 c 128,-1,55
 491 280 491 280 509 256.5 c 128,-1,56
 527 233 527 233 539 205 c 128,-1,57
 551 177 551 177 551 143 c 0,58,59
 551 101 551 101 532 72 c 128,-1,60
 513 43 513 43 482 25 c 128,-1,61
 451 7 451 7 410.5 -1.5 c 128,-1,62
 370 -10 370 -10 328 -10 c 0,0,1
EndSplineSet
EndChar

StartChar: ae
Encoding: 230 230 165
Width: 798
Flags: W
LayerCount: 2
Back
Fore
SplineSet
764 245 m 1,0,-1
 428 245 l 1,1,2
 428 155 428 155 473 108.5 c 128,-1,3
 518 62 518 62 593 62 c 0,4,5
 611 62 611 62 624 63.5 c 128,-1,6
 637 65 637 65 651.5 69.5 c 128,-1,7
 666 74 666 74 683.5 81 c 128,-1,8
 701 88 701 88 727 99 c 1,9,-1
 744 30 l 1,10,11
 657 -10 657 -10 581 -10 c 0,12,13
 433 -10 433 -10 380 103 c 1,14,15
 354 46 354 46 299 16 c 128,-1,16
 244 -14 244 -14 172 -14 c 0,17,18
 97 -14 97 -14 59.5 20.5 c 128,-1,19
 22 55 22 55 22 118 c 0,20,21
 22 292 22 292 323 307 c 1,22,23
 314 368 314 368 287.5 394 c 128,-1,24
 261 420 261 420 205 420 c 0,25,26
 152 420 152 420 83 391 c 1,27,-1
 75 461 l 1,28,29
 159 500 159 500 231 500 c 0,30,31
 251 500 251 500 276 494.5 c 128,-1,32
 301 489 301 489 324.5 475.5 c 128,-1,33
 348 462 348 462 366 439 c 128,-1,34
 384 416 384 416 390 380 c 1,35,36
 400 411 400 411 418.5 433.5 c 128,-1,37
 437 456 437 456 461.5 471 c 128,-1,38
 486 486 486 486 515.5 493 c 128,-1,39
 545 500 545 500 577 500 c 0,40,41
 665 500 665 500 716.5 448 c 128,-1,42
 768 396 768 396 768 300 c 0,43,44
 768 289 768 289 767 275 c 128,-1,45
 766 261 766 261 764 245 c 1,0,-1
573 420 m 0,46,47
 466 420 466 420 436 307 c 1,48,-1
 682 307 l 1,49,50
 682 420 682 420 573 420 c 0,46,47
331 245 m 1,51,52
 295 245 295 245 257 239 c 128,-1,53
 219 233 219 233 187 218.5 c 128,-1,54
 155 204 155 204 134.5 181.5 c 128,-1,55
 114 159 114 159 114 126 c 0,56,57
 114 62 114 62 192 62 c 0,58,59
 220 62 220 62 245.5 70.5 c 128,-1,60
 271 79 271 79 290.5 96 c 128,-1,61
 310 113 310 113 321.5 138.5 c 128,-1,62
 333 164 333 164 333 198 c 0,63,64
 333 212 333 212 332.5 224 c 128,-1,65
 332 236 332 236 331 245 c 1,51,52
EndSplineSet
Substitution2: "'smcp' Lowercase to Small Capitals in Latin lookup 1 subtable" AE.sc
Substitution2: "'aalt' Access All Alternates in Latin lookup 0 subtable" AE.sc
EndChar

StartChar: eth
Encoding: 240 240 175
Width: 517
Flags: W
LayerCount: 2
Back
Fore
SplineSet
249 -12 m 0,0,1
 201 -12 201 -12 160.5 4 c 128,-1,2
 120 20 120 20 90.5 48.5 c 128,-1,3
 61 77 61 77 44.5 116 c 128,-1,4
 28 155 28 155 28 201 c 0,5,6
 28 243 28 243 42 283.5 c 128,-1,7
 56 324 56 324 82.5 355.5 c 128,-1,8
 109 387 109 387 148.5 406.5 c 128,-1,9
 188 426 188 426 239 426 c 0,10,11
 325 426 325 426 374 371 c 1,12,13
 370 395 370 395 362 422.5 c 128,-1,14
 354 450 354 450 342.5 476.5 c 128,-1,15
 331 503 331 503 317 525.5 c 128,-1,16
 303 548 303 548 288 560 c 1,17,18
 211 507 211 507 147 498 c 1,19,-1
 117 553 l 1,20,21
 182 562 182 562 245 605 c 1,22,23
 185 659 185 659 124 659 c 1,24,-1
 156 701 l 1,25,26
 228 701 228 701 305 646 c 1,27,28
 336 674 336 674 364 710 c 1,29,-1
 410 698 l 1,30,31
 387 665 387 665 341 614 c 1,32,33
 373 585 373 585 399.5 544.5 c 128,-1,34
 426 504 426 504 444.5 457 c 128,-1,35
 463 410 463 410 473.5 359 c 128,-1,36
 484 308 484 308 484 257 c 0,37,38
 484 180 484 180 462.5 128 c 128,-1,39
 441 76 441 76 407 45 c 128,-1,40
 373 14 373 14 331 1 c 128,-1,41
 289 -12 289 -12 249 -12 c 0,0,1
254 343 m 0,42,43
 225 343 225 343 202 332.5 c 128,-1,44
 179 322 179 322 162.5 303.5 c 128,-1,45
 146 285 146 285 137 261 c 128,-1,46
 128 237 128 237 128 210 c 0,47,48
 128 180 128 180 137 155 c 128,-1,49
 146 130 146 130 162.5 111 c 128,-1,50
 179 92 179 92 202 81.5 c 128,-1,51
 225 71 225 71 253 71 c 0,52,53
 307 71 307 71 340 109.5 c 128,-1,54
 373 148 373 148 373 208 c 256,55,56
 373 268 373 268 340.5 305.5 c 128,-1,57
 308 343 308 343 254 343 c 0,42,43
EndSplineSet
EndChar

StartChar: divide
Encoding: 247 247 182
Width: 592
Flags: W
LayerCount: 2
Back
Fore
SplineSet
336 440 m 1,0,-1
 247 440 l 1,1,-1
 247 534 l 1,2,-1
 336 534 l 1,3,-1
 336 440 l 1,0,-1
526 245 m 1,4,-1
 66 245 l 1,5,-1
 66 319 l 1,6,-1
 526 319 l 1,7,-1
 526 245 l 1,4,-1
336 20 m 1,8,-1
 247 20 l 1,9,-1
 247 114 l 1,10,-1
 336 114 l 1,11,-1
 336 20 l 1,8,-1
EndSplineSet
EndChar

StartChar: oslash
Encoding: 248 248 183
Width: 570
Flags: W
LayerCount: 2
Back
Fore
SplineSet
286 -13 m 0,0,1
 253 -13 253 -13 200 -2 c 1,2,-1
 181 -40 l 1,3,-1
 110 -40 l 1,4,-1
 142 26 l 1,5,6
 33 107 33 107 33 244 c 0,7,8
 33 298 33 298 50.5 345 c 128,-1,9
 68 392 68 392 101 426.5 c 128,-1,10
 134 461 134 461 180.5 481 c 128,-1,11
 227 501 227 501 285 501 c 0,12,13
 321 501 321 501 369 489 c 1,14,-1
 388 529 l 1,15,-1
 462 529 l 1,16,-1
 428 463 l 1,17,18
 539 379 539 379 539 243 c 0,19,20
 539 189 539 189 521.5 142 c 128,-1,21
 504 95 504 95 471 60.5 c 128,-1,22
 438 26 438 26 391 6.5 c 128,-1,23
 344 -13 344 -13 286 -13 c 0,0,1
395 393 m 1,24,-1
 232 63 l 1,25,26
 274 57 274 57 287 57 c 0,27,28
 324 57 324 57 353 71.5 c 128,-1,29
 382 86 382 86 401.5 111 c 128,-1,30
 421 136 421 136 431.5 170 c 128,-1,31
 442 204 442 204 442 243 c 0,32,33
 442 264 442 264 439 287 c 128,-1,34
 436 310 436 310 430 330.5 c 128,-1,35
 424 351 424 351 415.5 367.5 c 128,-1,36
 407 384 407 384 395 393 c 1,24,-1
284 431 m 0,37,38
 248 431 248 431 219.5 417 c 128,-1,39
 191 403 191 403 171 378 c 128,-1,40
 151 353 151 353 140.5 318.5 c 128,-1,41
 130 284 130 284 130 243 c 0,42,43
 130 175 130 175 176 95 c 1,44,-1
 337 424 l 1,45,46
 299 431 299 431 284 431 c 0,37,38
EndSplineSet
EndChar

StartChar: thorn
Encoding: 254 254 189
Width: 580
Flags: W
LayerCount: 2
Back
Fore
SplineSet
302 -10 m 0,0,1
 199 -10 199 -10 150 56 c 1,2,-1
 150 -241 l 1,3,-1
 60 -241 l 1,4,-1
 60 750 l 1,5,-1
 150 750 l 1,6,-1
 150 438 l 1,7,8
 212 500 212 500 308 500 c 0,9,10
 363 500 363 500 407 480 c 128,-1,11
 451 460 451 460 482.5 425.5 c 128,-1,12
 514 391 514 391 531 344.5 c 128,-1,13
 548 298 548 298 548 245 c 256,14,15
 548 192 548 192 531.5 145.5 c 128,-1,16
 515 99 515 99 483.5 64.5 c 128,-1,17
 452 30 452 30 406 10 c 128,-1,18
 360 -10 360 -10 302 -10 c 0,0,1
143 245 m 0,19,20
 143 163 143 163 180 112.5 c 128,-1,21
 217 62 217 62 294 62 c 0,22,23
 372 62 372 62 414.5 112.5 c 128,-1,24
 457 163 457 163 457 245 c 0,25,26
 457 326 457 326 414.5 373 c 128,-1,27
 372 420 372 420 294 420 c 256,28,29
 216 420 216 420 179.5 373 c 128,-1,30
 143 326 143 326 143 245 c 0,19,20
EndSplineSet
EndChar

StartChar: dotlessi
Encoding: 305 305 193
Width: 212
Flags: W
LayerCount: 2
Back
Fore
SplineSet
151 0 m 1,0,-1
 61 0 l 1,1,-1
 61 490 l 1,2,-1
 151 490 l 1,3,-1
 151 0 l 1,0,-1
EndSplineSet
EndChar

StartChar: OE
Encoding: 338 338 194
Width: 1071
Flags: W
LayerCount: 2
Back
Fore
SplineSet
1034 0 m 1,0,-1
 624 0 l 1,1,-1
 624 83 l 1,2,3
 555 30 555 30 497.5 8 c 128,-1,4
 440 -14 440 -14 378 -14 c 0,5,6
 303 -14 303 -14 241 12 c 128,-1,7
 179 38 179 38 134 86 c 128,-1,8
 89 134 89 134 64.5 201 c 128,-1,9
 40 268 40 268 40 350 c 256,10,11
 40 432 40 432 65 499.5 c 128,-1,12
 90 567 90 567 135 614.5 c 128,-1,13
 180 662 180 662 242 688 c 128,-1,14
 304 714 304 714 378 714 c 0,15,16
 440 714 440 714 497.5 692 c 128,-1,17
 555 670 555 670 624 617 c 1,18,-1
 624 699 l 1,19,-1
 1025 699 l 1,20,-1
 1025 614 l 1,21,-1
 715 614 l 1,22,-1
 715 409 l 1,23,-1
 953 409 l 1,24,-1
 953 323 l 1,25,-1
 715 323 l 1,26,-1
 715 86 l 1,27,-1
 1034 86 l 1,28,-1
 1034 0 l 1,0,-1
378 628 m 0,29,30
 320 628 320 628 275.5 607.5 c 128,-1,31
 231 587 231 587 201 550 c 128,-1,32
 171 513 171 513 155.5 462 c 128,-1,33
 140 411 140 411 140 350 c 0,34,35
 140 290 140 290 155 239 c 128,-1,36
 170 188 170 188 200 151 c 128,-1,37
 230 114 230 114 274.5 93 c 128,-1,38
 319 72 319 72 378 72 c 0,39,40
 436 72 436 72 480.5 93 c 128,-1,41
 525 114 525 114 555 151 c 128,-1,42
 585 188 585 188 600 239 c 128,-1,43
 615 290 615 290 615 350 c 0,44,45
 615 411 615 411 599.5 462 c 128,-1,46
 584 513 584 513 554 550 c 128,-1,47
 524 587 524 587 479.5 607.5 c 128,-1,48
 435 628 435 628 378 628 c 0,29,30
EndSplineSet
EndChar

StartChar: oe
Encoding: 339 339 195
Width: 902
Flags: W
LayerCount: 2
Back
Fore
SplineSet
868 245 m 1,0,-1
 525 245 l 1,1,2
 525 188 525 188 541 152.5 c 128,-1,3
 557 117 557 117 581 96.5 c 128,-1,4
 605 76 605 76 632.5 69 c 128,-1,5
 660 62 660 62 683 62 c 0,6,7
 767 62 767 62 838 99 c 1,8,-1
 848 22 l 1,9,10
 776 -10 776 -10 695 -10 c 0,11,12
 602 -10 602 -10 551 16.5 c 128,-1,13
 500 43 500 43 477 97 c 1,14,15
 455 46 455 46 400 18 c 128,-1,16
 345 -10 345 -10 278 -10 c 0,17,18
 221 -10 221 -10 175.5 10 c 128,-1,19
 130 30 130 30 98 65 c 128,-1,20
 66 100 66 100 49 147.5 c 128,-1,21
 32 195 32 195 32 250 c 0,22,23
 32 304 32 304 49.5 350 c 128,-1,24
 67 396 67 396 99.5 429 c 128,-1,25
 132 462 132 462 178.5 481 c 128,-1,26
 225 500 225 500 282 500 c 0,27,28
 310 500 310 500 339.5 493.5 c 128,-1,29
 369 487 369 487 395.5 474 c 128,-1,30
 422 461 422 461 442 442 c 128,-1,31
 462 423 462 423 473 398 c 1,32,33
 486 422 486 422 507 441 c 128,-1,34
 528 460 528 460 552.5 473 c 128,-1,35
 577 486 577 486 604.5 493 c 128,-1,36
 632 500 632 500 659 500 c 0,37,38
 707 500 707 500 746.5 486 c 128,-1,39
 786 472 786 472 813.5 445.5 c 128,-1,40
 841 419 841 419 856.5 381.5 c 128,-1,41
 872 344 872 344 872 296 c 0,42,43
 872 265 872 265 868 245 c 1,0,-1
658 420 m 0,44,45
 551 420 551 420 527 307 c 1,46,-1
 780 307 l 1,47,48
 776 361 776 361 744 390.5 c 128,-1,49
 712 420 712 420 658 420 c 0,44,45
282 420 m 0,50,51
 204 420 204 420 164 374.5 c 128,-1,52
 124 329 124 329 124 245 c 0,53,54
 124 160 124 160 163.5 115 c 128,-1,55
 203 70 203 70 281 70 c 0,56,57
 356 70 356 70 394.5 119.5 c 128,-1,58
 433 169 433 169 433 248 c 0,59,60
 433 326 433 326 393.5 373 c 128,-1,61
 354 420 354 420 282 420 c 0,50,51
EndSplineSet
Substitution2: "'smcp' Lowercase to Small Capitals in Latin lookup 1 subtable" OE.sc
Substitution2: "'aalt' Access All Alternates in Latin lookup 0 subtable" OE.sc
EndChar

StartChar: florin
Encoding: 402 402 201
Width: 351
Flags: W
LayerCount: 2
Back
Fore
SplineSet
371 703 m 1,0,-1
 364 648 l 1,1,2
 351 656 351 656 332 656 c 0,3,4
 302 656 302 656 280.5 648 c 128,-1,5
 259 640 259 640 244 620.5 c 128,-1,6
 229 601 229 601 219 569 c 128,-1,7
 209 537 209 537 201 490 c 1,8,-1
 349 490 l 1,9,-1
 343 434 l 1,10,-1
 190 434 l 1,11,-1
 104 -92 l 2,12,13
 98 -132 98 -132 84.5 -160 c 128,-1,14
 71 -188 71 -188 55 -206 c 128,-1,15
 39 -224 39 -224 22 -232.5 c 128,-1,16
 5 -241 5 -241 -8 -241 c 2,17,-1
 -21 -241 l 1,18,-1
 -34 -178 l 1,19,20
 23 -166 23 -166 37 -77 c 2,21,-1
 117 434 l 1,22,-1
 23 434 l 1,23,-1
 30 490 l 1,24,-1
 126 490 l 1,25,-1
 135 551 l 2,26,27
 141 590 141 590 157.5 620 c 128,-1,28
 174 650 174 650 198.5 671 c 128,-1,29
 223 692 223 692 253.5 703 c 128,-1,30
 284 714 284 714 319 714 c 0,31,32
 336 714 336 714 371 703 c 1,0,-1
EndSplineSet
EndChar

StartChar: uni0237
Encoding: 567 567 202
Width: 212
Flags: W
LayerCount: 2
Back
Fore
SplineSet
28 -237 m 2,0,-1
 -2 -242 l 1,1,-1
 -12 -173 l 1,2,3
 10 -171 10 -171 24 -166 c 128,-1,4
 38 -161 38 -161 46 -150.5 c 128,-1,5
 54 -140 54 -140 57.5 -121.5 c 128,-1,6
 61 -103 61 -103 61 -73 c 2,7,-1
 61 490 l 1,8,-1
 151 490 l 1,9,-1
 151 -107 l 2,10,11
 151 -139 151 -139 141 -161.5 c 128,-1,12
 131 -184 131 -184 114.5 -199.5 c 128,-1,13
 98 -215 98 -215 75.5 -224 c 128,-1,14
 53 -233 53 -233 28 -237 c 2,0,-1
EndSplineSet
EndChar

StartChar: circumflex
Encoding: 710 710 203
Width: 446
Flags: W
LayerCount: 2
Back
Fore
SplineSet
370 603 m 1,0,-1
 223 685 l 1,1,-1
 76 603 l 1,2,-1
 76 639 l 1,3,-1
 223 745 l 1,4,-1
 370 639 l 1,5,-1
 370 603 l 1,0,-1
EndSplineSet
EndChar

StartChar: caron
Encoding: 711 711 204
Width: 446
Flags: W
LayerCount: 2
Back
Fore
SplineSet
370 699 m 1,0,-1
 223 600 l 1,1,-1
 76 699 l 1,2,-1
 76 740 l 1,3,-1
 223 664 l 1,4,-1
 370 740 l 1,5,-1
 370 699 l 1,0,-1
EndSplineSet
EndChar

StartChar: ring
Encoding: 730 730 205
Width: 292
Flags: W
LayerCount: 2
Back
Fore
SplineSet
146 576 m 2,0,1
 97 576 97 576 69.5 602 c 128,-1,2
 42 628 42 628 42 665 c 0,3,4
 42 704 42 704 71 729.5 c 128,-1,5
 100 755 100 755 152 755 c 0,6,7
 176 755 176 755 194.5 747.5 c 128,-1,8
 213 740 213 740 225 727 c 128,-1,9
 237 714 237 714 243 698 c 128,-1,10
 249 682 249 682 249 665 c 0,11,12
 249 631 249 631 225 603.5 c 128,-1,13
 201 576 201 576 153 576 c 2,14,-1
 146 576 l 2,0,1
86 665 m 0,15,16
 86 638 86 638 104 621.5 c 128,-1,17
 122 605 122 605 146 605 c 256,18,19
 170 605 170 605 188 621.5 c 128,-1,20
 206 638 206 638 206 665 c 0,21,22
 206 691 206 691 188.5 707.5 c 128,-1,23
 171 724 171 724 146 724 c 256,24,25
 121 724 121 724 103.5 707.5 c 128,-1,26
 86 691 86 691 86 665 c 0,15,16
EndSplineSet
EndChar

StartChar: tilde
Encoding: 732 732 206
Width: 528
Flags: W
LayerCount: 2
Back
Fore
SplineSet
331 599 m 0,0,1
 319 599 319 599 301 607 c 128,-1,2
 283 615 283 615 262.5 624.5 c 128,-1,3
 242 634 242 634 226 642 c 128,-1,4
 210 650 210 650 199 650 c 0,5,6
 146 650 146 650 128 601 c 1,7,-1
 92 610 l 1,8,9
 98 632 98 632 108 649 c 128,-1,10
 118 666 118 666 133 677.5 c 128,-1,11
 148 689 148 689 164 694.5 c 128,-1,12
 180 700 180 700 195 700 c 0,13,14
 208 700 208 700 226 692.5 c 128,-1,15
 244 685 244 685 267 675.5 c 128,-1,16
 290 666 290 666 307.5 658.5 c 128,-1,17
 325 651 325 651 335 651 c 0,18,19
 377 651 377 651 404 702 c 1,20,-1
 438 693 l 1,21,22
 427 650 427 650 398 624.5 c 128,-1,23
 369 599 369 599 331 599 c 0,0,1
EndSplineSet
EndChar

StartChar: endash
Encoding: 8211 8211 207
Width: 502
Flags: W
LayerCount: 2
Back
Fore
SplineSet
445 238 m 1,0,-1
 57 238 l 1,1,-1
 57 324 l 1,2,-1
 445 324 l 1,3,-1
 445 238 l 1,0,-1
EndSplineSet
EndChar

StartChar: emdash
Encoding: 8212 8212 208
Width: 594
Flags: W
LayerCount: 2
Back
Fore
SplineSet
537 238 m 1,0,-1
 57 238 l 1,1,-1
 57 324 l 1,2,-1
 537 324 l 1,3,-1
 537 238 l 1,0,-1
EndSplineSet
EndChar

StartChar: quoteleft
Encoding: 8216 8216 209
Width: 186
Flags: W
LayerCount: 2
Back
Fore
SplineSet
43 641 m 1,0,-1
 121 750 l 1,1,-1
 144 737 l 1,2,-1
 109 650 l 1,3,-1
 143 641 l 1,4,-1
 143 555 l 1,5,-1
 43 555 l 1,6,-1
 43 641 l 1,0,-1
EndSplineSet
EndChar

StartChar: quoteright
Encoding: 8217 8217 210
Width: 169
Flags: W
LayerCount: 2
Back
Fore
SplineSet
143 664 m 1,0,-1
 65 555 l 1,1,-1
 42 568 l 1,2,-1
 77 655 l 1,3,-1
 43 664 l 1,4,-1
 43 750 l 1,5,-1
 143 750 l 1,6,-1
 143 664 l 1,0,-1
EndSplineSet
EndChar

StartChar: quotesinglbase
Encoding: 8218 8218 211
Width: 216
Flags: W
LayerCount: 2
Back
Fore
SplineSet
158 0 m 1,0,-1
 80 -109 l 1,1,-1
 57 -96 l 1,2,-1
 92 -9 l 1,3,-1
 58 0 l 1,4,-1
 58 86 l 1,5,-1
 158 86 l 1,6,-1
 158 0 l 1,0,-1
EndSplineSet
EndChar

StartChar: quotedblleft
Encoding: 8220 8220 212
Width: 396
Flags: W
LayerCount: 2
Back
Fore
SplineSet
43 641 m 1,0,-1
 121 750 l 1,1,-1
 144 737 l 1,2,-1
 109 650 l 1,3,-1
 143 641 l 1,4,-1
 143 555 l 1,5,-1
 43 555 l 1,6,-1
 43 641 l 1,0,-1
253 641 m 1,7,-1
 331 750 l 1,8,-1
 354 737 l 1,9,-1
 319 650 l 1,10,-1
 353 641 l 1,11,-1
 353 555 l 1,12,-1
 253 555 l 1,13,-1
 253 641 l 1,7,-1
EndSplineSet
EndChar

StartChar: quotedblright
Encoding: 8221 8221 213
Width: 379
Flags: W
LayerCount: 2
Back
Fore
SplineSet
353 664 m 1,0,-1
 275 555 l 1,1,-1
 252 568 l 1,2,-1
 287 655 l 1,3,-1
 253 664 l 1,4,-1
 253 750 l 1,5,-1
 353 750 l 1,6,-1
 353 664 l 1,0,-1
143 664 m 1,7,-1
 65 555 l 1,8,-1
 42 568 l 1,9,-1
 77 655 l 1,10,-1
 43 664 l 1,11,-1
 43 750 l 1,12,-1
 143 750 l 1,13,-1
 143 664 l 1,7,-1
EndSplineSet
EndChar

StartChar: quotedblbase
Encoding: 8222 8222 214
Width: 446
Flags: W
LayerCount: 2
Back
Fore
SplineSet
158 0 m 1,0,-1
 80 -109 l 1,1,-1
 57 -96 l 1,2,-1
 92 -9 l 1,3,-1
 58 0 l 1,4,-1
 58 86 l 1,5,-1
 158 86 l 1,6,-1
 158 0 l 1,0,-1
388 0 m 1,7,-1
 310 -109 l 1,8,-1
 287 -96 l 1,9,-1
 322 -9 l 1,10,-1
 288 0 l 1,11,-1
 288 86 l 1,12,-1
 388 86 l 1,13,-1
 388 0 l 1,7,-1
EndSplineSet
EndChar

StartChar: dagger
Encoding: 8224 8224 215
Width: 424
Flags: W
LayerCount: 2
Back
Fore
SplineSet
389 373 m 1,0,-1
 231 403 l 1,1,-1
 272 252 l 1,2,-1
 241 0 l 1,3,-1
 183 0 l 1,4,-1
 152 252 l 1,5,-1
 193 403 l 1,6,-1
 35 373 l 1,7,-1
 35 458 l 1,8,-1
 191 427 l 1,9,-1
 157 607 l 1,10,-1
 267 607 l 1,11,-1
 233 427 l 1,12,-1
 389 458 l 1,13,-1
 389 373 l 1,0,-1
EndSplineSet
EndChar

StartChar: daggerdbl
Encoding: 8225 8225 216
Width: 460
Flags: W
LayerCount: 2
Back
Fore
SplineSet
407 88 m 1,0,-1
 251 118 l 1,1,-1
 285 -59 l 1,2,-1
 175 -59 l 1,3,-1
 209 118 l 1,4,-1
 53 88 l 1,5,-1
 53 172 l 1,6,-1
 213 142 l 1,7,-1
 170 274 l 1,8,-1
 213 407 l 1,9,-1
 53 377 l 1,10,-1
 53 461 l 1,11,-1
 209 431 l 1,12,-1
 175 607 l 1,13,-1
 285 607 l 1,14,-1
 251 431 l 1,15,-1
 407 461 l 1,16,-1
 407 377 l 1,17,-1
 247 407 l 1,18,-1
 290 274 l 1,19,-1
 247 142 l 1,20,-1
 407 172 l 1,21,-1
 407 88 l 1,0,-1
EndSplineSet
EndChar

StartChar: bullet
Encoding: 8226 8226 217
Width: 306
Flags: W
LayerCount: 2
Back
Fore
SplineSet
230 201 m 0,0,1
 213 184 213 184 193.5 176.5 c 128,-1,2
 174 169 174 169 153 169 c 0,3,4
 131 169 131 169 111.5 178 c 128,-1,5
 92 187 92 187 77 202 c 128,-1,6
 62 217 62 217 53 236.5 c 128,-1,7
 44 256 44 256 44 278 c 256,8,9
 44 300 44 300 53 319.5 c 128,-1,10
 62 339 62 339 77 354 c 128,-1,11
 92 369 92 369 111.5 378 c 128,-1,12
 131 387 131 387 153 387 c 256,13,14
 175 387 175 387 194.5 378 c 128,-1,15
 214 369 214 369 229 354 c 128,-1,16
 244 339 244 339 253 319.5 c 128,-1,17
 262 300 262 300 262 278 c 0,18,19
 262 257 262 257 254 237 c 128,-1,20
 246 217 246 217 230 201 c 0,0,1
EndSplineSet
EndChar

StartChar: ellipsis
Encoding: 8230 8230 218
Width: 676
Flags: W
LayerCount: 2
Back
Fore
SplineSet
147 0 m 1,0,-1
 57 0 l 1,1,-1
 57 86 l 1,2,-1
 147 86 l 1,3,-1
 147 0 l 1,0,-1
383 0 m 1,4,-1
 293 0 l 1,5,-1
 293 86 l 1,6,-1
 383 86 l 1,7,-1
 383 0 l 1,4,-1
619 0 m 1,8,-1
 529 0 l 1,9,-1
 529 86 l 1,10,-1
 619 86 l 1,11,-1
 619 0 l 1,8,-1
EndSplineSet
EndChar

StartChar: perthousand
Encoding: 8240 8240 219
Width: 1201
Flags: W
LayerCount: 2
Back
Fore
SplineSet
238 -12 m 1,0,-1
 163 -12 l 1,1,-1
 584 700 l 1,2,-1
 658 700 l 1,3,-1
 238 -12 l 1,0,-1
182 333 m 0,4,5
 118 333 118 333 77 380 c 128,-1,6
 36 427 36 427 36 515 c 0,7,8
 36 561 36 561 48 596.5 c 128,-1,9
 60 632 60 632 81 656 c 128,-1,10
 102 680 102 680 129.5 692.5 c 128,-1,11
 157 705 157 705 187 705 c 0,12,13
 218 705 218 705 244.5 693 c 128,-1,14
 271 681 271 681 290.5 658 c 128,-1,15
 310 635 310 635 321.5 601.5 c 128,-1,16
 333 568 333 568 333 524 c 0,17,18
 333 478 333 478 321.5 442.5 c 128,-1,19
 310 407 310 407 290 382.5 c 128,-1,20
 270 358 270 358 242.5 345.5 c 128,-1,21
 215 333 215 333 182 333 c 0,4,5
186 653 m 0,22,23
 167 653 167 653 150 643.5 c 128,-1,24
 133 634 133 634 120 616 c 128,-1,25
 107 598 107 598 99.5 572 c 128,-1,26
 92 546 92 546 92 515 c 0,27,28
 92 455 92 455 119 420 c 128,-1,29
 146 385 146 385 183 385 c 0,30,31
 223 385 223 385 250 422.5 c 128,-1,32
 277 460 277 460 277 524 c 0,33,34
 277 553 277 553 270 577 c 128,-1,35
 263 601 263 601 250 618 c 128,-1,36
 237 635 237 635 220.5 644 c 128,-1,37
 204 653 204 653 186 653 c 0,22,23
655 -14 m 0,38,39
 591 -14 591 -14 550 33 c 128,-1,40
 509 80 509 80 509 168 c 0,41,42
 509 214 509 214 521 249.5 c 128,-1,43
 533 285 533 285 554 309 c 128,-1,44
 575 333 575 333 602.5 345.5 c 128,-1,45
 630 358 630 358 660 358 c 0,46,47
 691 358 691 358 717.5 346 c 128,-1,48
 744 334 744 334 763.5 311 c 128,-1,49
 783 288 783 288 794.5 254.5 c 128,-1,50
 806 221 806 221 806 177 c 0,51,52
 806 131 806 131 794.5 95.5 c 128,-1,53
 783 60 783 60 763 35.5 c 128,-1,54
 743 11 743 11 715.5 -1.5 c 128,-1,55
 688 -14 688 -14 655 -14 c 0,38,39
659 306 m 0,56,57
 640 306 640 306 623 296.5 c 128,-1,58
 606 287 606 287 593 269 c 128,-1,59
 580 251 580 251 572.5 225 c 128,-1,60
 565 199 565 199 565 168 c 0,61,62
 565 108 565 108 592 73 c 128,-1,63
 619 38 619 38 656 38 c 0,64,65
 696 38 696 38 723 75.5 c 128,-1,66
 750 113 750 113 750 177 c 0,67,68
 750 206 750 206 743 230 c 128,-1,69
 736 254 736 254 723 271 c 128,-1,70
 710 288 710 288 693.5 297 c 128,-1,71
 677 306 677 306 659 306 c 0,56,57
1014 -14 m 0,72,73
 950 -14 950 -14 909 33 c 128,-1,74
 868 80 868 80 868 168 c 0,75,76
 868 214 868 214 880 249.5 c 128,-1,77
 892 285 892 285 913 309 c 128,-1,78
 934 333 934 333 961.5 345.5 c 128,-1,79
 989 358 989 358 1019 358 c 0,80,81
 1050 358 1050 358 1076.5 346 c 128,-1,82
 1103 334 1103 334 1122.5 311 c 128,-1,83
 1142 288 1142 288 1153.5 254.5 c 128,-1,84
 1165 221 1165 221 1165 177 c 0,85,86
 1165 131 1165 131 1153.5 95.5 c 128,-1,87
 1142 60 1142 60 1122 35.5 c 128,-1,88
 1102 11 1102 11 1074.5 -1.5 c 128,-1,89
 1047 -14 1047 -14 1014 -14 c 0,72,73
1018 306 m 0,90,91
 999 306 999 306 982 296.5 c 128,-1,92
 965 287 965 287 952 269 c 128,-1,93
 939 251 939 251 931.5 225 c 128,-1,94
 924 199 924 199 924 168 c 0,95,96
 924 108 924 108 951 73 c 128,-1,97
 978 38 978 38 1015 38 c 0,98,99
 1055 38 1055 38 1082 75.5 c 128,-1,100
 1109 113 1109 113 1109 177 c 0,101,102
 1109 206 1109 206 1102 230 c 128,-1,103
 1095 254 1095 254 1082 271 c 128,-1,104
 1069 288 1069 288 1052.5 297 c 128,-1,105
 1036 306 1036 306 1018 306 c 0,90,91
EndSplineSet
EndChar

StartChar: guilsinglleft
Encoding: 8249 8249 220
Width: 322
Flags: W
LayerCount: 2
Back
Fore
SplineSet
282 78 m 1,0,-1
 173 78 l 1,1,-1
 14 284 l 1,2,-1
 173 490 l 1,3,-1
 282 490 l 1,4,-1
 123 284 l 1,5,-1
 282 78 l 1,0,-1
EndSplineSet
EndChar

StartChar: guilsinglright
Encoding: 8250 8250 221
Width: 323
Flags: W
LayerCount: 2
Back
Fore
SplineSet
309 284 m 1,0,-1
 150 78 l 1,1,-1
 41 78 l 1,2,-1
 200 284 l 1,3,-1
 41 490 l 1,4,-1
 150 490 l 1,5,-1
 309 284 l 1,0,-1
EndSplineSet
EndChar

StartChar: uni2070
Encoding: 8304 8304 222
Width: 407
Flags: W
LayerCount: 2
Back
Fore
SplineSet
200 312 m 0,0,1
 162 312 162 312 131.5 325.5 c 128,-1,2
 101 339 101 339 79 364 c 128,-1,3
 57 389 57 389 45 424.5 c 128,-1,4
 33 460 33 460 33 503 c 0,5,6
 33 547 33 547 46.5 584 c 128,-1,7
 60 621 60 621 83 648 c 128,-1,8
 106 675 106 675 138 690.5 c 128,-1,9
 170 706 170 706 207 706 c 0,10,11
 243 706 243 706 273.5 691.5 c 128,-1,12
 304 677 304 677 326.5 651 c 128,-1,13
 349 625 349 625 361.5 589.5 c 128,-1,14
 374 554 374 554 374 512 c 0,15,16
 374 467 374 467 361.5 430 c 128,-1,17
 349 393 349 393 326 367 c 128,-1,18
 303 341 303 341 271 326.5 c 128,-1,19
 239 312 239 312 200 312 c 0,0,1
107 503 m 0,20,21
 107 439 107 439 133 408 c 128,-1,22
 159 377 159 377 201 377 c 0,23,24
 246 377 246 377 273.5 410 c 128,-1,25
 301 443 301 443 301 512 c 0,26,27
 301 575 301 575 273.5 608.5 c 128,-1,28
 246 642 246 642 206 642 c 256,29,30
 166 642 166 642 136.5 606 c 128,-1,31
 107 570 107 570 107 503 c 0,20,21
EndSplineSet
EndChar

StartChar: uni2074
Encoding: 8308 8308 223
Width: 330
Flags: W
LayerCount: 2
Back
Fore
SplineSet
303 423 m 1,0,-1
 254 423 l 1,1,-1
 254 320 l 1,2,-1
 180 320 l 1,3,-1
 180 423 l 1,4,-1
 5 423 l 1,5,-1
 192 698 l 1,6,-1
 254 698 l 1,7,-1
 254 480 l 1,8,-1
 303 480 l 1,9,-1
 303 423 l 1,0,-1
180 480 m 1,10,-1
 180 590 l 1,11,-1
 106 480 l 1,12,-1
 180 480 l 1,10,-1
EndSplineSet
EndChar

StartChar: uni2075
Encoding: 8309 8309 224
Width: 307
Flags: W
LayerCount: 2
Back
Fore
SplineSet
130 313 m 0,0,1
 113 313 113 313 95 316.5 c 128,-1,2
 77 320 77 320 61.5 325 c 128,-1,3
 46 330 46 330 24 345 c 1,4,-1
 41 410 l 1,5,6
 76 381 76 381 128 381 c 0,7,8
 206 381 206 381 206 442 c 0,9,10
 206 497 206 497 107 497 c 2,11,-1
 45 497 l 1,12,-1
 70 698 l 1,13,-1
 257 698 l 1,14,-1
 249 628 l 1,15,-1
 126 628 l 1,16,-1
 116 557 l 1,17,18
 201 556 201 556 239.5 529 c 128,-1,19
 278 502 278 502 278 444 c 0,20,21
 278 412 278 412 266 388 c 128,-1,22
 254 364 254 364 233.5 347 c 128,-1,23
 213 330 213 330 186.5 321.5 c 128,-1,24
 160 313 160 313 130 313 c 0,0,1
EndSplineSet
EndChar

StartChar: uni2076
Encoding: 8310 8310 225
Width: 322
Flags: W
LayerCount: 2
Back
Fore
SplineSet
158 312 m 0,0,1
 101 312 101 312 66.5 347.5 c 128,-1,2
 32 383 32 383 32 458 c 0,3,4
 32 506 32 506 50 549.5 c 128,-1,5
 68 593 68 593 94.5 626 c 128,-1,6
 121 659 121 659 151.5 678.5 c 128,-1,7
 182 698 182 698 206 698 c 1,8,-1
 255 670 l 1,9,10
 239 670 239 670 214.5 655.5 c 128,-1,11
 190 641 190 641 167.5 619.5 c 128,-1,12
 145 598 145 598 129 573.5 c 128,-1,13
 113 549 113 549 110 528 c 1,14,15
 128 547 128 547 178 547 c 0,16,17
 232 547 232 547 266 519.5 c 128,-1,18
 300 492 300 492 300 438 c 0,19,20
 300 412 300 412 289.5 389.5 c 128,-1,21
 279 367 279 367 260.5 349.5 c 128,-1,22
 242 332 242 332 215.5 322 c 128,-1,23
 189 312 189 312 158 312 c 0,0,1
173 489 m 0,24,25
 142 489 142 489 123 474 c 128,-1,26
 104 459 104 459 104 430 c 0,27,28
 104 406 104 406 123.5 391.5 c 128,-1,29
 143 377 143 377 166 377 c 0,30,31
 195 377 195 377 213 395.5 c 128,-1,32
 231 414 231 414 231 440 c 0,33,34
 231 459 231 459 216 474 c 128,-1,35
 201 489 201 489 173 489 c 0,24,25
EndSplineSet
EndChar

StartChar: uni2077
Encoding: 8311 8311 226
Width: 290
Flags: W
LayerCount: 2
Back
Fore
SplineSet
290 698 m 1,0,-1
 120 320 l 1,1,-1
 43 320 l 1,2,-1
 182 628 l 1,3,-1
 23 628 l 1,4,-1
 23 698 l 1,5,-1
 290 698 l 1,0,-1
EndSplineSet
EndChar

StartChar: uni2078
Encoding: 8312 8312 227
Width: 346
Flags: W
LayerCount: 2
Back
Fore
SplineSet
167 312 m 0,0,1
 100 312 100 312 65.5 343 c 128,-1,2
 31 374 31 374 31 420 c 0,3,4
 31 480 31 480 94 524 c 1,5,6
 54 552 54 552 54 610 c 0,7,8
 54 652 54 652 82.5 679 c 128,-1,9
 111 706 111 706 175 706 c 0,10,11
 238 706 238 706 265.5 681.5 c 128,-1,12
 293 657 293 657 293 618 c 0,13,14
 293 564 293 564 243 528 c 1,15,16
 275 515 275 515 295 489 c 128,-1,17
 315 463 315 463 315 431 c 0,18,19
 315 408 315 408 305.5 386.5 c 128,-1,20
 296 365 296 365 277.5 348.5 c 128,-1,21
 259 332 259 332 231 322 c 128,-1,22
 203 312 203 312 167 312 c 0,0,1
173 650 m 0,23,24
 119 650 119 650 119 603 c 0,25,26
 119 562 119 562 170 550 c 1,27,28
 225 563 225 563 225 605 c 0,29,30
 225 650 225 650 173 650 c 0,23,24
175 499 m 1,31,32
 145 495 145 495 123.5 475.5 c 128,-1,33
 102 456 102 456 102 426 c 0,34,35
 102 399 102 399 120 384 c 128,-1,36
 138 369 138 369 170 369 c 0,37,38
 204 369 204 369 223 385 c 128,-1,39
 242 401 242 401 242 428 c 0,40,41
 242 457 242 457 223 475 c 128,-1,42
 204 493 204 493 175 499 c 1,31,32
EndSplineSet
EndChar

StartChar: uni2079
Encoding: 8313 8313 228
Width: 324
Flags: W
LayerCount: 2
Back
Fore
SplineSet
164 706 m 0,0,1
 221 706 221 706 256 670 c 128,-1,2
 291 634 291 634 291 561 c 0,3,4
 291 514 291 514 275.5 470.5 c 128,-1,5
 260 427 260 427 233.5 393.5 c 128,-1,6
 207 360 207 360 176 340 c 128,-1,7
 145 320 145 320 116 320 c 1,8,-1
 69 348 l 1,9,10
 85 348 85 348 109.5 360.5 c 128,-1,11
 134 373 134 373 157 393 c 128,-1,12
 180 413 180 413 196.5 438.5 c 128,-1,13
 213 464 213 464 215 490 c 1,14,15
 196 471 196 471 144 471 c 0,16,17
 89 471 89 471 55.5 498.5 c 128,-1,18
 22 526 22 526 22 578 c 0,19,20
 22 605 22 605 32.5 628 c 128,-1,21
 43 651 43 651 62 668.5 c 128,-1,22
 81 686 81 686 107 696 c 128,-1,23
 133 706 133 706 164 706 c 0,0,1
151 529 m 0,24,25
 182 529 182 529 201 543.5 c 128,-1,26
 220 558 220 558 220 587 c 0,27,28
 220 641 220 641 159 641 c 0,29,30
 129 641 129 641 112 623 c 128,-1,31
 95 605 95 605 95 581 c 0,32,33
 95 559 95 559 108.5 544 c 128,-1,34
 122 529 122 529 151 529 c 0,24,25
EndSplineSet
EndChar

StartChar: Euro
Encoding: 8364 8364 239
Width: 703
Flags: W
LayerCount: 2
Back
Fore
SplineSet
174 215 m 1,0,-1
 33 215 l 1,1,-1
 57 284 l 1,2,-1
 156 284 l 1,3,4
 154 303 154 303 153 319.5 c 128,-1,5
 152 336 152 336 152 350 c 2,6,-1
 152 369 l 1,7,-1
 63 369 l 1,8,-1
 85 438 l 1,9,-1
 161 438 l 1,10,11
 175 495 175 495 203.5 540.5 c 128,-1,12
 232 586 232 586 272 617.5 c 128,-1,13
 312 649 312 649 362.5 666 c 128,-1,14
 413 683 413 683 470 683 c 0,15,16
 574 683 574 683 646 649 c 1,17,-1
 634 551 l 1,18,19
 543 589 543 589 470 589 c 0,20,21
 324 589 324 589 278 438 c 1,22,-1
 536 438 l 1,23,-1
 512 369 l 1,24,-1
 268 369 l 1,25,-1
 268 350 l 2,26,27
 268 333 268 333 269.5 316.5 c 128,-1,28
 271 300 271 300 273 284 c 1,29,-1
 516 284 l 1,30,-1
 492 215 l 1,31,-1
 294 215 l 1,32,33
 353 111 353 111 470 111 c 0,34,35
 543 111 543 111 634 149 c 1,36,-1
 646 51 l 1,37,38
 574 17 574 17 470 17 c 0,39,40
 368 17 368 17 290 69 c 128,-1,41
 212 121 212 121 174 215 c 1,0,-1
EndSplineSet
EndChar

StartChar: trademark
Encoding: 8482 8482 240
Width: 727
Flags: W
LayerCount: 2
Back
Fore
SplineSet
489 443 m 1,0,-1
 483 443 l 1,1,-1
 391 606 l 1,2,-1
 358 337 l 1,3,-1
 306 337 l 1,4,-1
 353 700 l 1,5,-1
 382 700 l 1,6,-1
 487 521 l 1,7,-1
 591 700 l 1,8,-1
 620 700 l 1,9,-1
 668 337 l 1,10,-1
 614 337 l 1,11,-1
 583 605 l 1,12,-1
 489 443 l 1,0,-1
290 700 m 1,13,-1
 284 650 l 1,14,-1
 184 650 l 1,15,-1
 184 337 l 1,16,-1
 133 337 l 1,17,-1
 133 650 l 1,18,-1
 31 650 l 1,19,-1
 31 700 l 1,20,-1
 290 700 l 1,13,-1
EndSplineSet
EndChar

StartChar: B.sc
Encoding: 65537 -1 241
Width: 534
Flags: W
LayerCount: 2
Back
Fore
SplineSet
290 0 m 2,0,-1
 74 0 l 1,1,-1
 74 560 l 1,2,-1
 220 560 l 2,3,4
 277 560 277 560 319.5 554 c 128,-1,5
 362 548 362 548 390 532 c 128,-1,6
 418 516 418 516 432 488.5 c 128,-1,7
 446 461 446 461 446 418 c 0,8,9
 446 338 446 338 397 299 c 1,10,11
 451 280 451 280 474.5 248.5 c 128,-1,12
 498 217 498 217 498 165 c 0,13,14
 498 116 498 116 480 84 c 128,-1,15
 462 52 462 52 432.5 33.5 c 128,-1,16
 403 15 403 15 365.5 7.5 c 128,-1,17
 328 0 328 0 290 0 c 2,0,-1
253 480 m 2,18,-1
 167 480 l 1,19,-1
 167 332 l 1,20,-1
 270 332 l 2,21,22
 355 332 355 332 355 406 c 0,23,24
 355 450 355 450 329 465 c 128,-1,25
 303 480 303 480 253 480 c 2,18,-1
287 256 m 2,26,-1
 167 256 l 1,27,-1
 167 81 l 1,28,-1
 262 81 l 2,29,30
 332 81 332 81 366.5 99 c 128,-1,31
 401 117 401 117 401 166 c 0,32,33
 401 256 401 256 287 256 c 2,26,-1
EndSplineSet
EndChar

StartChar: C.sc
Encoding: 65538 -1 242
Width: 537
Flags: W
LayerCount: 2
Back
Fore
SplineSet
335 -11 m 0,0,1
 270 -11 270 -11 215.5 10 c 128,-1,2
 161 31 161 31 122 69 c 128,-1,3
 83 107 83 107 61 161 c 128,-1,4
 39 215 39 215 39 280 c 256,5,6
 39 345 39 345 61 398.5 c 128,-1,7
 83 452 83 452 122 490.5 c 128,-1,8
 161 529 161 529 215.5 550 c 128,-1,9
 270 571 270 571 335 571 c 0,10,11
 432 571 432 571 501 538 c 1,12,-1
 491 451 l 1,13,14
 400 483 400 483 335 483 c 0,15,16
 288 483 288 483 252 468 c 128,-1,17
 216 453 216 453 191.5 426.5 c 128,-1,18
 167 400 167 400 154 362.5 c 128,-1,19
 141 325 141 325 141 280 c 256,20,21
 141 235 141 235 154 197.5 c 128,-1,22
 167 160 167 160 191.5 133.5 c 128,-1,23
 216 107 216 107 252.5 92 c 128,-1,24
 289 77 289 77 336 77 c 0,25,26
 400 77 400 77 491 109 c 1,27,-1
 501 21 l 1,28,29
 428 -11 428 -11 335 -11 c 0,0,1
EndSplineSet
EndChar

StartChar: D.sc
Encoding: 65539 -1 243
Width: 629
Flags: W
LayerCount: 2
Back
Fore
SplineSet
295 0 m 2,0,-1
 74 0 l 1,1,-1
 74 560 l 1,2,-1
 295 560 l 2,3,4
 359 560 359 560 414 540.5 c 128,-1,5
 469 521 469 521 508 485 c 128,-1,6
 547 449 547 449 568.5 397 c 128,-1,7
 590 345 590 345 590 280 c 0,8,9
 590 214 590 214 568 162 c 128,-1,10
 546 110 546 110 507 74 c 128,-1,11
 468 38 468 38 413.5 19 c 128,-1,12
 359 0 359 0 295 0 c 2,0,-1
295 472 m 2,13,-1
 167 472 l 1,14,-1
 167 88 l 1,15,-1
 295 88 l 2,16,17
 389 88 389 88 438.5 139 c 128,-1,18
 488 190 488 190 488 280 c 256,19,20
 488 370 488 370 438.5 421 c 128,-1,21
 389 472 389 472 295 472 c 2,13,-1
EndSplineSet
EndChar

StartChar: E.sc
Encoding: 65540 -1 244
Width: 490
Flags: W
LayerCount: 2
Back
Fore
SplineSet
453 0 m 1,0,-1
 74 0 l 1,1,-1
 74 560 l 1,2,-1
 445 560 l 1,3,-1
 445 472 l 1,4,-1
 169 472 l 1,5,-1
 169 336 l 1,6,-1
 386 336 l 1,7,-1
 386 248 l 1,8,-1
 169 248 l 1,9,-1
 169 88 l 1,10,-1
 453 88 l 1,11,-1
 453 0 l 1,0,-1
EndSplineSet
EndChar

StartChar: F.sc
Encoding: 65541 -1 245
Width: 459
Flags: W
LayerCount: 2
Back
Fore
SplineSet
438 472 m 1,0,-1
 167 472 l 1,1,-1
 167 336 l 1,2,-1
 377 336 l 1,3,-1
 377 248 l 1,4,-1
 167 248 l 1,5,-1
 167 0 l 1,6,-1
 74 0 l 1,7,-1
 74 560 l 1,8,-1
 438 560 l 1,9,-1
 438 472 l 1,0,-1
EndSplineSet
EndChar

StartChar: G.sc
Encoding: 65542 -1 246
Width: 583
Flags: W
LayerCount: 2
Back
Fore
SplineSet
330 -11 m 0,0,1
 267 -11 267 -11 213.5 10 c 128,-1,2
 160 31 160 31 121.5 69 c 128,-1,3
 83 107 83 107 61 161 c 128,-1,4
 39 215 39 215 39 281 c 0,5,6
 39 346 39 346 60.5 399.5 c 128,-1,7
 82 453 82 453 121.5 491 c 128,-1,8
 161 529 161 529 216 550 c 128,-1,9
 271 571 271 571 337 571 c 0,10,11
 439 571 439 571 514 539 c 1,12,-1
 505 452 l 1,13,14
 418 483 418 483 339 483 c 0,15,16
 241 483 241 483 191 427.5 c 128,-1,17
 141 372 141 372 141 282 c 0,18,19
 141 188 141 188 193.5 132.5 c 128,-1,20
 246 77 246 77 349 77 c 0,21,22
 398 77 398 77 440 88 c 1,23,-1
 440 202 l 1,24,-1
 359 202 l 1,25,-1
 359 281 l 1,26,-1
 534 281 l 1,27,-1
 534 31 l 1,28,29
 517 23 517 23 492.5 15.5 c 128,-1,30
 468 8 468 8 440 2 c 128,-1,31
 412 -4 412 -4 383.5 -7.5 c 128,-1,32
 355 -11 355 -11 330 -11 c 0,0,1
EndSplineSet
EndChar

StartChar: H.sc
Encoding: 65543 -1 247
Width: 646
Flags: W
LayerCount: 2
Back
Fore
SplineSet
572 0 m 1,0,-1
 479 0 l 1,1,-1
 479 248 l 1,2,-1
 167 248 l 1,3,-1
 167 0 l 1,4,-1
 74 0 l 1,5,-1
 74 560 l 1,6,-1
 167 560 l 1,7,-1
 167 337 l 1,8,-1
 479 337 l 1,9,-1
 479 560 l 1,10,-1
 572 560 l 1,11,-1
 572 0 l 1,0,-1
EndSplineSet
EndChar

StartChar: I.sc
Encoding: 65544 -1 248
Width: 241
Flags: W
LayerCount: 2
Back
Fore
SplineSet
167 0 m 1,0,-1
 74 0 l 1,1,-1
 74 560 l 1,2,-1
 167 560 l 1,3,-1
 167 0 l 1,0,-1
EndSplineSet
EndChar

StartChar: J.sc
Encoding: 65545 -1 249
Width: 241
Flags: W
LayerCount: 2
Back
Fore
SplineSet
28 -138 m 2,0,-1
 7 -138 l 1,1,-1
 -2 -72 l 1,2,-1
 10 -72 l 2,3,4
 47 -72 47 -72 60.5 -55 c 128,-1,5
 74 -38 74 -38 74 1 c 2,6,-1
 74 560 l 1,7,-1
 167 560 l 1,8,-1
 167 -22 l 2,9,10
 167 -138 167 -138 28 -138 c 2,0,-1
EndSplineSet
EndChar

StartChar: K.sc
Encoding: 65546 -1 250
Width: 525
Flags: W
LayerCount: 2
Back
Fore
SplineSet
512 0 m 1,0,-1
 410 0 l 1,1,-1
 195 296 l 1,2,-1
 410 560 l 1,3,-1
 512 560 l 1,4,-1
 297 296 l 1,5,-1
 512 0 l 1,0,-1
167 0 m 1,6,-1
 74 0 l 1,7,-1
 74 560 l 1,8,-1
 167 560 l 1,9,-1
 167 0 l 1,6,-1
EndSplineSet
EndChar

StartChar: A.sc
Encoding: 65547 -1 251
Width: 534
Flags: W
LayerCount: 2
Back
Fore
SplineSet
526 0 m 1,0,-1
 429 0 l 1,1,-1
 374 141 l 1,2,-1
 160 141 l 1,3,-1
 106 0 l 1,4,-1
 8 0 l 1,5,-1
 221 560 l 1,6,-1
 314 560 l 1,7,-1
 526 0 l 1,0,-1
343 229 m 1,8,-1
 267 418 l 1,9,-1
 191 229 l 1,10,-1
 343 229 l 1,8,-1
EndSplineSet
EndChar

StartChar: M.sc
Encoding: 65548 -1 252
Width: 712
Flags: W
LayerCount: 2
Back
Fore
SplineSet
666 0 m 1,0,-1
 568 0 l 1,1,-1
 514 392 l 1,2,-1
 357 123 l 1,3,-1
 198 392 l 1,4,-1
 144 0 l 1,5,-1
 46 0 l 1,6,-1
 127 560 l 1,7,-1
 205 560 l 1,8,-1
 357 297 l 1,9,-1
 507 560 l 1,10,-1
 585 560 l 1,11,-1
 666 0 l 1,0,-1
EndSplineSet
EndChar

StartChar: N.sc
Encoding: 65549 -1 253
Width: 614
Flags: W
LayerCount: 2
Back
Fore
SplineSet
540 0 m 1,0,-1
 462 0 l 1,1,-1
 167 405 l 1,2,-1
 167 0 l 1,3,-1
 74 0 l 1,4,-1
 74 560 l 1,5,-1
 170 560 l 1,6,-1
 446 178 l 1,7,-1
 446 560 l 1,8,-1
 540 560 l 1,9,-1
 540 0 l 1,0,-1
EndSplineSet
EndChar

StartChar: O.sc
Encoding: 65550 -1 254
Width: 665
Flags: W
LayerCount: 2
Back
Fore
SplineSet
543 69 m 256,0,1
 460 -11 460 -11 332 -11 c 0,2,3
 268 -11 268 -11 214 10 c 128,-1,4
 160 31 160 31 121 69 c 128,-1,5
 82 107 82 107 60.5 161 c 128,-1,6
 39 215 39 215 39 280 c 256,7,8
 39 345 39 345 60.5 398.5 c 128,-1,9
 82 452 82 452 121 490.5 c 128,-1,10
 160 529 160 529 214 550 c 128,-1,11
 268 571 268 571 332 571 c 256,12,13
 396 571 396 571 450 550 c 128,-1,14
 504 529 504 529 543 490.5 c 128,-1,15
 582 452 582 452 604 398.5 c 128,-1,16
 626 345 626 345 626 280 c 0,17,18
 626 149 626 149 543 69 c 256,0,1
473 427 m 256,19,20
 423 483 423 483 332 483 c 0,21,22
 286 483 286 483 250.5 468.5 c 128,-1,23
 215 454 215 454 190.5 427 c 128,-1,24
 166 400 166 400 153.5 362.5 c 128,-1,25
 141 325 141 325 141 280 c 256,26,27
 141 235 141 235 153.5 197.5 c 128,-1,28
 166 160 166 160 190.5 133 c 128,-1,29
 215 106 215 106 250.5 91.5 c 128,-1,30
 286 77 286 77 332 77 c 256,31,32
 378 77 378 77 413.5 92 c 128,-1,33
 449 107 449 107 473.5 133.5 c 128,-1,34
 498 160 498 160 510.5 197.5 c 128,-1,35
 523 235 523 235 523 280 c 0,36,37
 523 371 523 371 473 427 c 256,19,20
EndSplineSet
EndChar

StartChar: AE.sc
Encoding: 65551 -1 255
Width: 742
Flags: W
LayerCount: 2
Back
Fore
SplineSet
705 0 m 1,0,-1
 335 0 l 1,1,-1
 335 138 l 1,2,-1
 160 138 l 1,3,-1
 86 0 l 1,4,-1
 -8 0 l 1,5,-1
 282 560 l 1,6,-1
 697 560 l 1,7,-1
 697 471 l 1,8,-1
 438 471 l 1,9,-1
 438 336 l 1,10,-1
 638 336 l 1,11,-1
 638 248 l 1,12,-1
 438 248 l 1,13,-1
 438 88 l 1,14,-1
 705 88 l 1,15,-1
 705 0 l 1,0,-1
335 228 m 1,16,-1
 335 469 l 1,17,-1
 203 228 l 1,18,-1
 335 228 l 1,16,-1
EndSplineSet
EndChar

StartChar: P.sc
Encoding: 65552 -1 256
Width: 510
Flags: W
LayerCount: 2
Back
Fore
SplineSet
289 188 m 2,0,-1
 170 188 l 1,1,-1
 170 0 l 1,2,-1
 74 0 l 1,3,-1
 74 560 l 1,4,-1
 254 560 l 2,5,6
 308 560 308 560 351 552.5 c 128,-1,7
 394 545 394 545 424 525.5 c 128,-1,8
 454 506 454 506 468.5 472 c 128,-1,9
 483 438 483 438 483 384 c 0,10,11
 483 328 483 328 465 290.5 c 128,-1,12
 447 253 447 253 419 230.5 c 128,-1,13
 391 208 391 208 356.5 198 c 128,-1,14
 322 188 322 188 289 188 c 2,0,-1
260 481 m 2,15,-1
 170 481 l 1,16,-1
 170 274 l 1,17,-1
 274 274 l 2,18,19
 334 274 334 274 360.5 299.5 c 128,-1,20
 387 325 387 325 387 382 c 0,21,22
 387 436 387 436 359.5 458.5 c 128,-1,23
 332 481 332 481 260 481 c 2,15,-1
EndSplineSet
EndChar

StartChar: Q.sc
Encoding: 65553 -1 257
Width: 665
Flags: W
LayerCount: 2
Back
Fore
SplineSet
619 58 m 1,0,-1
 567 -4 l 1,1,-1
 510 40 l 1,2,3
 432 -11 432 -11 332 -11 c 0,4,5
 268 -11 268 -11 214 10 c 128,-1,6
 160 31 160 31 121 69 c 128,-1,7
 82 107 82 107 60.5 161 c 128,-1,8
 39 215 39 215 39 280 c 256,9,10
 39 345 39 345 60.5 398.5 c 128,-1,11
 82 452 82 452 121 490.5 c 128,-1,12
 160 529 160 529 214 550 c 128,-1,13
 268 571 268 571 332 571 c 256,14,15
 396 571 396 571 450 550 c 128,-1,16
 504 529 504 529 543 490.5 c 128,-1,17
 582 452 582 452 604 398.5 c 128,-1,18
 626 345 626 345 626 280 c 0,19,20
 626 179 626 179 567 99 c 1,21,-1
 619 58 l 1,0,-1
332 483 m 256,22,23
 286 483 286 483 250.5 468.5 c 128,-1,24
 215 454 215 454 190.5 427 c 128,-1,25
 166 400 166 400 153.5 362.5 c 128,-1,26
 141 325 141 325 141 280 c 256,27,28
 141 235 141 235 153.5 197.5 c 128,-1,29
 166 160 166 160 190.5 133 c 128,-1,30
 215 106 215 106 250.5 91.5 c 128,-1,31
 286 77 286 77 332 77 c 0,32,33
 397 77 397 77 441 100 c 1,34,-1
 361 160 l 1,35,-1
 412 224 l 1,36,-1
 495 159 l 1,37,38
 528 205 528 205 528 280 c 0,39,40
 528 325 528 325 515 362.5 c 128,-1,41
 502 400 502 400 476.5 427 c 128,-1,42
 451 454 451 454 414.5 468.5 c 128,-1,43
 378 483 378 483 332 483 c 256,22,23
EndSplineSet
EndChar

StartChar: R.sc
Encoding: 65554 -1 258
Width: 537
Flags: W
LayerCount: 2
Back
Fore
SplineSet
515 0 m 1,0,-1
 416 0 l 1,1,-1
 288 212 l 1,2,-1
 170 212 l 1,3,-1
 170 0 l 1,4,-1
 74 0 l 1,5,-1
 74 560 l 1,6,-1
 278 560 l 2,7,8
 483 560 483 560 483 398 c 0,9,10
 483 288 483 288 378 236 c 1,11,-1
 515 0 l 1,0,-1
266 483 m 2,12,-1
 170 483 l 1,13,-1
 170 300 l 1,14,-1
 276 300 l 2,15,16
 328 300 328 300 357 324 c 128,-1,17
 386 348 386 348 386 393 c 0,18,19
 386 483 386 483 266 483 c 2,12,-1
EndSplineSet
EndChar

StartChar: S.sc
Encoding: 65555 -1 259
Width: 511
Flags: W
LayerCount: 2
Back
Fore
SplineSet
246 -11 m 0,0,1
 117 -11 117 -11 50 28 c 1,2,-1
 62 135 l 1,3,4
 133 77 133 77 248 77 c 0,5,6
 374 77 374 77 374 147 c 0,7,8
 374 171 374 171 359.5 188 c 128,-1,9
 345 205 345 205 318.5 218 c 128,-1,10
 292 231 292 231 254.5 242.5 c 128,-1,11
 217 254 217 254 171 268 c 1,12,-1
 123 289 l 2,13,14
 88 304 88 304 64.5 331 c 128,-1,15
 41 358 41 358 41 406 c 0,16,17
 41 437 41 437 54 467 c 128,-1,18
 67 497 67 497 93 520 c 128,-1,19
 119 543 119 543 159.5 557 c 128,-1,20
 200 571 200 571 256 571 c 0,21,22
 283 571 283 571 310.5 567.5 c 128,-1,23
 338 564 338 564 362.5 558.5 c 128,-1,24
 387 553 387 553 408 545.5 c 128,-1,25
 429 538 429 538 444 530 c 1,26,-1
 434 434 l 1,27,28
 332 484 332 484 262 484 c 0,29,30
 238 484 238 484 215.5 480 c 128,-1,31
 193 476 193 476 176 468 c 128,-1,32
 159 460 159 460 149 447 c 128,-1,33
 139 434 139 434 139 416 c 0,34,35
 139 392 139 392 152 379 c 128,-1,36
 165 366 165 366 191.5 356 c 128,-1,37
 218 346 218 346 257 335 c 128,-1,38
 296 324 296 324 349 304 c 0,39,40
 372 295 372 295 395 283 c 128,-1,41
 418 271 418 271 436 253.5 c 128,-1,42
 454 236 454 236 465.5 210.5 c 128,-1,43
 477 185 477 185 477 149 c 0,44,45
 477 125 477 125 469.5 97 c 128,-1,46
 462 69 462 69 437.5 45 c 128,-1,47
 413 21 413 21 367.5 5 c 128,-1,48
 322 -11 322 -11 246 -11 c 0,0,1
EndSplineSet
EndChar

StartChar: T.sc
Encoding: 65556 -1 260
Width: 470
Flags: W
LayerCount: 2
Back
Fore
SplineSet
453 472 m 1,0,-1
 282 472 l 1,1,-1
 282 0 l 1,2,-1
 188 0 l 1,3,-1
 188 472 l 1,4,-1
 17 472 l 1,5,-1
 17 560 l 1,6,-1
 453 560 l 1,7,-1
 453 472 l 1,0,-1
EndSplineSet
EndChar

StartChar: U.sc
Encoding: 65557 -1 261
Width: 627
Flags: W
LayerCount: 2
Back
Fore
SplineSet
314 -11 m 256,0,1
 191 -11 191 -11 129 55.5 c 128,-1,2
 67 122 67 122 67 239 c 2,3,-1
 67 560 l 1,4,-1
 160 560 l 1,5,-1
 160 274 l 2,6,7
 160 228 160 228 167 191.5 c 128,-1,8
 174 155 174 155 192 129.5 c 128,-1,9
 210 104 210 104 239.5 90.5 c 128,-1,10
 269 77 269 77 314 77 c 0,11,12
 361 77 361 77 391 92 c 128,-1,13
 421 107 421 107 438 133.5 c 128,-1,14
 455 160 455 160 461 196 c 128,-1,15
 467 232 467 232 467 274 c 2,16,-1
 467 560 l 1,17,-1
 560 560 l 1,18,-1
 560 239 l 2,19,20
 560 121 560 121 498.5 55 c 128,-1,21
 437 -11 437 -11 314 -11 c 256,0,1
EndSplineSet
EndChar

StartChar: V.sc
Encoding: 65558 -1 262
Width: 561
Flags: W
LayerCount: 2
Back
Fore
SplineSet
554 560 m 1,0,-1
 334 0 l 1,1,-1
 228 0 l 1,2,-1
 6 560 l 1,3,-1
 104 560 l 1,4,-1
 281 118 l 1,5,-1
 456 560 l 1,6,-1
 554 560 l 1,0,-1
EndSplineSet
EndChar

StartChar: W.sc
Encoding: 65559 -1 263
Width: 835
Flags: W
LayerCount: 2
Back
Fore
SplineSet
822 560 m 1,0,-1
 648 0 l 1,1,-1
 555 0 l 1,2,-1
 419 404 l 1,3,-1
 279 0 l 1,4,-1
 184 0 l 1,5,-1
 17 560 l 1,6,-1
 115 560 l 1,7,-1
 241 135 l 1,8,-1
 382 556 l 1,9,-1
 456 556 l 1,10,-1
 601 142 l 1,11,-1
 724 560 l 1,12,-1
 822 560 l 1,0,-1
EndSplineSet
EndChar

StartChar: X.sc
Encoding: 65560 -1 264
Width: 540
Flags: W
LayerCount: 2
Back
Fore
SplineSet
529 0 m 1,0,-1
 425 0 l 1,1,-1
 266 214 l 1,2,-1
 117 0 l 1,3,-1
 14 0 l 1,4,-1
 218 279 l 1,5,-1
 18 560 l 1,6,-1
 126 560 l 1,7,-1
 272 355 l 1,8,-1
 420 560 l 1,9,-1
 523 560 l 1,10,-1
 318 290 l 1,11,-1
 529 0 l 1,0,-1
EndSplineSet
EndChar

StartChar: Y.sc
Encoding: 65561 -1 265
Width: 504
Flags: W
LayerCount: 2
Back
Fore
SplineSet
503 560 m 1,0,-1
 300 252 l 1,1,-1
 300 0 l 1,2,-1
 204 0 l 1,3,-1
 204 252 l 1,4,-1
 1 560 l 1,5,-1
 100 560 l 1,6,-1
 252 335 l 1,7,-1
 404 560 l 1,8,-1
 503 560 l 1,0,-1
EndSplineSet
EndChar

StartChar: Z.sc
Encoding: 65562 -1 266
Width: 483
Flags: W
LayerCount: 2
Back
Fore
SplineSet
468 560 m 1,0,-1
 169 88 l 1,1,-1
 430 88 l 1,2,-1
 430 0 l 1,3,-1
 15 0 l 1,4,-1
 314 472 l 1,5,-1
 53 472 l 1,6,-1
 53 560 l 1,7,-1
 468 560 l 1,0,-1
EndSplineSet
EndChar

StartChar: OE.sc
Encoding: 65563 -1 267
Width: 921
Flags: W
LayerCount: 2
Back
Fore
SplineSet
884 0 m 1,0,-1
 525 0 l 1,1,-1
 525 52 l 1,2,3
 427 -11 427 -11 329 -11 c 0,4,5
 265 -11 265 -11 212 10 c 128,-1,6
 159 31 159 31 120.5 69 c 128,-1,7
 82 107 82 107 60.5 161 c 128,-1,8
 39 215 39 215 39 280 c 256,9,10
 39 345 39 345 60.5 398.5 c 128,-1,11
 82 452 82 452 120.5 490.5 c 128,-1,12
 159 529 159 529 212 550 c 128,-1,13
 265 571 265 571 329 571 c 0,14,15
 427 571 427 571 525 508 c 1,16,-1
 525 560 l 1,17,-1
 876 560 l 1,18,-1
 876 472 l 1,19,-1
 618 472 l 1,20,-1
 618 336 l 1,21,-1
 817 336 l 1,22,-1
 817 248 l 1,23,-1
 618 248 l 1,24,-1
 618 88 l 1,25,-1
 884 88 l 1,26,-1
 884 0 l 1,0,-1
469 427 m 0,27,28
 421 483 421 483 329 483 c 0,29,30
 283 483 283 483 247.5 468.5 c 128,-1,31
 212 454 212 454 188 427 c 128,-1,32
 164 400 164 400 151.5 362.5 c 128,-1,33
 139 325 139 325 139 280 c 256,34,35
 139 235 139 235 151.5 197.5 c 128,-1,36
 164 160 164 160 188 133 c 128,-1,37
 212 106 212 106 247.5 91.5 c 128,-1,38
 283 77 283 77 329 77 c 256,39,40
 375 77 375 77 410.5 92 c 128,-1,41
 446 107 446 107 470 133.5 c 128,-1,42
 494 160 494 160 506 197.5 c 128,-1,43
 518 235 518 235 518 280 c 0,44,45
 518 372 518 372 469 427 c 0,27,28
EndSplineSet
EndChar

StartChar: L.sc
Encoding: 65564 -1 268
Width: 440
Flags: W
LayerCount: 2
Back
Fore
SplineSet
428 0 m 1,0,-1
 74 0 l 1,1,-1
 74 560 l 1,2,-1
 167 560 l 1,3,-1
 167 88 l 1,4,-1
 428 88 l 1,5,-1
 428 0 l 1,0,-1
EndSplineSet
EndChar
